%
M48
M72
T01C0.02400
T02C0.03200
T03C0.11811
%
T01
X49000Y119000
X54000Y131500
X54000Y136500
X56500Y144000
X66500Y144000
X111500Y154000
X121500Y224000
X111500Y269000
X79000Y244000
X51500Y279000
X31500Y211500
X166500Y189000
X186500Y229000
X181500Y304000
T02
X176500Y314000
X186500Y314000
X196500Y314000
X206500Y314000
X166500Y314000
X156500Y314000
X146500Y314000
X136500Y314000
X126500Y314000
X116500Y314000
X106500Y314000
X96500Y314000
X86500Y314000
X76500Y314000
X66500Y314000
X56500Y314000
X46500Y314000
X36500Y314000
X26500Y314000
X16500Y314000
X16500Y254000
X26500Y254000
X36500Y254000
X46500Y254000
X56500Y254000
X66500Y254000
X76500Y254000
X86500Y254000
X96500Y254000
X106500Y254000
X116500Y254000
X126500Y254000
X136500Y254000
X146500Y254000
X156500Y254000
X166500Y254000
X176500Y254000
X186500Y254000
X196500Y254000
X206500Y254000
X141500Y204000
X141500Y194000
X141500Y184000
X141500Y174000
X141500Y164000
X141500Y154000
X141500Y144000
X141500Y134000
X141500Y124000
X141500Y114000
X141500Y104000
X141500Y94000
X141500Y84000
X141500Y74000
X141500Y64000
X141500Y54000
X141500Y44000
X141500Y34000
X141500Y24000
X141500Y14000
X81500Y14000
X81500Y24000
X81500Y34000
X81500Y44000
X81500Y54000
X81500Y64000
X81500Y74000
X81500Y84000
X81500Y94000
X81500Y104000
X81500Y114000
X81500Y124000
X81500Y134000
X81500Y144000
X81500Y154000
X81500Y164000
X81500Y174000
X81500Y184000
X81500Y194000
X81500Y204000
T03
X51500Y66500
X171500Y66500
M30
