G75*
%MOIN*%
%OFA0B0*%
%FSLAX25Y25*%
%IPPOS*%
%LPD*%
%AMOC8*
5,1,8,0,0,1.08239X$1,22.5*
%
%ADD10C,0.03000*%
%ADD11R,0.05200X0.05200*%
%ADD12C,0.03500*%
%ADD13C,0.01000*%
%ADD14C,0.04000*%
D10*
X0043594Y0066500D02*
X0043596Y0066694D01*
X0043604Y0066888D01*
X0043615Y0067082D01*
X0043632Y0067275D01*
X0043653Y0067468D01*
X0043680Y0067660D01*
X0043710Y0067852D01*
X0043746Y0068042D01*
X0043786Y0068232D01*
X0043831Y0068421D01*
X0043880Y0068609D01*
X0043934Y0068795D01*
X0043993Y0068980D01*
X0044056Y0069163D01*
X0044124Y0069345D01*
X0044196Y0069525D01*
X0044272Y0069704D01*
X0044353Y0069880D01*
X0044438Y0070055D01*
X0044528Y0070227D01*
X0044621Y0070397D01*
X0044719Y0070564D01*
X0044821Y0070730D01*
X0044926Y0070892D01*
X0045036Y0071052D01*
X0045150Y0071210D01*
X0045267Y0071364D01*
X0045389Y0071516D01*
X0045514Y0071664D01*
X0045642Y0071809D01*
X0045774Y0071952D01*
X0045910Y0072090D01*
X0046048Y0072226D01*
X0046191Y0072358D01*
X0046336Y0072486D01*
X0046484Y0072611D01*
X0046636Y0072733D01*
X0046790Y0072850D01*
X0046948Y0072964D01*
X0047108Y0073074D01*
X0047270Y0073179D01*
X0047436Y0073281D01*
X0047603Y0073379D01*
X0047773Y0073472D01*
X0047945Y0073562D01*
X0048120Y0073647D01*
X0048296Y0073728D01*
X0048475Y0073804D01*
X0048655Y0073876D01*
X0048837Y0073944D01*
X0049020Y0074007D01*
X0049205Y0074066D01*
X0049391Y0074120D01*
X0049579Y0074169D01*
X0049768Y0074214D01*
X0049958Y0074254D01*
X0050148Y0074290D01*
X0050340Y0074320D01*
X0050532Y0074347D01*
X0050725Y0074368D01*
X0050918Y0074385D01*
X0051112Y0074396D01*
X0051306Y0074404D01*
X0051500Y0074406D01*
X0051694Y0074404D01*
X0051888Y0074396D01*
X0052082Y0074385D01*
X0052275Y0074368D01*
X0052468Y0074347D01*
X0052660Y0074320D01*
X0052852Y0074290D01*
X0053042Y0074254D01*
X0053232Y0074214D01*
X0053421Y0074169D01*
X0053609Y0074120D01*
X0053795Y0074066D01*
X0053980Y0074007D01*
X0054163Y0073944D01*
X0054345Y0073876D01*
X0054525Y0073804D01*
X0054704Y0073728D01*
X0054880Y0073647D01*
X0055055Y0073562D01*
X0055227Y0073472D01*
X0055397Y0073379D01*
X0055564Y0073281D01*
X0055730Y0073179D01*
X0055892Y0073074D01*
X0056052Y0072964D01*
X0056210Y0072850D01*
X0056364Y0072733D01*
X0056516Y0072611D01*
X0056664Y0072486D01*
X0056809Y0072358D01*
X0056952Y0072226D01*
X0057090Y0072090D01*
X0057226Y0071952D01*
X0057358Y0071809D01*
X0057486Y0071664D01*
X0057611Y0071516D01*
X0057733Y0071364D01*
X0057850Y0071210D01*
X0057964Y0071052D01*
X0058074Y0070892D01*
X0058179Y0070730D01*
X0058281Y0070564D01*
X0058379Y0070397D01*
X0058472Y0070227D01*
X0058562Y0070055D01*
X0058647Y0069880D01*
X0058728Y0069704D01*
X0058804Y0069525D01*
X0058876Y0069345D01*
X0058944Y0069163D01*
X0059007Y0068980D01*
X0059066Y0068795D01*
X0059120Y0068609D01*
X0059169Y0068421D01*
X0059214Y0068232D01*
X0059254Y0068042D01*
X0059290Y0067852D01*
X0059320Y0067660D01*
X0059347Y0067468D01*
X0059368Y0067275D01*
X0059385Y0067082D01*
X0059396Y0066888D01*
X0059404Y0066694D01*
X0059406Y0066500D01*
X0059404Y0066306D01*
X0059396Y0066112D01*
X0059385Y0065918D01*
X0059368Y0065725D01*
X0059347Y0065532D01*
X0059320Y0065340D01*
X0059290Y0065148D01*
X0059254Y0064958D01*
X0059214Y0064768D01*
X0059169Y0064579D01*
X0059120Y0064391D01*
X0059066Y0064205D01*
X0059007Y0064020D01*
X0058944Y0063837D01*
X0058876Y0063655D01*
X0058804Y0063475D01*
X0058728Y0063296D01*
X0058647Y0063120D01*
X0058562Y0062945D01*
X0058472Y0062773D01*
X0058379Y0062603D01*
X0058281Y0062436D01*
X0058179Y0062270D01*
X0058074Y0062108D01*
X0057964Y0061948D01*
X0057850Y0061790D01*
X0057733Y0061636D01*
X0057611Y0061484D01*
X0057486Y0061336D01*
X0057358Y0061191D01*
X0057226Y0061048D01*
X0057090Y0060910D01*
X0056952Y0060774D01*
X0056809Y0060642D01*
X0056664Y0060514D01*
X0056516Y0060389D01*
X0056364Y0060267D01*
X0056210Y0060150D01*
X0056052Y0060036D01*
X0055892Y0059926D01*
X0055730Y0059821D01*
X0055564Y0059719D01*
X0055397Y0059621D01*
X0055227Y0059528D01*
X0055055Y0059438D01*
X0054880Y0059353D01*
X0054704Y0059272D01*
X0054525Y0059196D01*
X0054345Y0059124D01*
X0054163Y0059056D01*
X0053980Y0058993D01*
X0053795Y0058934D01*
X0053609Y0058880D01*
X0053421Y0058831D01*
X0053232Y0058786D01*
X0053042Y0058746D01*
X0052852Y0058710D01*
X0052660Y0058680D01*
X0052468Y0058653D01*
X0052275Y0058632D01*
X0052082Y0058615D01*
X0051888Y0058604D01*
X0051694Y0058596D01*
X0051500Y0058594D01*
X0051306Y0058596D01*
X0051112Y0058604D01*
X0050918Y0058615D01*
X0050725Y0058632D01*
X0050532Y0058653D01*
X0050340Y0058680D01*
X0050148Y0058710D01*
X0049958Y0058746D01*
X0049768Y0058786D01*
X0049579Y0058831D01*
X0049391Y0058880D01*
X0049205Y0058934D01*
X0049020Y0058993D01*
X0048837Y0059056D01*
X0048655Y0059124D01*
X0048475Y0059196D01*
X0048296Y0059272D01*
X0048120Y0059353D01*
X0047945Y0059438D01*
X0047773Y0059528D01*
X0047603Y0059621D01*
X0047436Y0059719D01*
X0047270Y0059821D01*
X0047108Y0059926D01*
X0046948Y0060036D01*
X0046790Y0060150D01*
X0046636Y0060267D01*
X0046484Y0060389D01*
X0046336Y0060514D01*
X0046191Y0060642D01*
X0046048Y0060774D01*
X0045910Y0060910D01*
X0045774Y0061048D01*
X0045642Y0061191D01*
X0045514Y0061336D01*
X0045389Y0061484D01*
X0045267Y0061636D01*
X0045150Y0061790D01*
X0045036Y0061948D01*
X0044926Y0062108D01*
X0044821Y0062270D01*
X0044719Y0062436D01*
X0044621Y0062603D01*
X0044528Y0062773D01*
X0044438Y0062945D01*
X0044353Y0063120D01*
X0044272Y0063296D01*
X0044196Y0063475D01*
X0044124Y0063655D01*
X0044056Y0063837D01*
X0043993Y0064020D01*
X0043934Y0064205D01*
X0043880Y0064391D01*
X0043831Y0064579D01*
X0043786Y0064768D01*
X0043746Y0064958D01*
X0043710Y0065148D01*
X0043680Y0065340D01*
X0043653Y0065532D01*
X0043632Y0065725D01*
X0043615Y0065918D01*
X0043604Y0066112D01*
X0043596Y0066306D01*
X0043594Y0066500D01*
X0163594Y0066500D02*
X0163596Y0066694D01*
X0163604Y0066888D01*
X0163615Y0067082D01*
X0163632Y0067275D01*
X0163653Y0067468D01*
X0163680Y0067660D01*
X0163710Y0067852D01*
X0163746Y0068042D01*
X0163786Y0068232D01*
X0163831Y0068421D01*
X0163880Y0068609D01*
X0163934Y0068795D01*
X0163993Y0068980D01*
X0164056Y0069163D01*
X0164124Y0069345D01*
X0164196Y0069525D01*
X0164272Y0069704D01*
X0164353Y0069880D01*
X0164438Y0070055D01*
X0164528Y0070227D01*
X0164621Y0070397D01*
X0164719Y0070564D01*
X0164821Y0070730D01*
X0164926Y0070892D01*
X0165036Y0071052D01*
X0165150Y0071210D01*
X0165267Y0071364D01*
X0165389Y0071516D01*
X0165514Y0071664D01*
X0165642Y0071809D01*
X0165774Y0071952D01*
X0165910Y0072090D01*
X0166048Y0072226D01*
X0166191Y0072358D01*
X0166336Y0072486D01*
X0166484Y0072611D01*
X0166636Y0072733D01*
X0166790Y0072850D01*
X0166948Y0072964D01*
X0167108Y0073074D01*
X0167270Y0073179D01*
X0167436Y0073281D01*
X0167603Y0073379D01*
X0167773Y0073472D01*
X0167945Y0073562D01*
X0168120Y0073647D01*
X0168296Y0073728D01*
X0168475Y0073804D01*
X0168655Y0073876D01*
X0168837Y0073944D01*
X0169020Y0074007D01*
X0169205Y0074066D01*
X0169391Y0074120D01*
X0169579Y0074169D01*
X0169768Y0074214D01*
X0169958Y0074254D01*
X0170148Y0074290D01*
X0170340Y0074320D01*
X0170532Y0074347D01*
X0170725Y0074368D01*
X0170918Y0074385D01*
X0171112Y0074396D01*
X0171306Y0074404D01*
X0171500Y0074406D01*
X0171694Y0074404D01*
X0171888Y0074396D01*
X0172082Y0074385D01*
X0172275Y0074368D01*
X0172468Y0074347D01*
X0172660Y0074320D01*
X0172852Y0074290D01*
X0173042Y0074254D01*
X0173232Y0074214D01*
X0173421Y0074169D01*
X0173609Y0074120D01*
X0173795Y0074066D01*
X0173980Y0074007D01*
X0174163Y0073944D01*
X0174345Y0073876D01*
X0174525Y0073804D01*
X0174704Y0073728D01*
X0174880Y0073647D01*
X0175055Y0073562D01*
X0175227Y0073472D01*
X0175397Y0073379D01*
X0175564Y0073281D01*
X0175730Y0073179D01*
X0175892Y0073074D01*
X0176052Y0072964D01*
X0176210Y0072850D01*
X0176364Y0072733D01*
X0176516Y0072611D01*
X0176664Y0072486D01*
X0176809Y0072358D01*
X0176952Y0072226D01*
X0177090Y0072090D01*
X0177226Y0071952D01*
X0177358Y0071809D01*
X0177486Y0071664D01*
X0177611Y0071516D01*
X0177733Y0071364D01*
X0177850Y0071210D01*
X0177964Y0071052D01*
X0178074Y0070892D01*
X0178179Y0070730D01*
X0178281Y0070564D01*
X0178379Y0070397D01*
X0178472Y0070227D01*
X0178562Y0070055D01*
X0178647Y0069880D01*
X0178728Y0069704D01*
X0178804Y0069525D01*
X0178876Y0069345D01*
X0178944Y0069163D01*
X0179007Y0068980D01*
X0179066Y0068795D01*
X0179120Y0068609D01*
X0179169Y0068421D01*
X0179214Y0068232D01*
X0179254Y0068042D01*
X0179290Y0067852D01*
X0179320Y0067660D01*
X0179347Y0067468D01*
X0179368Y0067275D01*
X0179385Y0067082D01*
X0179396Y0066888D01*
X0179404Y0066694D01*
X0179406Y0066500D01*
X0179404Y0066306D01*
X0179396Y0066112D01*
X0179385Y0065918D01*
X0179368Y0065725D01*
X0179347Y0065532D01*
X0179320Y0065340D01*
X0179290Y0065148D01*
X0179254Y0064958D01*
X0179214Y0064768D01*
X0179169Y0064579D01*
X0179120Y0064391D01*
X0179066Y0064205D01*
X0179007Y0064020D01*
X0178944Y0063837D01*
X0178876Y0063655D01*
X0178804Y0063475D01*
X0178728Y0063296D01*
X0178647Y0063120D01*
X0178562Y0062945D01*
X0178472Y0062773D01*
X0178379Y0062603D01*
X0178281Y0062436D01*
X0178179Y0062270D01*
X0178074Y0062108D01*
X0177964Y0061948D01*
X0177850Y0061790D01*
X0177733Y0061636D01*
X0177611Y0061484D01*
X0177486Y0061336D01*
X0177358Y0061191D01*
X0177226Y0061048D01*
X0177090Y0060910D01*
X0176952Y0060774D01*
X0176809Y0060642D01*
X0176664Y0060514D01*
X0176516Y0060389D01*
X0176364Y0060267D01*
X0176210Y0060150D01*
X0176052Y0060036D01*
X0175892Y0059926D01*
X0175730Y0059821D01*
X0175564Y0059719D01*
X0175397Y0059621D01*
X0175227Y0059528D01*
X0175055Y0059438D01*
X0174880Y0059353D01*
X0174704Y0059272D01*
X0174525Y0059196D01*
X0174345Y0059124D01*
X0174163Y0059056D01*
X0173980Y0058993D01*
X0173795Y0058934D01*
X0173609Y0058880D01*
X0173421Y0058831D01*
X0173232Y0058786D01*
X0173042Y0058746D01*
X0172852Y0058710D01*
X0172660Y0058680D01*
X0172468Y0058653D01*
X0172275Y0058632D01*
X0172082Y0058615D01*
X0171888Y0058604D01*
X0171694Y0058596D01*
X0171500Y0058594D01*
X0171306Y0058596D01*
X0171112Y0058604D01*
X0170918Y0058615D01*
X0170725Y0058632D01*
X0170532Y0058653D01*
X0170340Y0058680D01*
X0170148Y0058710D01*
X0169958Y0058746D01*
X0169768Y0058786D01*
X0169579Y0058831D01*
X0169391Y0058880D01*
X0169205Y0058934D01*
X0169020Y0058993D01*
X0168837Y0059056D01*
X0168655Y0059124D01*
X0168475Y0059196D01*
X0168296Y0059272D01*
X0168120Y0059353D01*
X0167945Y0059438D01*
X0167773Y0059528D01*
X0167603Y0059621D01*
X0167436Y0059719D01*
X0167270Y0059821D01*
X0167108Y0059926D01*
X0166948Y0060036D01*
X0166790Y0060150D01*
X0166636Y0060267D01*
X0166484Y0060389D01*
X0166336Y0060514D01*
X0166191Y0060642D01*
X0166048Y0060774D01*
X0165910Y0060910D01*
X0165774Y0061048D01*
X0165642Y0061191D01*
X0165514Y0061336D01*
X0165389Y0061484D01*
X0165267Y0061636D01*
X0165150Y0061790D01*
X0165036Y0061948D01*
X0164926Y0062108D01*
X0164821Y0062270D01*
X0164719Y0062436D01*
X0164621Y0062603D01*
X0164528Y0062773D01*
X0164438Y0062945D01*
X0164353Y0063120D01*
X0164272Y0063296D01*
X0164196Y0063475D01*
X0164124Y0063655D01*
X0164056Y0063837D01*
X0163993Y0064020D01*
X0163934Y0064205D01*
X0163880Y0064391D01*
X0163831Y0064579D01*
X0163786Y0064768D01*
X0163746Y0064958D01*
X0163710Y0065148D01*
X0163680Y0065340D01*
X0163653Y0065532D01*
X0163632Y0065725D01*
X0163615Y0065918D01*
X0163604Y0066112D01*
X0163596Y0066306D01*
X0163594Y0066500D01*
D11*
X0141500Y0064000D03*
X0141500Y0054000D03*
X0141500Y0044000D03*
X0141500Y0034000D03*
X0141500Y0024000D03*
X0141500Y0014000D03*
X0141500Y0074000D03*
X0141500Y0084000D03*
X0141500Y0094000D03*
X0141500Y0104000D03*
X0141500Y0114000D03*
X0141500Y0124000D03*
X0141500Y0134000D03*
X0141500Y0144000D03*
X0141500Y0154000D03*
X0141500Y0164000D03*
X0141500Y0174000D03*
X0141500Y0184000D03*
X0141500Y0194000D03*
X0141500Y0204000D03*
X0136500Y0254000D03*
X0146500Y0254000D03*
X0156500Y0254000D03*
X0166500Y0254000D03*
X0176500Y0254000D03*
X0186500Y0254000D03*
X0196500Y0254000D03*
X0206500Y0254000D03*
X0206500Y0314000D03*
X0196500Y0314000D03*
X0186500Y0314000D03*
X0176500Y0314000D03*
X0166500Y0314000D03*
X0156500Y0314000D03*
X0146500Y0314000D03*
X0136500Y0314000D03*
X0126500Y0314000D03*
X0116500Y0314000D03*
X0106500Y0314000D03*
X0096500Y0314000D03*
X0086500Y0314000D03*
X0076500Y0314000D03*
X0066500Y0314000D03*
X0056500Y0314000D03*
X0046500Y0314000D03*
X0036500Y0314000D03*
X0026500Y0314000D03*
X0016500Y0314000D03*
X0016500Y0254000D03*
X0026500Y0254000D03*
X0036500Y0254000D03*
X0046500Y0254000D03*
X0056500Y0254000D03*
X0066500Y0254000D03*
X0076500Y0254000D03*
X0086500Y0254000D03*
X0096500Y0254000D03*
X0106500Y0254000D03*
X0116500Y0254000D03*
X0126500Y0254000D03*
X0081500Y0204000D03*
X0081500Y0194000D03*
X0081500Y0184000D03*
X0081500Y0174000D03*
X0081500Y0164000D03*
X0081500Y0154000D03*
X0081500Y0144000D03*
X0081500Y0134000D03*
X0081500Y0124000D03*
X0081500Y0114000D03*
X0081500Y0104000D03*
X0081500Y0094000D03*
X0081500Y0084000D03*
X0081500Y0074000D03*
X0081500Y0064000D03*
X0081500Y0054000D03*
X0081500Y0044000D03*
X0081500Y0034000D03*
X0081500Y0024000D03*
X0081500Y0014000D03*
D12*
X0041500Y0006500D02*
X0181500Y0006500D01*
X0216500Y0231500D01*
X0216500Y0316500D01*
X0211500Y0321500D01*
X0126500Y0321500D01*
X0126500Y0314000D01*
X0126500Y0321500D02*
X0011500Y0321500D01*
X0006500Y0316500D01*
X0006500Y0234000D01*
X0021500Y0131500D01*
X0022732Y0123797D01*
X0081500Y0124000D01*
X0022732Y0123797D02*
X0041500Y0006500D01*
D13*
X0033436Y0033948D02*
X0077600Y0033948D01*
X0077600Y0034946D02*
X0033285Y0034946D01*
X0033135Y0035945D02*
X0077600Y0035945D01*
X0077600Y0036943D02*
X0032985Y0036943D01*
X0032834Y0037942D02*
X0190225Y0037942D01*
X0190377Y0038940D02*
X0032684Y0038940D01*
X0032534Y0039939D02*
X0190529Y0039939D01*
X0190681Y0040937D02*
X0145400Y0040937D01*
X0145400Y0040862D02*
X0145400Y0047138D01*
X0144638Y0047900D01*
X0138362Y0047900D01*
X0137600Y0047138D01*
X0137600Y0040862D01*
X0138362Y0040100D01*
X0144638Y0040100D01*
X0145400Y0040862D01*
X0145400Y0041936D02*
X0190833Y0041936D01*
X0190985Y0042934D02*
X0145400Y0042934D01*
X0145400Y0043933D02*
X0191136Y0043933D01*
X0191288Y0044932D02*
X0145400Y0044932D01*
X0145400Y0045930D02*
X0191440Y0045930D01*
X0191592Y0046929D02*
X0145400Y0046929D01*
X0144638Y0050100D02*
X0145400Y0050862D01*
X0145400Y0057138D01*
X0144638Y0057900D01*
X0138362Y0057900D01*
X0137600Y0057138D01*
X0137600Y0050862D01*
X0138362Y0050100D01*
X0144638Y0050100D01*
X0145400Y0050923D02*
X0192200Y0050923D01*
X0192352Y0051921D02*
X0145400Y0051921D01*
X0145400Y0052920D02*
X0192504Y0052920D01*
X0192656Y0053918D02*
X0145400Y0053918D01*
X0145400Y0054917D02*
X0192808Y0054917D01*
X0192960Y0055915D02*
X0172752Y0055915D01*
X0172488Y0055840D02*
X0176272Y0056917D01*
X0179412Y0059288D01*
X0181483Y0062633D01*
X0182206Y0066500D01*
X0181483Y0070367D01*
X0181483Y0070367D01*
X0179412Y0073712D01*
X0179412Y0073712D01*
X0179412Y0073712D01*
X0176272Y0076083D01*
X0172488Y0077160D01*
X0168570Y0076797D01*
X0165048Y0075043D01*
X0162398Y0072136D01*
X0162398Y0072136D01*
X0160977Y0068467D01*
X0160977Y0064533D01*
X0162398Y0060864D01*
X0165048Y0057957D01*
X0165048Y0057957D01*
X0168570Y0056203D01*
X0168570Y0056203D01*
X0172488Y0055840D01*
X0172488Y0055840D01*
X0171677Y0055915D02*
X0145400Y0055915D01*
X0145400Y0056914D02*
X0167143Y0056914D01*
X0165138Y0057912D02*
X0085458Y0057912D01*
X0085042Y0057496D02*
X0089746Y0062200D01*
X0090800Y0063254D01*
X0090800Y0132154D01*
X0137600Y0085354D01*
X0137600Y0080862D01*
X0138362Y0080100D01*
X0144638Y0080100D01*
X0145400Y0080862D01*
X0145400Y0087138D01*
X0144638Y0087900D01*
X0140146Y0087900D01*
X0093300Y0134746D01*
X0093300Y0152246D01*
X0085042Y0160504D01*
X0085400Y0160862D01*
X0085400Y0165354D01*
X0092246Y0172200D01*
X0093300Y0173254D01*
X0093300Y0250162D01*
X0093362Y0250100D01*
X0094700Y0250100D01*
X0094700Y0138254D01*
X0095754Y0137200D01*
X0137600Y0095354D01*
X0137600Y0090862D01*
X0138362Y0090100D01*
X0144638Y0090100D01*
X0145400Y0090862D01*
X0145400Y0097138D01*
X0144638Y0097900D01*
X0140146Y0097900D01*
X0098300Y0139746D01*
X0098300Y0250100D01*
X0099638Y0250100D01*
X0100400Y0250862D01*
X0100400Y0257138D01*
X0099638Y0257900D01*
X0095446Y0257900D01*
X0144746Y0307200D01*
X0162246Y0307200D01*
X0165146Y0310100D01*
X0169638Y0310100D01*
X0170400Y0310862D01*
X0170400Y0317138D01*
X0169638Y0317900D01*
X0163362Y0317900D01*
X0162600Y0317138D01*
X0162600Y0312646D01*
X0160754Y0310800D01*
X0160338Y0310800D01*
X0160400Y0310862D01*
X0160400Y0317138D01*
X0159638Y0317900D01*
X0153362Y0317900D01*
X0152600Y0317138D01*
X0152600Y0310862D01*
X0152662Y0310800D01*
X0150338Y0310800D01*
X0150400Y0310862D01*
X0150400Y0317138D01*
X0149638Y0317900D01*
X0143362Y0317900D01*
X0142600Y0317138D01*
X0142600Y0310862D01*
X0142958Y0310504D01*
X0142200Y0309746D01*
X0089996Y0257542D01*
X0089638Y0257900D01*
X0083362Y0257900D01*
X0083300Y0257838D01*
X0083300Y0309746D01*
X0080400Y0312646D01*
X0080400Y0317138D01*
X0079638Y0317900D01*
X0073362Y0317900D01*
X0072600Y0317138D01*
X0072600Y0310862D01*
X0073362Y0310100D01*
X0077854Y0310100D01*
X0079700Y0308254D01*
X0079700Y0257838D01*
X0079638Y0257900D01*
X0073362Y0257900D01*
X0073300Y0257838D01*
X0073300Y0309746D01*
X0070400Y0312646D01*
X0070400Y0317138D01*
X0069638Y0317900D01*
X0063362Y0317900D01*
X0062600Y0317138D01*
X0062600Y0310862D01*
X0063362Y0310100D01*
X0067854Y0310100D01*
X0069700Y0308254D01*
X0069700Y0257838D01*
X0069638Y0257900D01*
X0063362Y0257900D01*
X0062600Y0257138D01*
X0062600Y0250862D01*
X0063362Y0250100D01*
X0064700Y0250100D01*
X0064700Y0146826D01*
X0064631Y0146798D01*
X0063702Y0145869D01*
X0063200Y0144656D01*
X0063200Y0143344D01*
X0063702Y0142131D01*
X0064631Y0141202D01*
X0065844Y0140700D01*
X0067156Y0140700D01*
X0068369Y0141202D01*
X0069298Y0142131D01*
X0069700Y0143102D01*
X0069700Y0140754D01*
X0073254Y0137200D01*
X0077662Y0137200D01*
X0077600Y0137138D01*
X0077600Y0130862D01*
X0078362Y0130100D01*
X0084638Y0130100D01*
X0084700Y0130162D01*
X0084700Y0127986D01*
X0084679Y0127998D01*
X0084297Y0128100D01*
X0081800Y0128100D01*
X0081800Y0124300D01*
X0081200Y0124300D01*
X0081200Y0128100D01*
X0078703Y0128100D01*
X0078321Y0127998D01*
X0077979Y0127800D01*
X0077700Y0127521D01*
X0077502Y0127179D01*
X0077400Y0126797D01*
X0077400Y0124300D01*
X0081200Y0124300D01*
X0081200Y0123700D01*
X0081800Y0123700D01*
X0081800Y0119900D01*
X0084297Y0119900D01*
X0084679Y0120002D01*
X0084700Y0120014D01*
X0084700Y0117838D01*
X0084638Y0117900D01*
X0078362Y0117900D01*
X0077600Y0117138D01*
X0077600Y0110862D01*
X0078362Y0110100D01*
X0084638Y0110100D01*
X0084700Y0110162D01*
X0084700Y0107838D01*
X0084638Y0107900D01*
X0078362Y0107900D01*
X0077600Y0107138D01*
X0077600Y0100862D01*
X0078362Y0100100D01*
X0084638Y0100100D01*
X0084700Y0100162D01*
X0084700Y0097838D01*
X0084638Y0097900D01*
X0078362Y0097900D01*
X0077600Y0097138D01*
X0077600Y0090862D01*
X0078362Y0090100D01*
X0084638Y0090100D01*
X0084700Y0090162D01*
X0084700Y0087838D01*
X0084638Y0087900D01*
X0078362Y0087900D01*
X0077600Y0087138D01*
X0077600Y0080862D01*
X0078362Y0080100D01*
X0084638Y0080100D01*
X0084700Y0080162D01*
X0084700Y0077838D01*
X0084638Y0077900D01*
X0078362Y0077900D01*
X0077600Y0077138D01*
X0077600Y0072646D01*
X0075754Y0070800D01*
X0074700Y0069746D01*
X0074700Y0060754D01*
X0077958Y0057496D01*
X0077600Y0057138D01*
X0077600Y0050862D01*
X0078362Y0050100D01*
X0084638Y0050100D01*
X0085400Y0050862D01*
X0085400Y0057138D01*
X0085042Y0057496D01*
X0085400Y0056914D02*
X0137600Y0056914D01*
X0137600Y0055915D02*
X0085400Y0055915D01*
X0085400Y0054917D02*
X0137600Y0054917D01*
X0137600Y0053918D02*
X0085400Y0053918D01*
X0085400Y0052920D02*
X0137600Y0052920D01*
X0137600Y0051921D02*
X0085400Y0051921D01*
X0085400Y0050923D02*
X0137600Y0050923D01*
X0137600Y0046929D02*
X0085400Y0046929D01*
X0085400Y0047138D02*
X0084638Y0047900D01*
X0080146Y0047900D01*
X0065800Y0062246D01*
X0065800Y0104746D01*
X0052271Y0118274D01*
X0052300Y0118344D01*
X0052300Y0119656D01*
X0051798Y0120869D01*
X0050869Y0121798D01*
X0049656Y0122300D01*
X0048344Y0122300D01*
X0047131Y0121798D01*
X0046202Y0120869D01*
X0045700Y0119656D01*
X0045700Y0118344D01*
X0046202Y0117131D01*
X0047131Y0116202D01*
X0048344Y0115700D01*
X0049656Y0115700D01*
X0049726Y0115729D01*
X0062200Y0103254D01*
X0062200Y0066530D01*
X0061483Y0070367D01*
X0061483Y0070367D01*
X0059412Y0073712D01*
X0059412Y0073712D01*
X0059412Y0073712D01*
X0056272Y0076083D01*
X0052488Y0077160D01*
X0052488Y0077160D01*
X0048570Y0076797D01*
X0045048Y0075043D01*
X0042398Y0072136D01*
X0042398Y0072136D01*
X0040977Y0068467D01*
X0040977Y0064533D01*
X0042398Y0060864D01*
X0045048Y0057957D01*
X0045048Y0057957D01*
X0048570Y0056203D01*
X0048570Y0056203D01*
X0052488Y0055840D01*
X0056272Y0056917D01*
X0059412Y0059288D01*
X0061483Y0062633D01*
X0062200Y0066470D01*
X0062200Y0060754D01*
X0063254Y0059700D01*
X0077600Y0045354D01*
X0077600Y0040862D01*
X0078362Y0040100D01*
X0084638Y0040100D01*
X0085400Y0040862D01*
X0085400Y0047138D01*
X0085400Y0045930D02*
X0137600Y0045930D01*
X0137600Y0044932D02*
X0085400Y0044932D01*
X0085400Y0043933D02*
X0137600Y0043933D01*
X0137600Y0042934D02*
X0085400Y0042934D01*
X0085400Y0041936D02*
X0137600Y0041936D01*
X0137600Y0040937D02*
X0085400Y0040937D01*
X0084638Y0037900D02*
X0078362Y0037900D01*
X0077600Y0037138D01*
X0077600Y0030862D01*
X0078362Y0030100D01*
X0084638Y0030100D01*
X0085400Y0030862D01*
X0085400Y0037138D01*
X0084638Y0037900D01*
X0085400Y0036943D02*
X0137600Y0036943D01*
X0137600Y0037138D02*
X0138362Y0037900D01*
X0144638Y0037900D01*
X0145400Y0037138D01*
X0145400Y0030862D01*
X0144638Y0030100D01*
X0138362Y0030100D01*
X0137600Y0030862D01*
X0137600Y0037138D01*
X0137600Y0035945D02*
X0085400Y0035945D01*
X0085400Y0034946D02*
X0137600Y0034946D01*
X0137600Y0033948D02*
X0085400Y0033948D01*
X0085400Y0032949D02*
X0137600Y0032949D01*
X0137600Y0031951D02*
X0085400Y0031951D01*
X0085400Y0030952D02*
X0137600Y0030952D01*
X0138362Y0027900D02*
X0137600Y0027138D01*
X0137600Y0020862D01*
X0138362Y0020100D01*
X0144638Y0020100D01*
X0145400Y0020862D01*
X0145400Y0027138D01*
X0144638Y0027900D01*
X0138362Y0027900D01*
X0137600Y0026958D02*
X0085400Y0026958D01*
X0085400Y0027138D02*
X0084638Y0027900D01*
X0078362Y0027900D01*
X0077600Y0027138D01*
X0077600Y0020862D01*
X0078362Y0020100D01*
X0084638Y0020100D01*
X0085400Y0020862D01*
X0085400Y0027138D01*
X0085400Y0025960D02*
X0137600Y0025960D01*
X0137600Y0024961D02*
X0085400Y0024961D01*
X0085400Y0023963D02*
X0137600Y0023963D01*
X0137600Y0022964D02*
X0085400Y0022964D01*
X0085400Y0021966D02*
X0137600Y0021966D01*
X0137600Y0020967D02*
X0085400Y0020967D01*
X0084638Y0017900D02*
X0078362Y0017900D01*
X0077600Y0017138D01*
X0077600Y0010862D01*
X0078362Y0010100D01*
X0084638Y0010100D01*
X0085400Y0010862D01*
X0085400Y0017138D01*
X0084638Y0017900D01*
X0085400Y0016973D02*
X0137600Y0016973D01*
X0137600Y0017138D02*
X0138362Y0017900D01*
X0144638Y0017900D01*
X0145400Y0017138D01*
X0145400Y0010862D01*
X0144638Y0010100D01*
X0138362Y0010100D01*
X0137600Y0010862D01*
X0137600Y0017138D01*
X0137600Y0015975D02*
X0085400Y0015975D01*
X0085400Y0014976D02*
X0137600Y0014976D01*
X0137600Y0013978D02*
X0085400Y0013978D01*
X0085400Y0012979D02*
X0137600Y0012979D01*
X0137600Y0011981D02*
X0085400Y0011981D01*
X0085400Y0010982D02*
X0137600Y0010982D01*
X0145400Y0010982D02*
X0186122Y0010982D01*
X0185970Y0009984D02*
X0037043Y0009984D01*
X0036893Y0010982D02*
X0077600Y0010982D01*
X0077600Y0011981D02*
X0036743Y0011981D01*
X0036592Y0012979D02*
X0077600Y0012979D01*
X0077600Y0013978D02*
X0036442Y0013978D01*
X0036292Y0014976D02*
X0077600Y0014976D01*
X0077600Y0015975D02*
X0036141Y0015975D01*
X0035991Y0016973D02*
X0077600Y0016973D01*
X0077600Y0020967D02*
X0035390Y0020967D01*
X0035540Y0019969D02*
X0187490Y0019969D01*
X0187642Y0020967D02*
X0145400Y0020967D01*
X0145400Y0021966D02*
X0187794Y0021966D01*
X0187946Y0022964D02*
X0145400Y0022964D01*
X0145400Y0023963D02*
X0188098Y0023963D01*
X0188249Y0024961D02*
X0145400Y0024961D01*
X0145400Y0025960D02*
X0188401Y0025960D01*
X0188553Y0026958D02*
X0145400Y0026958D01*
X0145400Y0030952D02*
X0189161Y0030952D01*
X0189009Y0029954D02*
X0034037Y0029954D01*
X0033887Y0030952D02*
X0077600Y0030952D01*
X0077600Y0031951D02*
X0033736Y0031951D01*
X0033586Y0032949D02*
X0077600Y0032949D01*
X0077600Y0026958D02*
X0034488Y0026958D01*
X0034638Y0025960D02*
X0077600Y0025960D01*
X0077600Y0024961D02*
X0034788Y0024961D01*
X0034939Y0023963D02*
X0077600Y0023963D01*
X0077600Y0022964D02*
X0035089Y0022964D01*
X0035239Y0021966D02*
X0077600Y0021966D01*
X0077600Y0040937D02*
X0032383Y0040937D01*
X0032233Y0041936D02*
X0077600Y0041936D01*
X0077600Y0042934D02*
X0032083Y0042934D01*
X0031933Y0043933D02*
X0077600Y0043933D01*
X0077600Y0044932D02*
X0031782Y0044932D01*
X0031632Y0045930D02*
X0077024Y0045930D01*
X0076026Y0046929D02*
X0031482Y0046929D01*
X0031331Y0047927D02*
X0075027Y0047927D01*
X0074029Y0048926D02*
X0031181Y0048926D01*
X0031031Y0049924D02*
X0073030Y0049924D01*
X0072032Y0050923D02*
X0030880Y0050923D01*
X0030730Y0051921D02*
X0071033Y0051921D01*
X0070035Y0052920D02*
X0030580Y0052920D01*
X0030429Y0053918D02*
X0069036Y0053918D01*
X0068038Y0054917D02*
X0030279Y0054917D01*
X0030129Y0055915D02*
X0051677Y0055915D01*
X0052488Y0055840D02*
X0052488Y0055840D01*
X0052752Y0055915D02*
X0067039Y0055915D01*
X0066041Y0056914D02*
X0056261Y0056914D01*
X0056272Y0056917D02*
X0056272Y0056917D01*
X0057590Y0057912D02*
X0065042Y0057912D01*
X0064044Y0058911D02*
X0058912Y0058911D01*
X0059412Y0059288D02*
X0059412Y0059288D01*
X0059796Y0059909D02*
X0063045Y0059909D01*
X0062200Y0060908D02*
X0060415Y0060908D01*
X0061033Y0061906D02*
X0062200Y0061906D01*
X0062200Y0062905D02*
X0061534Y0062905D01*
X0061483Y0062633D02*
X0061483Y0062633D01*
X0061720Y0063903D02*
X0062200Y0063903D01*
X0062200Y0064902D02*
X0061907Y0064902D01*
X0062094Y0065900D02*
X0062200Y0065900D01*
X0062200Y0066899D02*
X0062131Y0066899D01*
X0062200Y0067897D02*
X0061944Y0067897D01*
X0061758Y0068896D02*
X0062200Y0068896D01*
X0062200Y0069894D02*
X0061571Y0069894D01*
X0061157Y0070893D02*
X0062200Y0070893D01*
X0062200Y0071891D02*
X0060539Y0071891D01*
X0059921Y0072890D02*
X0062200Y0072890D01*
X0062200Y0073888D02*
X0059179Y0073888D01*
X0057856Y0074887D02*
X0062200Y0074887D01*
X0062200Y0075885D02*
X0056534Y0075885D01*
X0056272Y0076083D02*
X0056272Y0076083D01*
X0053458Y0076884D02*
X0062200Y0076884D01*
X0062200Y0077882D02*
X0026822Y0077882D01*
X0026972Y0076884D02*
X0049508Y0076884D01*
X0048570Y0076797D02*
X0048570Y0076797D01*
X0046739Y0075885D02*
X0027122Y0075885D01*
X0027273Y0074887D02*
X0044906Y0074887D01*
X0045048Y0075043D02*
X0045048Y0075043D01*
X0043995Y0073888D02*
X0027423Y0073888D01*
X0027573Y0072890D02*
X0043085Y0072890D01*
X0042303Y0071891D02*
X0027724Y0071891D01*
X0027874Y0070893D02*
X0041916Y0070893D01*
X0041529Y0069894D02*
X0028024Y0069894D01*
X0028175Y0068896D02*
X0041143Y0068896D01*
X0040977Y0067897D02*
X0028325Y0067897D01*
X0028475Y0066899D02*
X0040977Y0066899D01*
X0040977Y0065900D02*
X0028626Y0065900D01*
X0028776Y0064902D02*
X0040977Y0064902D01*
X0041220Y0063903D02*
X0028926Y0063903D01*
X0029077Y0062905D02*
X0041607Y0062905D01*
X0041994Y0061906D02*
X0029227Y0061906D01*
X0029377Y0060908D02*
X0042381Y0060908D01*
X0042398Y0060864D02*
X0042398Y0060864D01*
X0043268Y0059909D02*
X0029527Y0059909D01*
X0029678Y0058911D02*
X0044179Y0058911D01*
X0045138Y0057912D02*
X0029828Y0057912D01*
X0029978Y0056914D02*
X0047143Y0056914D01*
X0064000Y0061500D02*
X0064000Y0104000D01*
X0049000Y0119000D01*
X0045916Y0117823D02*
X0020809Y0117823D01*
X0020659Y0118821D02*
X0045700Y0118821D01*
X0045768Y0119820D02*
X0020509Y0119820D01*
X0020358Y0120818D02*
X0046181Y0120818D01*
X0047177Y0121817D02*
X0020208Y0121817D01*
X0020058Y0122815D02*
X0077400Y0122815D01*
X0077400Y0123700D02*
X0077400Y0121203D01*
X0077502Y0120821D01*
X0077700Y0120479D01*
X0077979Y0120200D01*
X0078321Y0120002D01*
X0078703Y0119900D01*
X0081200Y0119900D01*
X0081200Y0123700D01*
X0077400Y0123700D01*
X0077400Y0124812D02*
X0019757Y0124812D01*
X0019907Y0123814D02*
X0081200Y0123814D01*
X0081200Y0124812D02*
X0081800Y0124812D01*
X0081800Y0125811D02*
X0081200Y0125811D01*
X0081200Y0126809D02*
X0081800Y0126809D01*
X0081800Y0127808D02*
X0081200Y0127808D01*
X0084700Y0128806D02*
X0055973Y0128806D01*
X0055869Y0128702D02*
X0056798Y0129631D01*
X0057300Y0130844D01*
X0057300Y0132156D01*
X0056798Y0133369D01*
X0056167Y0134000D01*
X0056798Y0134631D01*
X0057300Y0135844D01*
X0057300Y0137156D01*
X0056798Y0138369D01*
X0055869Y0139298D01*
X0054656Y0139800D01*
X0053344Y0139800D01*
X0053300Y0139782D01*
X0053300Y0143102D01*
X0053702Y0142131D01*
X0054631Y0141202D01*
X0055844Y0140700D01*
X0057156Y0140700D01*
X0058369Y0141202D01*
X0059298Y0142131D01*
X0059800Y0143344D01*
X0059800Y0144656D01*
X0059298Y0145869D01*
X0058369Y0146798D01*
X0058300Y0146826D01*
X0058300Y0250100D01*
X0059638Y0250100D01*
X0060400Y0250862D01*
X0060400Y0257138D01*
X0059638Y0257900D01*
X0053362Y0257900D01*
X0053300Y0257838D01*
X0053300Y0276174D01*
X0053369Y0276202D01*
X0054298Y0277131D01*
X0054800Y0278344D01*
X0054800Y0279656D01*
X0054298Y0280869D01*
X0053369Y0281798D01*
X0052156Y0282300D01*
X0050844Y0282300D01*
X0049631Y0281798D01*
X0048702Y0280869D01*
X0048200Y0279656D01*
X0048200Y0278344D01*
X0048702Y0277131D01*
X0049631Y0276202D01*
X0049700Y0276174D01*
X0049700Y0257838D01*
X0049638Y0257900D01*
X0043362Y0257900D01*
X0042600Y0257138D01*
X0042600Y0250862D01*
X0043362Y0250100D01*
X0044700Y0250100D01*
X0044700Y0138254D01*
X0045754Y0137200D01*
X0050729Y0132226D01*
X0050700Y0132156D01*
X0050700Y0130844D01*
X0051202Y0129631D01*
X0052131Y0128702D01*
X0053344Y0128200D01*
X0054656Y0128200D01*
X0055869Y0128702D01*
X0056870Y0129805D02*
X0084700Y0129805D01*
X0086500Y0136500D02*
X0084000Y0139000D01*
X0074000Y0139000D01*
X0071500Y0141500D01*
X0071500Y0309000D01*
X0066500Y0314000D01*
X0062600Y0313531D02*
X0060400Y0313531D01*
X0060400Y0312533D02*
X0062600Y0312533D01*
X0062600Y0311534D02*
X0060400Y0311534D01*
X0060400Y0310862D02*
X0060400Y0317138D01*
X0059638Y0317900D01*
X0053362Y0317900D01*
X0052600Y0317138D01*
X0052600Y0310862D01*
X0053362Y0310100D01*
X0059638Y0310100D01*
X0060400Y0310862D01*
X0060074Y0310536D02*
X0062926Y0310536D01*
X0062600Y0314530D02*
X0060400Y0314530D01*
X0060400Y0315528D02*
X0062600Y0315528D01*
X0062600Y0316527D02*
X0060400Y0316527D01*
X0060013Y0317525D02*
X0062987Y0317525D01*
X0068417Y0309537D02*
X0034583Y0309537D01*
X0035146Y0310100D02*
X0039638Y0310100D01*
X0040400Y0310862D01*
X0040400Y0317138D01*
X0039638Y0317900D01*
X0033362Y0317900D01*
X0032600Y0317138D01*
X0032600Y0312646D01*
X0029700Y0309746D01*
X0029700Y0257838D01*
X0029638Y0257900D01*
X0023362Y0257900D01*
X0022600Y0257138D01*
X0022600Y0250862D01*
X0023362Y0250100D01*
X0029638Y0250100D01*
X0029700Y0250162D01*
X0029700Y0214326D01*
X0029631Y0214298D01*
X0028702Y0213369D01*
X0028200Y0212156D01*
X0028200Y0210844D01*
X0028702Y0209631D01*
X0029631Y0208702D01*
X0030844Y0208200D01*
X0032156Y0208200D01*
X0033369Y0208702D01*
X0034298Y0209631D01*
X0034800Y0210844D01*
X0034800Y0212156D01*
X0034298Y0213369D01*
X0033369Y0214298D01*
X0033300Y0214326D01*
X0033300Y0250162D01*
X0033362Y0250100D01*
X0039638Y0250100D01*
X0040400Y0250862D01*
X0040400Y0257138D01*
X0039638Y0257900D01*
X0033362Y0257900D01*
X0033300Y0257838D01*
X0033300Y0308254D01*
X0035146Y0310100D01*
X0033584Y0308539D02*
X0069416Y0308539D01*
X0069700Y0307540D02*
X0033300Y0307540D01*
X0033300Y0306541D02*
X0069700Y0306541D01*
X0069700Y0305543D02*
X0033300Y0305543D01*
X0033300Y0304544D02*
X0069700Y0304544D01*
X0069700Y0303546D02*
X0033300Y0303546D01*
X0033300Y0302547D02*
X0069700Y0302547D01*
X0069700Y0301549D02*
X0033300Y0301549D01*
X0033300Y0300550D02*
X0069700Y0300550D01*
X0069700Y0299552D02*
X0033300Y0299552D01*
X0033300Y0298553D02*
X0069700Y0298553D01*
X0069700Y0297555D02*
X0033300Y0297555D01*
X0033300Y0296556D02*
X0069700Y0296556D01*
X0069700Y0295558D02*
X0033300Y0295558D01*
X0033300Y0294559D02*
X0069700Y0294559D01*
X0069700Y0293561D02*
X0033300Y0293561D01*
X0033300Y0292562D02*
X0069700Y0292562D01*
X0069700Y0291564D02*
X0033300Y0291564D01*
X0033300Y0290565D02*
X0069700Y0290565D01*
X0069700Y0289567D02*
X0033300Y0289567D01*
X0033300Y0288568D02*
X0069700Y0288568D01*
X0069700Y0287570D02*
X0033300Y0287570D01*
X0033300Y0286571D02*
X0069700Y0286571D01*
X0069700Y0285573D02*
X0033300Y0285573D01*
X0033300Y0284574D02*
X0069700Y0284574D01*
X0069700Y0283576D02*
X0033300Y0283576D01*
X0033300Y0282577D02*
X0069700Y0282577D01*
X0069700Y0281579D02*
X0053588Y0281579D01*
X0054417Y0280580D02*
X0069700Y0280580D01*
X0069700Y0279582D02*
X0054800Y0279582D01*
X0054800Y0278583D02*
X0069700Y0278583D01*
X0069700Y0277585D02*
X0054486Y0277585D01*
X0053753Y0276586D02*
X0069700Y0276586D01*
X0069700Y0275588D02*
X0053300Y0275588D01*
X0053300Y0274589D02*
X0069700Y0274589D01*
X0069700Y0273591D02*
X0053300Y0273591D01*
X0053300Y0272592D02*
X0069700Y0272592D01*
X0069700Y0271594D02*
X0053300Y0271594D01*
X0053300Y0270595D02*
X0069700Y0270595D01*
X0069700Y0269597D02*
X0053300Y0269597D01*
X0053300Y0268598D02*
X0069700Y0268598D01*
X0069700Y0267600D02*
X0053300Y0267600D01*
X0053300Y0266601D02*
X0069700Y0266601D01*
X0069700Y0265603D02*
X0053300Y0265603D01*
X0053300Y0264604D02*
X0069700Y0264604D01*
X0069700Y0263605D02*
X0053300Y0263605D01*
X0053300Y0262607D02*
X0069700Y0262607D01*
X0069700Y0261608D02*
X0053300Y0261608D01*
X0053300Y0260610D02*
X0069700Y0260610D01*
X0069700Y0259611D02*
X0053300Y0259611D01*
X0053300Y0258613D02*
X0069700Y0258613D01*
X0073300Y0258613D02*
X0079700Y0258613D01*
X0079700Y0259611D02*
X0073300Y0259611D01*
X0073300Y0260610D02*
X0079700Y0260610D01*
X0079700Y0261608D02*
X0073300Y0261608D01*
X0073300Y0262607D02*
X0079700Y0262607D01*
X0079700Y0263605D02*
X0073300Y0263605D01*
X0073300Y0264604D02*
X0079700Y0264604D01*
X0079700Y0265603D02*
X0073300Y0265603D01*
X0073300Y0266601D02*
X0079700Y0266601D01*
X0079700Y0267600D02*
X0073300Y0267600D01*
X0073300Y0268598D02*
X0079700Y0268598D01*
X0079700Y0269597D02*
X0073300Y0269597D01*
X0073300Y0270595D02*
X0079700Y0270595D01*
X0079700Y0271594D02*
X0073300Y0271594D01*
X0073300Y0272592D02*
X0079700Y0272592D01*
X0079700Y0273591D02*
X0073300Y0273591D01*
X0073300Y0274589D02*
X0079700Y0274589D01*
X0079700Y0275588D02*
X0073300Y0275588D01*
X0073300Y0276586D02*
X0079700Y0276586D01*
X0079700Y0277585D02*
X0073300Y0277585D01*
X0073300Y0278583D02*
X0079700Y0278583D01*
X0079700Y0279582D02*
X0073300Y0279582D01*
X0073300Y0280580D02*
X0079700Y0280580D01*
X0079700Y0281579D02*
X0073300Y0281579D01*
X0073300Y0282577D02*
X0079700Y0282577D01*
X0079700Y0283576D02*
X0073300Y0283576D01*
X0073300Y0284574D02*
X0079700Y0284574D01*
X0079700Y0285573D02*
X0073300Y0285573D01*
X0073300Y0286571D02*
X0079700Y0286571D01*
X0079700Y0287570D02*
X0073300Y0287570D01*
X0073300Y0288568D02*
X0079700Y0288568D01*
X0079700Y0289567D02*
X0073300Y0289567D01*
X0073300Y0290565D02*
X0079700Y0290565D01*
X0079700Y0291564D02*
X0073300Y0291564D01*
X0073300Y0292562D02*
X0079700Y0292562D01*
X0079700Y0293561D02*
X0073300Y0293561D01*
X0073300Y0294559D02*
X0079700Y0294559D01*
X0079700Y0295558D02*
X0073300Y0295558D01*
X0073300Y0296556D02*
X0079700Y0296556D01*
X0079700Y0297555D02*
X0073300Y0297555D01*
X0073300Y0298553D02*
X0079700Y0298553D01*
X0079700Y0299552D02*
X0073300Y0299552D01*
X0073300Y0300550D02*
X0079700Y0300550D01*
X0079700Y0301549D02*
X0073300Y0301549D01*
X0073300Y0302547D02*
X0079700Y0302547D01*
X0079700Y0303546D02*
X0073300Y0303546D01*
X0073300Y0304544D02*
X0079700Y0304544D01*
X0079700Y0305543D02*
X0073300Y0305543D01*
X0073300Y0306541D02*
X0079700Y0306541D01*
X0079700Y0307540D02*
X0073300Y0307540D01*
X0073300Y0308539D02*
X0079416Y0308539D01*
X0078417Y0309537D02*
X0073300Y0309537D01*
X0072926Y0310536D02*
X0072510Y0310536D01*
X0072600Y0311534D02*
X0071512Y0311534D01*
X0070513Y0312533D02*
X0072600Y0312533D01*
X0072600Y0313531D02*
X0070400Y0313531D01*
X0070400Y0314530D02*
X0072600Y0314530D01*
X0072600Y0315528D02*
X0070400Y0315528D01*
X0070400Y0316527D02*
X0072600Y0316527D01*
X0072987Y0317525D02*
X0070013Y0317525D01*
X0076500Y0314000D02*
X0081500Y0309000D01*
X0081500Y0251500D01*
X0084000Y0249000D01*
X0084000Y0244000D01*
X0074000Y0234000D01*
X0074000Y0151500D01*
X0076500Y0149000D01*
X0084000Y0149000D01*
X0089000Y0144000D01*
X0089000Y0064000D01*
X0084000Y0059000D01*
X0079000Y0059000D01*
X0076500Y0061500D01*
X0076500Y0069000D01*
X0081500Y0074000D01*
X0078344Y0077882D02*
X0065800Y0077882D01*
X0065800Y0076884D02*
X0077600Y0076884D01*
X0077600Y0075885D02*
X0065800Y0075885D01*
X0065800Y0074887D02*
X0077600Y0074887D01*
X0077600Y0073888D02*
X0065800Y0073888D01*
X0065800Y0072890D02*
X0077600Y0072890D01*
X0076846Y0071891D02*
X0065800Y0071891D01*
X0065800Y0070893D02*
X0075847Y0070893D01*
X0074849Y0069894D02*
X0065800Y0069894D01*
X0065800Y0068896D02*
X0074700Y0068896D01*
X0074700Y0067897D02*
X0065800Y0067897D01*
X0065800Y0066899D02*
X0074700Y0066899D01*
X0074700Y0065900D02*
X0065800Y0065900D01*
X0065800Y0064902D02*
X0074700Y0064902D01*
X0074700Y0063903D02*
X0065800Y0063903D01*
X0065800Y0062905D02*
X0074700Y0062905D01*
X0074700Y0061906D02*
X0066139Y0061906D01*
X0067138Y0060908D02*
X0074700Y0060908D01*
X0075545Y0059909D02*
X0068136Y0059909D01*
X0069135Y0058911D02*
X0076544Y0058911D01*
X0077542Y0057912D02*
X0070133Y0057912D01*
X0071132Y0056914D02*
X0077600Y0056914D01*
X0077600Y0055915D02*
X0072130Y0055915D01*
X0073129Y0054917D02*
X0077600Y0054917D01*
X0077600Y0053918D02*
X0074127Y0053918D01*
X0075126Y0052920D02*
X0077600Y0052920D01*
X0077600Y0051921D02*
X0076124Y0051921D01*
X0077123Y0050923D02*
X0077600Y0050923D01*
X0078121Y0049924D02*
X0192048Y0049924D01*
X0191896Y0048926D02*
X0079120Y0048926D01*
X0080119Y0047927D02*
X0191744Y0047927D01*
X0193112Y0056914D02*
X0176261Y0056914D01*
X0176272Y0056917D02*
X0176272Y0056917D01*
X0177590Y0057912D02*
X0193264Y0057912D01*
X0193416Y0058911D02*
X0178912Y0058911D01*
X0179412Y0059288D02*
X0179412Y0059288D01*
X0179412Y0059288D01*
X0179796Y0059909D02*
X0193568Y0059909D01*
X0193720Y0060908D02*
X0180415Y0060908D01*
X0181033Y0061906D02*
X0193872Y0061906D01*
X0194023Y0062905D02*
X0181534Y0062905D01*
X0181483Y0062633D02*
X0181483Y0062633D01*
X0181720Y0063903D02*
X0194175Y0063903D01*
X0194327Y0064902D02*
X0181907Y0064902D01*
X0182094Y0065900D02*
X0194479Y0065900D01*
X0194631Y0066899D02*
X0182131Y0066899D01*
X0181944Y0067897D02*
X0194783Y0067897D01*
X0194935Y0068896D02*
X0181758Y0068896D01*
X0181571Y0069894D02*
X0195087Y0069894D01*
X0195239Y0070893D02*
X0181157Y0070893D01*
X0180539Y0071891D02*
X0195391Y0071891D01*
X0195543Y0072890D02*
X0179921Y0072890D01*
X0179179Y0073888D02*
X0195695Y0073888D01*
X0195847Y0074887D02*
X0177856Y0074887D01*
X0176534Y0075885D02*
X0195999Y0075885D01*
X0196151Y0076884D02*
X0173458Y0076884D01*
X0169508Y0076884D02*
X0145400Y0076884D01*
X0145400Y0077138D02*
X0144638Y0077900D01*
X0138362Y0077900D01*
X0137600Y0077138D01*
X0137600Y0070862D01*
X0138362Y0070100D01*
X0144638Y0070100D01*
X0145400Y0070862D01*
X0145400Y0077138D01*
X0144656Y0077882D02*
X0196303Y0077882D01*
X0196455Y0078881D02*
X0090800Y0078881D01*
X0090800Y0079879D02*
X0196607Y0079879D01*
X0196759Y0080878D02*
X0145400Y0080878D01*
X0145400Y0081876D02*
X0196910Y0081876D01*
X0197062Y0082875D02*
X0145400Y0082875D01*
X0145400Y0083873D02*
X0197214Y0083873D01*
X0197366Y0084872D02*
X0145400Y0084872D01*
X0145400Y0085870D02*
X0197518Y0085870D01*
X0197670Y0086869D02*
X0145400Y0086869D01*
X0144671Y0087868D02*
X0197822Y0087868D01*
X0197974Y0088866D02*
X0139180Y0088866D01*
X0138181Y0089865D02*
X0198126Y0089865D01*
X0198278Y0090863D02*
X0145400Y0090863D01*
X0145400Y0091862D02*
X0198430Y0091862D01*
X0198582Y0092860D02*
X0145400Y0092860D01*
X0145400Y0093859D02*
X0198734Y0093859D01*
X0198886Y0094857D02*
X0145400Y0094857D01*
X0145400Y0095856D02*
X0199038Y0095856D01*
X0199190Y0096854D02*
X0145400Y0096854D01*
X0144686Y0097853D02*
X0199342Y0097853D01*
X0199494Y0098851D02*
X0139194Y0098851D01*
X0138196Y0099850D02*
X0199646Y0099850D01*
X0199797Y0100848D02*
X0145387Y0100848D01*
X0145400Y0100862D02*
X0145400Y0107138D01*
X0144638Y0107900D01*
X0140146Y0107900D01*
X0108300Y0139746D01*
X0108300Y0153102D01*
X0108702Y0152131D01*
X0109631Y0151202D01*
X0110844Y0150700D01*
X0112156Y0150700D01*
X0113369Y0151202D01*
X0114298Y0152131D01*
X0114800Y0153344D01*
X0114800Y0154656D01*
X0114298Y0155869D01*
X0113369Y0156798D01*
X0113300Y0156826D01*
X0113300Y0250162D01*
X0113362Y0250100D01*
X0119638Y0250100D01*
X0119700Y0250162D01*
X0119700Y0226826D01*
X0119631Y0226798D01*
X0118702Y0225869D01*
X0118200Y0224656D01*
X0118200Y0223344D01*
X0118702Y0222131D01*
X0119631Y0221202D01*
X0120844Y0220700D01*
X0122156Y0220700D01*
X0123369Y0221202D01*
X0124298Y0222131D01*
X0124700Y0223102D01*
X0124700Y0128254D01*
X0130754Y0122200D01*
X0137600Y0122200D01*
X0137600Y0120862D01*
X0138362Y0120100D01*
X0144638Y0120100D01*
X0145400Y0120862D01*
X0145400Y0127138D01*
X0144638Y0127900D01*
X0138362Y0127900D01*
X0137600Y0127138D01*
X0137600Y0125800D01*
X0132246Y0125800D01*
X0128300Y0129746D01*
X0128300Y0250100D01*
X0129638Y0250100D01*
X0130400Y0250862D01*
X0130400Y0257138D01*
X0129638Y0257900D01*
X0125446Y0257900D01*
X0162246Y0294700D01*
X0182246Y0294700D01*
X0187246Y0299700D01*
X0188300Y0300754D01*
X0188300Y0310100D01*
X0189638Y0310100D01*
X0190400Y0310862D01*
X0190400Y0317138D01*
X0189638Y0317900D01*
X0183362Y0317900D01*
X0182600Y0317138D01*
X0182600Y0310862D01*
X0183362Y0310100D01*
X0184700Y0310100D01*
X0184700Y0304898D01*
X0184298Y0305869D01*
X0183369Y0306798D01*
X0182156Y0307300D01*
X0180844Y0307300D01*
X0180774Y0307271D01*
X0178300Y0309746D01*
X0178300Y0310100D01*
X0179638Y0310100D01*
X0180400Y0310862D01*
X0180400Y0317138D01*
X0179638Y0317900D01*
X0173362Y0317900D01*
X0172600Y0317138D01*
X0172600Y0310862D01*
X0173362Y0310100D01*
X0174700Y0310100D01*
X0174700Y0308254D01*
X0175754Y0307200D01*
X0178229Y0304726D01*
X0178200Y0304656D01*
X0178200Y0303344D01*
X0178702Y0302131D01*
X0179631Y0301202D01*
X0180844Y0300700D01*
X0182156Y0300700D01*
X0183369Y0301202D01*
X0184298Y0302131D01*
X0184700Y0303102D01*
X0184700Y0302246D01*
X0180754Y0298300D01*
X0160754Y0298300D01*
X0119996Y0257542D01*
X0119638Y0257900D01*
X0113362Y0257900D01*
X0113300Y0257838D01*
X0113300Y0266174D01*
X0113369Y0266202D01*
X0114298Y0267131D01*
X0114800Y0268344D01*
X0114800Y0269656D01*
X0114298Y0270869D01*
X0113369Y0271798D01*
X0112156Y0272300D01*
X0110844Y0272300D01*
X0109631Y0271798D01*
X0108702Y0270869D01*
X0108200Y0269656D01*
X0108200Y0268344D01*
X0108702Y0267131D01*
X0109631Y0266202D01*
X0109700Y0266174D01*
X0109700Y0257838D01*
X0109638Y0257900D01*
X0103362Y0257900D01*
X0102600Y0257138D01*
X0102600Y0250862D01*
X0103362Y0250100D01*
X0104700Y0250100D01*
X0104700Y0138254D01*
X0105754Y0137200D01*
X0137600Y0105354D01*
X0137600Y0100862D01*
X0138362Y0100100D01*
X0144638Y0100100D01*
X0145400Y0100862D01*
X0145400Y0101847D02*
X0199949Y0101847D01*
X0200101Y0102845D02*
X0145400Y0102845D01*
X0145400Y0103844D02*
X0200253Y0103844D01*
X0200405Y0104842D02*
X0145400Y0104842D01*
X0145400Y0105841D02*
X0200557Y0105841D01*
X0200709Y0106839D02*
X0145400Y0106839D01*
X0144701Y0107838D02*
X0200861Y0107838D01*
X0201013Y0108836D02*
X0139209Y0108836D01*
X0138211Y0109835D02*
X0201165Y0109835D01*
X0201317Y0110833D02*
X0145372Y0110833D01*
X0145400Y0110862D02*
X0145400Y0117138D01*
X0144638Y0117900D01*
X0138362Y0117900D01*
X0137600Y0117138D01*
X0137600Y0110862D01*
X0138362Y0110100D01*
X0144638Y0110100D01*
X0145400Y0110862D01*
X0145400Y0111832D02*
X0201469Y0111832D01*
X0201621Y0112830D02*
X0145400Y0112830D01*
X0145400Y0113829D02*
X0201773Y0113829D01*
X0201925Y0114827D02*
X0145400Y0114827D01*
X0145400Y0115826D02*
X0202077Y0115826D01*
X0202229Y0116824D02*
X0145400Y0116824D01*
X0144716Y0117823D02*
X0202381Y0117823D01*
X0202533Y0118821D02*
X0129224Y0118821D01*
X0130223Y0117823D02*
X0138284Y0117823D01*
X0137600Y0116824D02*
X0131221Y0116824D01*
X0132220Y0115826D02*
X0137600Y0115826D01*
X0137600Y0114827D02*
X0133218Y0114827D01*
X0134217Y0113829D02*
X0137600Y0113829D01*
X0137600Y0112830D02*
X0135215Y0112830D01*
X0136214Y0111832D02*
X0137600Y0111832D01*
X0137628Y0110833D02*
X0137212Y0110833D01*
X0135117Y0107838D02*
X0130208Y0107838D01*
X0129209Y0108836D02*
X0134118Y0108836D01*
X0133120Y0109835D02*
X0128211Y0109835D01*
X0127212Y0110833D02*
X0132121Y0110833D01*
X0131123Y0111832D02*
X0126214Y0111832D01*
X0125215Y0112830D02*
X0130124Y0112830D01*
X0129126Y0113829D02*
X0124217Y0113829D01*
X0123218Y0114827D02*
X0128127Y0114827D01*
X0127129Y0115826D02*
X0122220Y0115826D01*
X0121221Y0116824D02*
X0126130Y0116824D01*
X0125132Y0117823D02*
X0120223Y0117823D01*
X0119224Y0118821D02*
X0124133Y0118821D01*
X0123135Y0119820D02*
X0118226Y0119820D01*
X0117227Y0120818D02*
X0122136Y0120818D01*
X0121138Y0121817D02*
X0116229Y0121817D01*
X0115230Y0122815D02*
X0120139Y0122815D01*
X0119140Y0123814D02*
X0114232Y0123814D01*
X0113233Y0124812D02*
X0118142Y0124812D01*
X0117143Y0125811D02*
X0112235Y0125811D01*
X0111236Y0126809D02*
X0116145Y0126809D01*
X0115146Y0127808D02*
X0110238Y0127808D01*
X0109239Y0128806D02*
X0114148Y0128806D01*
X0113149Y0129805D02*
X0108241Y0129805D01*
X0107242Y0130803D02*
X0112151Y0130803D01*
X0111152Y0131802D02*
X0106244Y0131802D01*
X0105245Y0132801D02*
X0110154Y0132801D01*
X0109155Y0133799D02*
X0104247Y0133799D01*
X0103248Y0134798D02*
X0108157Y0134798D01*
X0107158Y0135796D02*
X0102250Y0135796D01*
X0101251Y0136795D02*
X0106160Y0136795D01*
X0105161Y0137793D02*
X0100252Y0137793D01*
X0099254Y0138792D02*
X0104700Y0138792D01*
X0104700Y0139790D02*
X0098300Y0139790D01*
X0098300Y0140789D02*
X0104700Y0140789D01*
X0104700Y0141787D02*
X0098300Y0141787D01*
X0098300Y0142786D02*
X0104700Y0142786D01*
X0104700Y0143784D02*
X0098300Y0143784D01*
X0098300Y0144783D02*
X0104700Y0144783D01*
X0104700Y0145781D02*
X0098300Y0145781D01*
X0098300Y0146780D02*
X0104700Y0146780D01*
X0104700Y0147778D02*
X0098300Y0147778D01*
X0098300Y0148777D02*
X0104700Y0148777D01*
X0104700Y0149775D02*
X0098300Y0149775D01*
X0098300Y0150774D02*
X0104700Y0150774D01*
X0104700Y0151772D02*
X0098300Y0151772D01*
X0098300Y0152771D02*
X0104700Y0152771D01*
X0104700Y0153769D02*
X0098300Y0153769D01*
X0098300Y0154768D02*
X0104700Y0154768D01*
X0104700Y0155766D02*
X0098300Y0155766D01*
X0098300Y0156765D02*
X0104700Y0156765D01*
X0104700Y0157763D02*
X0098300Y0157763D01*
X0098300Y0158762D02*
X0104700Y0158762D01*
X0104700Y0159760D02*
X0098300Y0159760D01*
X0098300Y0160759D02*
X0104700Y0160759D01*
X0104700Y0161757D02*
X0098300Y0161757D01*
X0098300Y0162756D02*
X0104700Y0162756D01*
X0104700Y0163754D02*
X0098300Y0163754D01*
X0098300Y0164753D02*
X0104700Y0164753D01*
X0104700Y0165751D02*
X0098300Y0165751D01*
X0098300Y0166750D02*
X0104700Y0166750D01*
X0104700Y0167748D02*
X0098300Y0167748D01*
X0098300Y0168747D02*
X0104700Y0168747D01*
X0104700Y0169745D02*
X0098300Y0169745D01*
X0098300Y0170744D02*
X0104700Y0170744D01*
X0104700Y0171742D02*
X0098300Y0171742D01*
X0098300Y0172741D02*
X0104700Y0172741D01*
X0104700Y0173739D02*
X0098300Y0173739D01*
X0098300Y0174738D02*
X0104700Y0174738D01*
X0104700Y0175737D02*
X0098300Y0175737D01*
X0098300Y0176735D02*
X0104700Y0176735D01*
X0104700Y0177734D02*
X0098300Y0177734D01*
X0098300Y0178732D02*
X0104700Y0178732D01*
X0104700Y0179731D02*
X0098300Y0179731D01*
X0098300Y0180729D02*
X0104700Y0180729D01*
X0104700Y0181728D02*
X0098300Y0181728D01*
X0098300Y0182726D02*
X0104700Y0182726D01*
X0104700Y0183725D02*
X0098300Y0183725D01*
X0098300Y0184723D02*
X0104700Y0184723D01*
X0104700Y0185722D02*
X0098300Y0185722D01*
X0098300Y0186720D02*
X0104700Y0186720D01*
X0104700Y0187719D02*
X0098300Y0187719D01*
X0098300Y0188717D02*
X0104700Y0188717D01*
X0104700Y0189716D02*
X0098300Y0189716D01*
X0098300Y0190714D02*
X0104700Y0190714D01*
X0104700Y0191713D02*
X0098300Y0191713D01*
X0098300Y0192711D02*
X0104700Y0192711D01*
X0104700Y0193710D02*
X0098300Y0193710D01*
X0098300Y0194708D02*
X0104700Y0194708D01*
X0104700Y0195707D02*
X0098300Y0195707D01*
X0098300Y0196705D02*
X0104700Y0196705D01*
X0104700Y0197704D02*
X0098300Y0197704D01*
X0098300Y0198702D02*
X0104700Y0198702D01*
X0104700Y0199701D02*
X0098300Y0199701D01*
X0098300Y0200699D02*
X0104700Y0200699D01*
X0104700Y0201698D02*
X0098300Y0201698D01*
X0098300Y0202696D02*
X0104700Y0202696D01*
X0104700Y0203695D02*
X0098300Y0203695D01*
X0098300Y0204693D02*
X0104700Y0204693D01*
X0104700Y0205692D02*
X0098300Y0205692D01*
X0098300Y0206690D02*
X0104700Y0206690D01*
X0104700Y0207689D02*
X0098300Y0207689D01*
X0098300Y0208687D02*
X0104700Y0208687D01*
X0104700Y0209686D02*
X0098300Y0209686D01*
X0098300Y0210684D02*
X0104700Y0210684D01*
X0104700Y0211683D02*
X0098300Y0211683D01*
X0098300Y0212681D02*
X0104700Y0212681D01*
X0104700Y0213680D02*
X0098300Y0213680D01*
X0098300Y0214678D02*
X0104700Y0214678D01*
X0104700Y0215677D02*
X0098300Y0215677D01*
X0098300Y0216675D02*
X0104700Y0216675D01*
X0104700Y0217674D02*
X0098300Y0217674D01*
X0098300Y0218672D02*
X0104700Y0218672D01*
X0104700Y0219671D02*
X0098300Y0219671D01*
X0098300Y0220670D02*
X0104700Y0220670D01*
X0104700Y0221668D02*
X0098300Y0221668D01*
X0098300Y0222667D02*
X0104700Y0222667D01*
X0104700Y0223665D02*
X0098300Y0223665D01*
X0098300Y0224664D02*
X0104700Y0224664D01*
X0104700Y0225662D02*
X0098300Y0225662D01*
X0098300Y0226661D02*
X0104700Y0226661D01*
X0104700Y0227659D02*
X0098300Y0227659D01*
X0098300Y0228658D02*
X0104700Y0228658D01*
X0104700Y0229656D02*
X0098300Y0229656D01*
X0098300Y0230655D02*
X0104700Y0230655D01*
X0104700Y0231653D02*
X0098300Y0231653D01*
X0098300Y0232652D02*
X0104700Y0232652D01*
X0104700Y0233650D02*
X0098300Y0233650D01*
X0098300Y0234649D02*
X0104700Y0234649D01*
X0104700Y0235647D02*
X0098300Y0235647D01*
X0098300Y0236646D02*
X0104700Y0236646D01*
X0104700Y0237644D02*
X0098300Y0237644D01*
X0098300Y0238643D02*
X0104700Y0238643D01*
X0104700Y0239641D02*
X0098300Y0239641D01*
X0098300Y0240640D02*
X0104700Y0240640D01*
X0104700Y0241638D02*
X0098300Y0241638D01*
X0098300Y0242637D02*
X0104700Y0242637D01*
X0104700Y0243635D02*
X0098300Y0243635D01*
X0098300Y0244634D02*
X0104700Y0244634D01*
X0104700Y0245632D02*
X0098300Y0245632D01*
X0098300Y0246631D02*
X0104700Y0246631D01*
X0104700Y0247629D02*
X0098300Y0247629D01*
X0098300Y0248628D02*
X0104700Y0248628D01*
X0104700Y0249626D02*
X0098300Y0249626D01*
X0100163Y0250625D02*
X0102837Y0250625D01*
X0102600Y0251623D02*
X0100400Y0251623D01*
X0100400Y0252622D02*
X0102600Y0252622D01*
X0102600Y0253620D02*
X0100400Y0253620D01*
X0100400Y0254619D02*
X0102600Y0254619D01*
X0102600Y0255617D02*
X0100400Y0255617D01*
X0100400Y0256616D02*
X0102600Y0256616D01*
X0103076Y0257614D02*
X0099924Y0257614D01*
X0097157Y0259611D02*
X0109700Y0259611D01*
X0109700Y0258613D02*
X0096159Y0258613D01*
X0098156Y0260610D02*
X0109700Y0260610D01*
X0109700Y0261608D02*
X0099154Y0261608D01*
X0100153Y0262607D02*
X0109700Y0262607D01*
X0109700Y0263605D02*
X0101151Y0263605D01*
X0102150Y0264604D02*
X0109700Y0264604D01*
X0109700Y0265603D02*
X0103148Y0265603D01*
X0104147Y0266601D02*
X0109232Y0266601D01*
X0108508Y0267600D02*
X0105145Y0267600D01*
X0106144Y0268598D02*
X0108200Y0268598D01*
X0108200Y0269597D02*
X0107142Y0269597D01*
X0108141Y0270595D02*
X0108589Y0270595D01*
X0109139Y0271594D02*
X0109427Y0271594D01*
X0110138Y0272592D02*
X0135047Y0272592D01*
X0136045Y0273591D02*
X0111136Y0273591D01*
X0112135Y0274589D02*
X0137044Y0274589D01*
X0138042Y0275588D02*
X0113133Y0275588D01*
X0114132Y0276586D02*
X0139041Y0276586D01*
X0140039Y0277585D02*
X0115130Y0277585D01*
X0116129Y0278583D02*
X0141038Y0278583D01*
X0142036Y0279582D02*
X0117127Y0279582D01*
X0118126Y0280580D02*
X0143035Y0280580D01*
X0144033Y0281579D02*
X0119124Y0281579D01*
X0120123Y0282577D02*
X0145032Y0282577D01*
X0146030Y0283576D02*
X0121121Y0283576D01*
X0122120Y0284574D02*
X0147029Y0284574D01*
X0148027Y0285573D02*
X0123118Y0285573D01*
X0124117Y0286571D02*
X0149026Y0286571D01*
X0150024Y0287570D02*
X0125115Y0287570D01*
X0126114Y0288568D02*
X0151023Y0288568D01*
X0152021Y0289567D02*
X0127112Y0289567D01*
X0128111Y0290565D02*
X0153020Y0290565D01*
X0154018Y0291564D02*
X0129109Y0291564D01*
X0130108Y0292562D02*
X0155017Y0292562D01*
X0156015Y0293561D02*
X0131106Y0293561D01*
X0132105Y0294559D02*
X0157014Y0294559D01*
X0158012Y0295558D02*
X0133103Y0295558D01*
X0134102Y0296556D02*
X0159011Y0296556D01*
X0160009Y0297555D02*
X0135100Y0297555D01*
X0136099Y0298553D02*
X0181008Y0298553D01*
X0182006Y0299552D02*
X0137097Y0299552D01*
X0138096Y0300550D02*
X0183005Y0300550D01*
X0183716Y0301549D02*
X0184003Y0301549D01*
X0184470Y0302547D02*
X0184700Y0302547D01*
X0186500Y0301500D02*
X0186500Y0314000D01*
X0184700Y0309537D02*
X0178509Y0309537D01*
X0179507Y0308539D02*
X0184700Y0308539D01*
X0184700Y0307540D02*
X0180506Y0307540D01*
X0180074Y0310536D02*
X0182926Y0310536D01*
X0182600Y0311534D02*
X0180400Y0311534D01*
X0180400Y0312533D02*
X0182600Y0312533D01*
X0182600Y0313531D02*
X0180400Y0313531D01*
X0180400Y0314530D02*
X0182600Y0314530D01*
X0182600Y0315528D02*
X0180400Y0315528D01*
X0180400Y0316527D02*
X0182600Y0316527D01*
X0182987Y0317525D02*
X0180013Y0317525D01*
X0176500Y0314000D02*
X0176500Y0309000D01*
X0181500Y0304000D01*
X0179284Y0301549D02*
X0139095Y0301549D01*
X0140093Y0302547D02*
X0178530Y0302547D01*
X0178200Y0303546D02*
X0141092Y0303546D01*
X0142090Y0304544D02*
X0178200Y0304544D01*
X0177411Y0305543D02*
X0143089Y0305543D01*
X0144087Y0306541D02*
X0176413Y0306541D01*
X0175414Y0307540D02*
X0162586Y0307540D01*
X0163584Y0308539D02*
X0174700Y0308539D01*
X0174700Y0309537D02*
X0164583Y0309537D01*
X0161500Y0309000D02*
X0166500Y0314000D01*
X0162987Y0317525D02*
X0160013Y0317525D01*
X0160400Y0316527D02*
X0162600Y0316527D01*
X0162600Y0315528D02*
X0160400Y0315528D01*
X0160400Y0314530D02*
X0162600Y0314530D01*
X0162600Y0313531D02*
X0160400Y0313531D01*
X0160400Y0312533D02*
X0162487Y0312533D01*
X0161488Y0311534D02*
X0160400Y0311534D01*
X0161500Y0309000D02*
X0144000Y0309000D01*
X0091500Y0256500D01*
X0091500Y0174000D01*
X0081500Y0164000D01*
X0085400Y0163754D02*
X0094700Y0163754D01*
X0094700Y0162756D02*
X0085400Y0162756D01*
X0085400Y0161757D02*
X0094700Y0161757D01*
X0094700Y0160759D02*
X0085297Y0160759D01*
X0085785Y0159760D02*
X0094700Y0159760D01*
X0094700Y0158762D02*
X0086784Y0158762D01*
X0087782Y0157763D02*
X0094700Y0157763D01*
X0094700Y0156765D02*
X0088781Y0156765D01*
X0089779Y0155766D02*
X0094700Y0155766D01*
X0094700Y0154768D02*
X0090778Y0154768D01*
X0091776Y0153769D02*
X0094700Y0153769D01*
X0094700Y0152771D02*
X0092775Y0152771D01*
X0093300Y0151772D02*
X0094700Y0151772D01*
X0094700Y0150774D02*
X0093300Y0150774D01*
X0093300Y0149775D02*
X0094700Y0149775D01*
X0094700Y0148777D02*
X0093300Y0148777D01*
X0093300Y0147778D02*
X0094700Y0147778D01*
X0094700Y0146780D02*
X0093300Y0146780D01*
X0093300Y0145781D02*
X0094700Y0145781D01*
X0094700Y0144783D02*
X0093300Y0144783D01*
X0093300Y0143784D02*
X0094700Y0143784D01*
X0094700Y0142786D02*
X0093300Y0142786D01*
X0093300Y0141787D02*
X0094700Y0141787D01*
X0094700Y0140789D02*
X0093300Y0140789D01*
X0093300Y0139790D02*
X0094700Y0139790D01*
X0094700Y0138792D02*
X0093300Y0138792D01*
X0093300Y0137793D02*
X0095161Y0137793D01*
X0096160Y0136795D02*
X0093300Y0136795D01*
X0093300Y0135796D02*
X0097158Y0135796D01*
X0098157Y0134798D02*
X0093300Y0134798D01*
X0094247Y0133799D02*
X0099155Y0133799D01*
X0100154Y0132801D02*
X0095245Y0132801D01*
X0096244Y0131802D02*
X0101152Y0131802D01*
X0102151Y0130803D02*
X0097242Y0130803D01*
X0098241Y0129805D02*
X0103149Y0129805D01*
X0104148Y0128806D02*
X0099239Y0128806D01*
X0100238Y0127808D02*
X0105146Y0127808D01*
X0106145Y0126809D02*
X0101236Y0126809D01*
X0102235Y0125811D02*
X0107143Y0125811D01*
X0108142Y0124812D02*
X0103233Y0124812D01*
X0104232Y0123814D02*
X0109140Y0123814D01*
X0110139Y0122815D02*
X0105230Y0122815D01*
X0106229Y0121817D02*
X0111138Y0121817D01*
X0112136Y0120818D02*
X0107227Y0120818D01*
X0108226Y0119820D02*
X0113135Y0119820D01*
X0114133Y0118821D02*
X0109224Y0118821D01*
X0110223Y0117823D02*
X0115132Y0117823D01*
X0116130Y0116824D02*
X0111221Y0116824D01*
X0112220Y0115826D02*
X0117129Y0115826D01*
X0118127Y0114827D02*
X0113218Y0114827D01*
X0114217Y0113829D02*
X0119126Y0113829D01*
X0120124Y0112830D02*
X0115215Y0112830D01*
X0116214Y0111832D02*
X0121123Y0111832D01*
X0122121Y0110833D02*
X0117212Y0110833D01*
X0118211Y0109835D02*
X0123120Y0109835D01*
X0124118Y0108836D02*
X0119209Y0108836D01*
X0120208Y0107838D02*
X0125117Y0107838D01*
X0126115Y0106839D02*
X0121206Y0106839D01*
X0122205Y0105841D02*
X0127114Y0105841D01*
X0128112Y0104842D02*
X0123203Y0104842D01*
X0124202Y0103844D02*
X0129111Y0103844D01*
X0130109Y0102845D02*
X0125200Y0102845D01*
X0126199Y0101847D02*
X0131108Y0101847D01*
X0132106Y0100848D02*
X0127197Y0100848D01*
X0128196Y0099850D02*
X0133105Y0099850D01*
X0134103Y0098851D02*
X0129194Y0098851D01*
X0130193Y0097853D02*
X0135102Y0097853D01*
X0136100Y0096854D02*
X0131191Y0096854D01*
X0132190Y0095856D02*
X0137099Y0095856D01*
X0137600Y0094857D02*
X0133188Y0094857D01*
X0134187Y0093859D02*
X0137600Y0093859D01*
X0137600Y0092860D02*
X0135186Y0092860D01*
X0136184Y0091862D02*
X0137600Y0091862D01*
X0137600Y0090863D02*
X0137183Y0090863D01*
X0135087Y0087868D02*
X0090800Y0087868D01*
X0090800Y0088866D02*
X0134088Y0088866D01*
X0133090Y0089865D02*
X0090800Y0089865D01*
X0090800Y0090863D02*
X0132091Y0090863D01*
X0131093Y0091862D02*
X0090800Y0091862D01*
X0090800Y0092860D02*
X0130094Y0092860D01*
X0129096Y0093859D02*
X0090800Y0093859D01*
X0090800Y0094857D02*
X0128097Y0094857D01*
X0127099Y0095856D02*
X0090800Y0095856D01*
X0090800Y0096854D02*
X0126100Y0096854D01*
X0125102Y0097853D02*
X0090800Y0097853D01*
X0090800Y0098851D02*
X0124103Y0098851D01*
X0123105Y0099850D02*
X0090800Y0099850D01*
X0090800Y0100848D02*
X0122106Y0100848D01*
X0121108Y0101847D02*
X0090800Y0101847D01*
X0090800Y0102845D02*
X0120109Y0102845D01*
X0119111Y0103844D02*
X0090800Y0103844D01*
X0090800Y0104842D02*
X0118112Y0104842D01*
X0117114Y0105841D02*
X0090800Y0105841D01*
X0090800Y0106839D02*
X0116115Y0106839D01*
X0115117Y0107838D02*
X0090800Y0107838D01*
X0090800Y0108836D02*
X0114118Y0108836D01*
X0113120Y0109835D02*
X0090800Y0109835D01*
X0090800Y0110833D02*
X0112121Y0110833D01*
X0111123Y0111832D02*
X0090800Y0111832D01*
X0090800Y0112830D02*
X0110124Y0112830D01*
X0109126Y0113829D02*
X0090800Y0113829D01*
X0090800Y0114827D02*
X0108127Y0114827D01*
X0107129Y0115826D02*
X0090800Y0115826D01*
X0090800Y0116824D02*
X0106130Y0116824D01*
X0105132Y0117823D02*
X0090800Y0117823D01*
X0090800Y0118821D02*
X0104133Y0118821D01*
X0103135Y0119820D02*
X0090800Y0119820D01*
X0090800Y0120818D02*
X0102136Y0120818D01*
X0101138Y0121817D02*
X0090800Y0121817D01*
X0090800Y0122815D02*
X0100139Y0122815D01*
X0099140Y0123814D02*
X0090800Y0123814D01*
X0090800Y0124812D02*
X0098142Y0124812D01*
X0097143Y0125811D02*
X0090800Y0125811D01*
X0090800Y0126809D02*
X0096145Y0126809D01*
X0095146Y0127808D02*
X0090800Y0127808D01*
X0090800Y0128806D02*
X0094148Y0128806D01*
X0093149Y0129805D02*
X0090800Y0129805D01*
X0090800Y0130803D02*
X0092151Y0130803D01*
X0091152Y0131802D02*
X0090800Y0131802D01*
X0091500Y0134000D02*
X0091500Y0151500D01*
X0084000Y0159000D01*
X0079000Y0159000D01*
X0076500Y0161500D01*
X0076500Y0231500D01*
X0086500Y0241500D01*
X0086500Y0254000D01*
X0083300Y0258613D02*
X0091067Y0258613D01*
X0090069Y0257614D02*
X0089924Y0257614D01*
X0092066Y0259611D02*
X0083300Y0259611D01*
X0083300Y0260610D02*
X0093064Y0260610D01*
X0094063Y0261608D02*
X0083300Y0261608D01*
X0083300Y0262607D02*
X0095061Y0262607D01*
X0096060Y0263605D02*
X0083300Y0263605D01*
X0083300Y0264604D02*
X0097058Y0264604D01*
X0098057Y0265603D02*
X0083300Y0265603D01*
X0083300Y0266601D02*
X0099055Y0266601D01*
X0100054Y0267600D02*
X0083300Y0267600D01*
X0083300Y0268598D02*
X0101052Y0268598D01*
X0102051Y0269597D02*
X0083300Y0269597D01*
X0083300Y0270595D02*
X0103049Y0270595D01*
X0104048Y0271594D02*
X0083300Y0271594D01*
X0083300Y0272592D02*
X0105047Y0272592D01*
X0106045Y0273591D02*
X0083300Y0273591D01*
X0083300Y0274589D02*
X0107044Y0274589D01*
X0108042Y0275588D02*
X0083300Y0275588D01*
X0083300Y0276586D02*
X0109041Y0276586D01*
X0110039Y0277585D02*
X0083300Y0277585D01*
X0083300Y0278583D02*
X0111038Y0278583D01*
X0112036Y0279582D02*
X0083300Y0279582D01*
X0083300Y0280580D02*
X0113035Y0280580D01*
X0114033Y0281579D02*
X0083300Y0281579D01*
X0083300Y0282577D02*
X0115032Y0282577D01*
X0116030Y0283576D02*
X0083300Y0283576D01*
X0083300Y0284574D02*
X0117029Y0284574D01*
X0118027Y0285573D02*
X0083300Y0285573D01*
X0083300Y0286571D02*
X0119026Y0286571D01*
X0120024Y0287570D02*
X0083300Y0287570D01*
X0083300Y0288568D02*
X0121023Y0288568D01*
X0122021Y0289567D02*
X0083300Y0289567D01*
X0083300Y0290565D02*
X0123020Y0290565D01*
X0124018Y0291564D02*
X0083300Y0291564D01*
X0083300Y0292562D02*
X0125017Y0292562D01*
X0126015Y0293561D02*
X0083300Y0293561D01*
X0083300Y0294559D02*
X0127014Y0294559D01*
X0128012Y0295558D02*
X0083300Y0295558D01*
X0083300Y0296556D02*
X0129011Y0296556D01*
X0130009Y0297555D02*
X0083300Y0297555D01*
X0083300Y0298553D02*
X0131008Y0298553D01*
X0132006Y0299552D02*
X0083300Y0299552D01*
X0083300Y0300550D02*
X0133005Y0300550D01*
X0134003Y0301549D02*
X0083300Y0301549D01*
X0083300Y0302547D02*
X0135002Y0302547D01*
X0136000Y0303546D02*
X0083300Y0303546D01*
X0083300Y0304544D02*
X0136999Y0304544D01*
X0137997Y0305543D02*
X0083300Y0305543D01*
X0083300Y0306541D02*
X0138996Y0306541D01*
X0139994Y0307540D02*
X0083300Y0307540D01*
X0083300Y0308539D02*
X0140993Y0308539D01*
X0141991Y0309537D02*
X0083300Y0309537D01*
X0083362Y0310100D02*
X0089638Y0310100D01*
X0090400Y0310862D01*
X0090400Y0317138D01*
X0089638Y0317900D01*
X0083362Y0317900D01*
X0082600Y0317138D01*
X0082600Y0310862D01*
X0083362Y0310100D01*
X0082926Y0310536D02*
X0082510Y0310536D01*
X0082600Y0311534D02*
X0081512Y0311534D01*
X0080513Y0312533D02*
X0082600Y0312533D01*
X0082600Y0313531D02*
X0080400Y0313531D01*
X0080400Y0314530D02*
X0082600Y0314530D01*
X0082600Y0315528D02*
X0080400Y0315528D01*
X0080400Y0316527D02*
X0082600Y0316527D01*
X0082987Y0317525D02*
X0080013Y0317525D01*
X0090013Y0317525D02*
X0092987Y0317525D01*
X0093362Y0317900D02*
X0092600Y0317138D01*
X0092600Y0310862D01*
X0093362Y0310100D01*
X0099638Y0310100D01*
X0100400Y0310862D01*
X0100400Y0317138D01*
X0099638Y0317900D01*
X0093362Y0317900D01*
X0092600Y0316527D02*
X0090400Y0316527D01*
X0090400Y0315528D02*
X0092600Y0315528D01*
X0092600Y0314530D02*
X0090400Y0314530D01*
X0090400Y0313531D02*
X0092600Y0313531D01*
X0092600Y0312533D02*
X0090400Y0312533D01*
X0090400Y0311534D02*
X0092600Y0311534D01*
X0092926Y0310536D02*
X0090074Y0310536D01*
X0100074Y0310536D02*
X0102926Y0310536D01*
X0102600Y0310862D02*
X0103362Y0310100D01*
X0109638Y0310100D01*
X0110400Y0310862D01*
X0110400Y0317138D01*
X0109638Y0317900D01*
X0103362Y0317900D01*
X0102600Y0317138D01*
X0102600Y0310862D01*
X0102600Y0311534D02*
X0100400Y0311534D01*
X0100400Y0312533D02*
X0102600Y0312533D01*
X0102600Y0313531D02*
X0100400Y0313531D01*
X0100400Y0314530D02*
X0102600Y0314530D01*
X0102600Y0315528D02*
X0100400Y0315528D01*
X0100400Y0316527D02*
X0102600Y0316527D01*
X0102987Y0317525D02*
X0100013Y0317525D01*
X0110013Y0317525D02*
X0112987Y0317525D01*
X0113362Y0317900D02*
X0112600Y0317138D01*
X0112600Y0310862D01*
X0113362Y0310100D01*
X0119638Y0310100D01*
X0120400Y0310862D01*
X0120400Y0317138D01*
X0119638Y0317900D01*
X0113362Y0317900D01*
X0112600Y0316527D02*
X0110400Y0316527D01*
X0110400Y0315528D02*
X0112600Y0315528D01*
X0112600Y0314530D02*
X0110400Y0314530D01*
X0110400Y0313531D02*
X0112600Y0313531D01*
X0112600Y0312533D02*
X0110400Y0312533D01*
X0110400Y0311534D02*
X0112600Y0311534D01*
X0112926Y0310536D02*
X0110074Y0310536D01*
X0120074Y0310536D02*
X0122667Y0310536D01*
X0122700Y0310479D02*
X0122979Y0310200D01*
X0123321Y0310002D01*
X0123703Y0309900D01*
X0126200Y0309900D01*
X0126200Y0313700D01*
X0126800Y0313700D01*
X0126800Y0314300D01*
X0126200Y0314300D01*
X0126200Y0318100D01*
X0123703Y0318100D01*
X0123321Y0317998D01*
X0122979Y0317800D01*
X0122700Y0317521D01*
X0122502Y0317179D01*
X0122400Y0316797D01*
X0122400Y0314300D01*
X0126200Y0314300D01*
X0126200Y0313700D01*
X0122400Y0313700D01*
X0122400Y0311203D01*
X0122502Y0310821D01*
X0122700Y0310479D01*
X0122400Y0311534D02*
X0120400Y0311534D01*
X0120400Y0312533D02*
X0122400Y0312533D01*
X0122400Y0313531D02*
X0120400Y0313531D01*
X0120400Y0314530D02*
X0122400Y0314530D01*
X0122400Y0315528D02*
X0120400Y0315528D01*
X0120400Y0316527D02*
X0122400Y0316527D01*
X0122704Y0317525D02*
X0120013Y0317525D01*
X0126200Y0317525D02*
X0126800Y0317525D01*
X0126800Y0318100D02*
X0126800Y0314300D01*
X0130600Y0314300D01*
X0130600Y0316797D01*
X0130498Y0317179D01*
X0130300Y0317521D01*
X0130021Y0317800D01*
X0129679Y0317998D01*
X0129297Y0318100D01*
X0126800Y0318100D01*
X0126800Y0316527D02*
X0126200Y0316527D01*
X0126200Y0315528D02*
X0126800Y0315528D01*
X0126800Y0314530D02*
X0126200Y0314530D01*
X0126200Y0313531D02*
X0126800Y0313531D01*
X0126800Y0313700D02*
X0126800Y0309900D01*
X0129297Y0309900D01*
X0129679Y0310002D01*
X0130021Y0310200D01*
X0130300Y0310479D01*
X0130498Y0310821D01*
X0130600Y0311203D01*
X0130600Y0313700D01*
X0126800Y0313700D01*
X0126800Y0312533D02*
X0126200Y0312533D01*
X0126200Y0311534D02*
X0126800Y0311534D01*
X0126800Y0310536D02*
X0126200Y0310536D01*
X0130333Y0310536D02*
X0132926Y0310536D01*
X0132600Y0310862D02*
X0133362Y0310100D01*
X0139638Y0310100D01*
X0140400Y0310862D01*
X0140400Y0317138D01*
X0139638Y0317900D01*
X0133362Y0317900D01*
X0132600Y0317138D01*
X0132600Y0310862D01*
X0132600Y0311534D02*
X0130600Y0311534D01*
X0130600Y0312533D02*
X0132600Y0312533D01*
X0132600Y0313531D02*
X0130600Y0313531D01*
X0130600Y0314530D02*
X0132600Y0314530D01*
X0132600Y0315528D02*
X0130600Y0315528D01*
X0130600Y0316527D02*
X0132600Y0316527D01*
X0132987Y0317525D02*
X0130296Y0317525D01*
X0140013Y0317525D02*
X0142987Y0317525D01*
X0142600Y0316527D02*
X0140400Y0316527D01*
X0140400Y0315528D02*
X0142600Y0315528D01*
X0142600Y0314530D02*
X0140400Y0314530D01*
X0140400Y0313531D02*
X0142600Y0313531D01*
X0142600Y0312533D02*
X0140400Y0312533D01*
X0140400Y0311534D02*
X0142600Y0311534D01*
X0142926Y0310536D02*
X0140074Y0310536D01*
X0150400Y0311534D02*
X0152600Y0311534D01*
X0152600Y0312533D02*
X0150400Y0312533D01*
X0150400Y0313531D02*
X0152600Y0313531D01*
X0152600Y0314530D02*
X0150400Y0314530D01*
X0150400Y0315528D02*
X0152600Y0315528D01*
X0152600Y0316527D02*
X0150400Y0316527D01*
X0150013Y0317525D02*
X0152987Y0317525D01*
X0161500Y0296500D02*
X0181500Y0296500D01*
X0186500Y0301500D01*
X0188300Y0301549D02*
X0219700Y0301549D01*
X0219700Y0302547D02*
X0188300Y0302547D01*
X0188300Y0303546D02*
X0219700Y0303546D01*
X0219700Y0304544D02*
X0188300Y0304544D01*
X0188300Y0305543D02*
X0219700Y0305543D01*
X0219700Y0306541D02*
X0188300Y0306541D01*
X0188300Y0307540D02*
X0219700Y0307540D01*
X0219700Y0308539D02*
X0188300Y0308539D01*
X0188300Y0309537D02*
X0219700Y0309537D01*
X0219700Y0310536D02*
X0210074Y0310536D01*
X0210400Y0310862D02*
X0210400Y0317138D01*
X0209638Y0317900D01*
X0203362Y0317900D01*
X0202600Y0317138D01*
X0202600Y0310862D01*
X0203362Y0310100D01*
X0209638Y0310100D01*
X0210400Y0310862D01*
X0210400Y0311534D02*
X0219700Y0311534D01*
X0219700Y0312533D02*
X0210400Y0312533D01*
X0210400Y0313531D02*
X0219700Y0313531D01*
X0219700Y0314530D02*
X0210400Y0314530D01*
X0210400Y0315528D02*
X0219700Y0315528D01*
X0219700Y0316527D02*
X0210400Y0316527D01*
X0210013Y0317525D02*
X0219700Y0317525D01*
X0219700Y0318524D02*
X0003300Y0318524D01*
X0003300Y0319522D02*
X0219700Y0319522D01*
X0219700Y0320521D02*
X0003300Y0320521D01*
X0003300Y0321519D02*
X0219700Y0321519D01*
X0219700Y0322518D02*
X0003300Y0322518D01*
X0003300Y0323516D02*
X0219700Y0323516D01*
X0219700Y0324515D02*
X0003300Y0324515D01*
X0003300Y0324700D02*
X0219700Y0324700D01*
X0219700Y0231636D01*
X0184953Y0003300D01*
X0038049Y0003300D01*
X0003300Y0234135D01*
X0003300Y0324700D01*
X0003300Y0317525D02*
X0012987Y0317525D01*
X0013362Y0317900D02*
X0012600Y0317138D01*
X0012600Y0310862D01*
X0013362Y0310100D01*
X0019638Y0310100D01*
X0020400Y0310862D01*
X0020400Y0317138D01*
X0019638Y0317900D01*
X0013362Y0317900D01*
X0012600Y0316527D02*
X0003300Y0316527D01*
X0003300Y0315528D02*
X0012600Y0315528D01*
X0012600Y0314530D02*
X0003300Y0314530D01*
X0003300Y0313531D02*
X0012600Y0313531D01*
X0012600Y0312533D02*
X0003300Y0312533D01*
X0003300Y0311534D02*
X0012600Y0311534D01*
X0012926Y0310536D02*
X0003300Y0310536D01*
X0003300Y0309537D02*
X0029700Y0309537D01*
X0029638Y0310100D02*
X0030400Y0310862D01*
X0030400Y0317138D01*
X0029638Y0317900D01*
X0023362Y0317900D01*
X0022600Y0317138D01*
X0022600Y0310862D01*
X0023362Y0310100D01*
X0029638Y0310100D01*
X0030074Y0310536D02*
X0030490Y0310536D01*
X0030400Y0311534D02*
X0031488Y0311534D01*
X0032487Y0312533D02*
X0030400Y0312533D01*
X0030400Y0313531D02*
X0032600Y0313531D01*
X0032600Y0314530D02*
X0030400Y0314530D01*
X0030400Y0315528D02*
X0032600Y0315528D01*
X0032600Y0316527D02*
X0030400Y0316527D01*
X0030013Y0317525D02*
X0032987Y0317525D01*
X0036500Y0314000D02*
X0031500Y0309000D01*
X0031500Y0211500D01*
X0034583Y0212681D02*
X0044700Y0212681D01*
X0044700Y0211683D02*
X0034800Y0211683D01*
X0034734Y0210684D02*
X0044700Y0210684D01*
X0044700Y0209686D02*
X0034320Y0209686D01*
X0033333Y0208687D02*
X0044700Y0208687D01*
X0044700Y0207689D02*
X0007281Y0207689D01*
X0007131Y0208687D02*
X0029667Y0208687D01*
X0028680Y0209686D02*
X0006980Y0209686D01*
X0006830Y0210684D02*
X0028266Y0210684D01*
X0028200Y0211683D02*
X0006680Y0211683D01*
X0006530Y0212681D02*
X0028417Y0212681D01*
X0029013Y0213680D02*
X0006379Y0213680D01*
X0006229Y0214678D02*
X0029700Y0214678D01*
X0029700Y0215677D02*
X0006079Y0215677D01*
X0005928Y0216675D02*
X0029700Y0216675D01*
X0029700Y0217674D02*
X0005778Y0217674D01*
X0005628Y0218672D02*
X0029700Y0218672D01*
X0029700Y0219671D02*
X0005477Y0219671D01*
X0005327Y0220670D02*
X0029700Y0220670D01*
X0029700Y0221668D02*
X0005177Y0221668D01*
X0005026Y0222667D02*
X0029700Y0222667D01*
X0029700Y0223665D02*
X0004876Y0223665D01*
X0004726Y0224664D02*
X0029700Y0224664D01*
X0029700Y0225662D02*
X0004575Y0225662D01*
X0004425Y0226661D02*
X0029700Y0226661D01*
X0029700Y0227659D02*
X0004275Y0227659D01*
X0004125Y0228658D02*
X0029700Y0228658D01*
X0029700Y0229656D02*
X0003974Y0229656D01*
X0003824Y0230655D02*
X0029700Y0230655D01*
X0029700Y0231653D02*
X0003674Y0231653D01*
X0003523Y0232652D02*
X0029700Y0232652D01*
X0029700Y0233650D02*
X0003373Y0233650D01*
X0003300Y0234649D02*
X0029700Y0234649D01*
X0029700Y0235647D02*
X0003300Y0235647D01*
X0003300Y0236646D02*
X0029700Y0236646D01*
X0029700Y0237644D02*
X0003300Y0237644D01*
X0003300Y0238643D02*
X0029700Y0238643D01*
X0029700Y0239641D02*
X0003300Y0239641D01*
X0003300Y0240640D02*
X0029700Y0240640D01*
X0029700Y0241638D02*
X0003300Y0241638D01*
X0003300Y0242637D02*
X0029700Y0242637D01*
X0029700Y0243635D02*
X0003300Y0243635D01*
X0003300Y0244634D02*
X0029700Y0244634D01*
X0029700Y0245632D02*
X0003300Y0245632D01*
X0003300Y0246631D02*
X0029700Y0246631D01*
X0029700Y0247629D02*
X0003300Y0247629D01*
X0003300Y0248628D02*
X0029700Y0248628D01*
X0029700Y0249626D02*
X0003300Y0249626D01*
X0003300Y0250625D02*
X0012837Y0250625D01*
X0012600Y0250862D02*
X0013362Y0250100D01*
X0019638Y0250100D01*
X0020400Y0250862D01*
X0020400Y0257138D01*
X0019638Y0257900D01*
X0013362Y0257900D01*
X0012600Y0257138D01*
X0012600Y0250862D01*
X0012600Y0251623D02*
X0003300Y0251623D01*
X0003300Y0252622D02*
X0012600Y0252622D01*
X0012600Y0253620D02*
X0003300Y0253620D01*
X0003300Y0254619D02*
X0012600Y0254619D01*
X0012600Y0255617D02*
X0003300Y0255617D01*
X0003300Y0256616D02*
X0012600Y0256616D01*
X0013076Y0257614D02*
X0003300Y0257614D01*
X0003300Y0258613D02*
X0029700Y0258613D01*
X0029700Y0259611D02*
X0003300Y0259611D01*
X0003300Y0260610D02*
X0029700Y0260610D01*
X0029700Y0261608D02*
X0003300Y0261608D01*
X0003300Y0262607D02*
X0029700Y0262607D01*
X0029700Y0263605D02*
X0003300Y0263605D01*
X0003300Y0264604D02*
X0029700Y0264604D01*
X0029700Y0265603D02*
X0003300Y0265603D01*
X0003300Y0266601D02*
X0029700Y0266601D01*
X0029700Y0267600D02*
X0003300Y0267600D01*
X0003300Y0268598D02*
X0029700Y0268598D01*
X0029700Y0269597D02*
X0003300Y0269597D01*
X0003300Y0270595D02*
X0029700Y0270595D01*
X0029700Y0271594D02*
X0003300Y0271594D01*
X0003300Y0272592D02*
X0029700Y0272592D01*
X0029700Y0273591D02*
X0003300Y0273591D01*
X0003300Y0274589D02*
X0029700Y0274589D01*
X0029700Y0275588D02*
X0003300Y0275588D01*
X0003300Y0276586D02*
X0029700Y0276586D01*
X0029700Y0277585D02*
X0003300Y0277585D01*
X0003300Y0278583D02*
X0029700Y0278583D01*
X0029700Y0279582D02*
X0003300Y0279582D01*
X0003300Y0280580D02*
X0029700Y0280580D01*
X0029700Y0281579D02*
X0003300Y0281579D01*
X0003300Y0282577D02*
X0029700Y0282577D01*
X0029700Y0283576D02*
X0003300Y0283576D01*
X0003300Y0284574D02*
X0029700Y0284574D01*
X0029700Y0285573D02*
X0003300Y0285573D01*
X0003300Y0286571D02*
X0029700Y0286571D01*
X0029700Y0287570D02*
X0003300Y0287570D01*
X0003300Y0288568D02*
X0029700Y0288568D01*
X0029700Y0289567D02*
X0003300Y0289567D01*
X0003300Y0290565D02*
X0029700Y0290565D01*
X0029700Y0291564D02*
X0003300Y0291564D01*
X0003300Y0292562D02*
X0029700Y0292562D01*
X0029700Y0293561D02*
X0003300Y0293561D01*
X0003300Y0294559D02*
X0029700Y0294559D01*
X0029700Y0295558D02*
X0003300Y0295558D01*
X0003300Y0296556D02*
X0029700Y0296556D01*
X0029700Y0297555D02*
X0003300Y0297555D01*
X0003300Y0298553D02*
X0029700Y0298553D01*
X0029700Y0299552D02*
X0003300Y0299552D01*
X0003300Y0300550D02*
X0029700Y0300550D01*
X0029700Y0301549D02*
X0003300Y0301549D01*
X0003300Y0302547D02*
X0029700Y0302547D01*
X0029700Y0303546D02*
X0003300Y0303546D01*
X0003300Y0304544D02*
X0029700Y0304544D01*
X0029700Y0305543D02*
X0003300Y0305543D01*
X0003300Y0306541D02*
X0029700Y0306541D01*
X0029700Y0307540D02*
X0003300Y0307540D01*
X0003300Y0308539D02*
X0029700Y0308539D01*
X0022926Y0310536D02*
X0020074Y0310536D01*
X0020400Y0311534D02*
X0022600Y0311534D01*
X0022600Y0312533D02*
X0020400Y0312533D01*
X0020400Y0313531D02*
X0022600Y0313531D01*
X0022600Y0314530D02*
X0020400Y0314530D01*
X0020400Y0315528D02*
X0022600Y0315528D01*
X0022600Y0316527D02*
X0020400Y0316527D01*
X0020013Y0317525D02*
X0022987Y0317525D01*
X0040013Y0317525D02*
X0042987Y0317525D01*
X0043362Y0317900D02*
X0042600Y0317138D01*
X0042600Y0310862D01*
X0043362Y0310100D01*
X0049638Y0310100D01*
X0050400Y0310862D01*
X0050400Y0317138D01*
X0049638Y0317900D01*
X0043362Y0317900D01*
X0042600Y0316527D02*
X0040400Y0316527D01*
X0040400Y0315528D02*
X0042600Y0315528D01*
X0042600Y0314530D02*
X0040400Y0314530D01*
X0040400Y0313531D02*
X0042600Y0313531D01*
X0042600Y0312533D02*
X0040400Y0312533D01*
X0040400Y0311534D02*
X0042600Y0311534D01*
X0042926Y0310536D02*
X0040074Y0310536D01*
X0050074Y0310536D02*
X0052926Y0310536D01*
X0052600Y0311534D02*
X0050400Y0311534D01*
X0050400Y0312533D02*
X0052600Y0312533D01*
X0052600Y0313531D02*
X0050400Y0313531D01*
X0050400Y0314530D02*
X0052600Y0314530D01*
X0052600Y0315528D02*
X0050400Y0315528D01*
X0050400Y0316527D02*
X0052600Y0316527D01*
X0052987Y0317525D02*
X0050013Y0317525D01*
X0049412Y0281579D02*
X0033300Y0281579D01*
X0033300Y0280580D02*
X0048583Y0280580D01*
X0048200Y0279582D02*
X0033300Y0279582D01*
X0033300Y0278583D02*
X0048200Y0278583D01*
X0048514Y0277585D02*
X0033300Y0277585D01*
X0033300Y0276586D02*
X0049247Y0276586D01*
X0049700Y0275588D02*
X0033300Y0275588D01*
X0033300Y0274589D02*
X0049700Y0274589D01*
X0049700Y0273591D02*
X0033300Y0273591D01*
X0033300Y0272592D02*
X0049700Y0272592D01*
X0049700Y0271594D02*
X0033300Y0271594D01*
X0033300Y0270595D02*
X0049700Y0270595D01*
X0049700Y0269597D02*
X0033300Y0269597D01*
X0033300Y0268598D02*
X0049700Y0268598D01*
X0049700Y0267600D02*
X0033300Y0267600D01*
X0033300Y0266601D02*
X0049700Y0266601D01*
X0049700Y0265603D02*
X0033300Y0265603D01*
X0033300Y0264604D02*
X0049700Y0264604D01*
X0049700Y0263605D02*
X0033300Y0263605D01*
X0033300Y0262607D02*
X0049700Y0262607D01*
X0049700Y0261608D02*
X0033300Y0261608D01*
X0033300Y0260610D02*
X0049700Y0260610D01*
X0049700Y0259611D02*
X0033300Y0259611D01*
X0033300Y0258613D02*
X0049700Y0258613D01*
X0046500Y0254000D02*
X0046500Y0139000D01*
X0054000Y0131500D01*
X0057033Y0132801D02*
X0077600Y0132801D01*
X0077600Y0133799D02*
X0056368Y0133799D01*
X0056867Y0134798D02*
X0077600Y0134798D01*
X0077600Y0135796D02*
X0057280Y0135796D01*
X0057300Y0136795D02*
X0077600Y0136795D01*
X0077600Y0131802D02*
X0057300Y0131802D01*
X0057283Y0130803D02*
X0077658Y0130803D01*
X0077992Y0127808D02*
X0019306Y0127808D01*
X0019156Y0128806D02*
X0052027Y0128806D01*
X0051130Y0129805D02*
X0019006Y0129805D01*
X0018855Y0130803D02*
X0050717Y0130803D01*
X0050700Y0131802D02*
X0018705Y0131802D01*
X0018555Y0132801D02*
X0050154Y0132801D01*
X0049155Y0133799D02*
X0018404Y0133799D01*
X0018254Y0134798D02*
X0048157Y0134798D01*
X0047158Y0135796D02*
X0018104Y0135796D01*
X0017953Y0136795D02*
X0046160Y0136795D01*
X0045161Y0137793D02*
X0017803Y0137793D01*
X0017653Y0138792D02*
X0044700Y0138792D01*
X0044700Y0139790D02*
X0017502Y0139790D01*
X0017352Y0140789D02*
X0044700Y0140789D01*
X0044700Y0141787D02*
X0017202Y0141787D01*
X0017051Y0142786D02*
X0044700Y0142786D01*
X0044700Y0143784D02*
X0016901Y0143784D01*
X0016751Y0144783D02*
X0044700Y0144783D01*
X0044700Y0145781D02*
X0016601Y0145781D01*
X0016450Y0146780D02*
X0044700Y0146780D01*
X0044700Y0147778D02*
X0016300Y0147778D01*
X0016150Y0148777D02*
X0044700Y0148777D01*
X0044700Y0149775D02*
X0015999Y0149775D01*
X0015849Y0150774D02*
X0044700Y0150774D01*
X0044700Y0151772D02*
X0015699Y0151772D01*
X0015548Y0152771D02*
X0044700Y0152771D01*
X0044700Y0153769D02*
X0015398Y0153769D01*
X0015248Y0154768D02*
X0044700Y0154768D01*
X0044700Y0155766D02*
X0015097Y0155766D01*
X0014947Y0156765D02*
X0044700Y0156765D01*
X0044700Y0157763D02*
X0014797Y0157763D01*
X0014646Y0158762D02*
X0044700Y0158762D01*
X0044700Y0159760D02*
X0014496Y0159760D01*
X0014346Y0160759D02*
X0044700Y0160759D01*
X0044700Y0161757D02*
X0014196Y0161757D01*
X0014045Y0162756D02*
X0044700Y0162756D01*
X0044700Y0163754D02*
X0013895Y0163754D01*
X0013745Y0164753D02*
X0044700Y0164753D01*
X0044700Y0165751D02*
X0013594Y0165751D01*
X0013444Y0166750D02*
X0044700Y0166750D01*
X0044700Y0167748D02*
X0013294Y0167748D01*
X0013143Y0168747D02*
X0044700Y0168747D01*
X0044700Y0169745D02*
X0012993Y0169745D01*
X0012843Y0170744D02*
X0044700Y0170744D01*
X0044700Y0171742D02*
X0012692Y0171742D01*
X0012542Y0172741D02*
X0044700Y0172741D01*
X0044700Y0173739D02*
X0012392Y0173739D01*
X0012241Y0174738D02*
X0044700Y0174738D01*
X0044700Y0175737D02*
X0012091Y0175737D01*
X0011941Y0176735D02*
X0044700Y0176735D01*
X0044700Y0177734D02*
X0011790Y0177734D01*
X0011640Y0178732D02*
X0044700Y0178732D01*
X0044700Y0179731D02*
X0011490Y0179731D01*
X0011340Y0180729D02*
X0044700Y0180729D01*
X0044700Y0181728D02*
X0011189Y0181728D01*
X0011039Y0182726D02*
X0044700Y0182726D01*
X0044700Y0183725D02*
X0010889Y0183725D01*
X0010738Y0184723D02*
X0044700Y0184723D01*
X0044700Y0185722D02*
X0010588Y0185722D01*
X0010438Y0186720D02*
X0044700Y0186720D01*
X0044700Y0187719D02*
X0010287Y0187719D01*
X0010137Y0188717D02*
X0044700Y0188717D01*
X0044700Y0189716D02*
X0009987Y0189716D01*
X0009836Y0190714D02*
X0044700Y0190714D01*
X0044700Y0191713D02*
X0009686Y0191713D01*
X0009536Y0192711D02*
X0044700Y0192711D01*
X0044700Y0193710D02*
X0009385Y0193710D01*
X0009235Y0194708D02*
X0044700Y0194708D01*
X0044700Y0195707D02*
X0009085Y0195707D01*
X0008935Y0196705D02*
X0044700Y0196705D01*
X0044700Y0197704D02*
X0008784Y0197704D01*
X0008634Y0198702D02*
X0044700Y0198702D01*
X0044700Y0199701D02*
X0008484Y0199701D01*
X0008333Y0200699D02*
X0044700Y0200699D01*
X0044700Y0201698D02*
X0008183Y0201698D01*
X0008033Y0202696D02*
X0044700Y0202696D01*
X0044700Y0203695D02*
X0007882Y0203695D01*
X0007732Y0204693D02*
X0044700Y0204693D01*
X0044700Y0205692D02*
X0007582Y0205692D01*
X0007431Y0206690D02*
X0044700Y0206690D01*
X0044700Y0213680D02*
X0033987Y0213680D01*
X0033300Y0214678D02*
X0044700Y0214678D01*
X0044700Y0215677D02*
X0033300Y0215677D01*
X0033300Y0216675D02*
X0044700Y0216675D01*
X0044700Y0217674D02*
X0033300Y0217674D01*
X0033300Y0218672D02*
X0044700Y0218672D01*
X0044700Y0219671D02*
X0033300Y0219671D01*
X0033300Y0220670D02*
X0044700Y0220670D01*
X0044700Y0221668D02*
X0033300Y0221668D01*
X0033300Y0222667D02*
X0044700Y0222667D01*
X0044700Y0223665D02*
X0033300Y0223665D01*
X0033300Y0224664D02*
X0044700Y0224664D01*
X0044700Y0225662D02*
X0033300Y0225662D01*
X0033300Y0226661D02*
X0044700Y0226661D01*
X0044700Y0227659D02*
X0033300Y0227659D01*
X0033300Y0228658D02*
X0044700Y0228658D01*
X0044700Y0229656D02*
X0033300Y0229656D01*
X0033300Y0230655D02*
X0044700Y0230655D01*
X0044700Y0231653D02*
X0033300Y0231653D01*
X0033300Y0232652D02*
X0044700Y0232652D01*
X0044700Y0233650D02*
X0033300Y0233650D01*
X0033300Y0234649D02*
X0044700Y0234649D01*
X0044700Y0235647D02*
X0033300Y0235647D01*
X0033300Y0236646D02*
X0044700Y0236646D01*
X0044700Y0237644D02*
X0033300Y0237644D01*
X0033300Y0238643D02*
X0044700Y0238643D01*
X0044700Y0239641D02*
X0033300Y0239641D01*
X0033300Y0240640D02*
X0044700Y0240640D01*
X0044700Y0241638D02*
X0033300Y0241638D01*
X0033300Y0242637D02*
X0044700Y0242637D01*
X0044700Y0243635D02*
X0033300Y0243635D01*
X0033300Y0244634D02*
X0044700Y0244634D01*
X0044700Y0245632D02*
X0033300Y0245632D01*
X0033300Y0246631D02*
X0044700Y0246631D01*
X0044700Y0247629D02*
X0033300Y0247629D01*
X0033300Y0248628D02*
X0044700Y0248628D01*
X0044700Y0249626D02*
X0033300Y0249626D01*
X0039924Y0257614D02*
X0043076Y0257614D01*
X0042600Y0256616D02*
X0040400Y0256616D01*
X0040400Y0255617D02*
X0042600Y0255617D01*
X0042600Y0254619D02*
X0040400Y0254619D01*
X0040400Y0253620D02*
X0042600Y0253620D01*
X0042600Y0252622D02*
X0040400Y0252622D01*
X0040400Y0251623D02*
X0042600Y0251623D01*
X0042837Y0250625D02*
X0040163Y0250625D01*
X0056500Y0254000D02*
X0056500Y0144000D01*
X0059569Y0142786D02*
X0063431Y0142786D01*
X0063200Y0143784D02*
X0059800Y0143784D01*
X0059748Y0144783D02*
X0063252Y0144783D01*
X0063666Y0145781D02*
X0059334Y0145781D01*
X0058387Y0146780D02*
X0064613Y0146780D01*
X0064700Y0147778D02*
X0058300Y0147778D01*
X0058300Y0148777D02*
X0064700Y0148777D01*
X0064700Y0149775D02*
X0058300Y0149775D01*
X0058300Y0150774D02*
X0064700Y0150774D01*
X0064700Y0151772D02*
X0058300Y0151772D01*
X0058300Y0152771D02*
X0064700Y0152771D01*
X0064700Y0153769D02*
X0058300Y0153769D01*
X0058300Y0154768D02*
X0064700Y0154768D01*
X0064700Y0155766D02*
X0058300Y0155766D01*
X0058300Y0156765D02*
X0064700Y0156765D01*
X0064700Y0157763D02*
X0058300Y0157763D01*
X0058300Y0158762D02*
X0064700Y0158762D01*
X0064700Y0159760D02*
X0058300Y0159760D01*
X0058300Y0160759D02*
X0064700Y0160759D01*
X0064700Y0161757D02*
X0058300Y0161757D01*
X0058300Y0162756D02*
X0064700Y0162756D01*
X0064700Y0163754D02*
X0058300Y0163754D01*
X0058300Y0164753D02*
X0064700Y0164753D01*
X0064700Y0165751D02*
X0058300Y0165751D01*
X0058300Y0166750D02*
X0064700Y0166750D01*
X0064700Y0167748D02*
X0058300Y0167748D01*
X0058300Y0168747D02*
X0064700Y0168747D01*
X0064700Y0169745D02*
X0058300Y0169745D01*
X0058300Y0170744D02*
X0064700Y0170744D01*
X0064700Y0171742D02*
X0058300Y0171742D01*
X0058300Y0172741D02*
X0064700Y0172741D01*
X0064700Y0173739D02*
X0058300Y0173739D01*
X0058300Y0174738D02*
X0064700Y0174738D01*
X0064700Y0175737D02*
X0058300Y0175737D01*
X0058300Y0176735D02*
X0064700Y0176735D01*
X0064700Y0177734D02*
X0058300Y0177734D01*
X0058300Y0178732D02*
X0064700Y0178732D01*
X0064700Y0179731D02*
X0058300Y0179731D01*
X0058300Y0180729D02*
X0064700Y0180729D01*
X0064700Y0181728D02*
X0058300Y0181728D01*
X0058300Y0182726D02*
X0064700Y0182726D01*
X0064700Y0183725D02*
X0058300Y0183725D01*
X0058300Y0184723D02*
X0064700Y0184723D01*
X0064700Y0185722D02*
X0058300Y0185722D01*
X0058300Y0186720D02*
X0064700Y0186720D01*
X0064700Y0187719D02*
X0058300Y0187719D01*
X0058300Y0188717D02*
X0064700Y0188717D01*
X0064700Y0189716D02*
X0058300Y0189716D01*
X0058300Y0190714D02*
X0064700Y0190714D01*
X0064700Y0191713D02*
X0058300Y0191713D01*
X0058300Y0192711D02*
X0064700Y0192711D01*
X0064700Y0193710D02*
X0058300Y0193710D01*
X0058300Y0194708D02*
X0064700Y0194708D01*
X0064700Y0195707D02*
X0058300Y0195707D01*
X0058300Y0196705D02*
X0064700Y0196705D01*
X0064700Y0197704D02*
X0058300Y0197704D01*
X0058300Y0198702D02*
X0064700Y0198702D01*
X0064700Y0199701D02*
X0058300Y0199701D01*
X0058300Y0200699D02*
X0064700Y0200699D01*
X0064700Y0201698D02*
X0058300Y0201698D01*
X0058300Y0202696D02*
X0064700Y0202696D01*
X0064700Y0203695D02*
X0058300Y0203695D01*
X0058300Y0204693D02*
X0064700Y0204693D01*
X0064700Y0205692D02*
X0058300Y0205692D01*
X0058300Y0206690D02*
X0064700Y0206690D01*
X0064700Y0207689D02*
X0058300Y0207689D01*
X0058300Y0208687D02*
X0064700Y0208687D01*
X0064700Y0209686D02*
X0058300Y0209686D01*
X0058300Y0210684D02*
X0064700Y0210684D01*
X0064700Y0211683D02*
X0058300Y0211683D01*
X0058300Y0212681D02*
X0064700Y0212681D01*
X0064700Y0213680D02*
X0058300Y0213680D01*
X0058300Y0214678D02*
X0064700Y0214678D01*
X0064700Y0215677D02*
X0058300Y0215677D01*
X0058300Y0216675D02*
X0064700Y0216675D01*
X0064700Y0217674D02*
X0058300Y0217674D01*
X0058300Y0218672D02*
X0064700Y0218672D01*
X0064700Y0219671D02*
X0058300Y0219671D01*
X0058300Y0220670D02*
X0064700Y0220670D01*
X0064700Y0221668D02*
X0058300Y0221668D01*
X0058300Y0222667D02*
X0064700Y0222667D01*
X0064700Y0223665D02*
X0058300Y0223665D01*
X0058300Y0224664D02*
X0064700Y0224664D01*
X0064700Y0225662D02*
X0058300Y0225662D01*
X0058300Y0226661D02*
X0064700Y0226661D01*
X0064700Y0227659D02*
X0058300Y0227659D01*
X0058300Y0228658D02*
X0064700Y0228658D01*
X0064700Y0229656D02*
X0058300Y0229656D01*
X0058300Y0230655D02*
X0064700Y0230655D01*
X0064700Y0231653D02*
X0058300Y0231653D01*
X0058300Y0232652D02*
X0064700Y0232652D01*
X0064700Y0233650D02*
X0058300Y0233650D01*
X0058300Y0234649D02*
X0064700Y0234649D01*
X0064700Y0235647D02*
X0058300Y0235647D01*
X0058300Y0236646D02*
X0064700Y0236646D01*
X0064700Y0237644D02*
X0058300Y0237644D01*
X0058300Y0238643D02*
X0064700Y0238643D01*
X0064700Y0239641D02*
X0058300Y0239641D01*
X0058300Y0240640D02*
X0064700Y0240640D01*
X0064700Y0241638D02*
X0058300Y0241638D01*
X0058300Y0242637D02*
X0064700Y0242637D01*
X0064700Y0243635D02*
X0058300Y0243635D01*
X0058300Y0244634D02*
X0064700Y0244634D01*
X0064700Y0245632D02*
X0058300Y0245632D01*
X0058300Y0246631D02*
X0064700Y0246631D01*
X0064700Y0247629D02*
X0058300Y0247629D01*
X0058300Y0248628D02*
X0064700Y0248628D01*
X0064700Y0249626D02*
X0058300Y0249626D01*
X0060163Y0250625D02*
X0062837Y0250625D01*
X0062600Y0251623D02*
X0060400Y0251623D01*
X0060400Y0252622D02*
X0062600Y0252622D01*
X0062600Y0253620D02*
X0060400Y0253620D01*
X0060400Y0254619D02*
X0062600Y0254619D01*
X0062600Y0255617D02*
X0060400Y0255617D01*
X0060400Y0256616D02*
X0062600Y0256616D01*
X0063076Y0257614D02*
X0059924Y0257614D01*
X0066500Y0254000D02*
X0066500Y0144000D01*
X0064046Y0141787D02*
X0058954Y0141787D01*
X0057370Y0140789D02*
X0065630Y0140789D01*
X0067370Y0140789D02*
X0069700Y0140789D01*
X0069700Y0141787D02*
X0068954Y0141787D01*
X0069569Y0142786D02*
X0069700Y0142786D01*
X0070664Y0139790D02*
X0054680Y0139790D01*
X0053320Y0139790D02*
X0053300Y0139790D01*
X0053300Y0140789D02*
X0055630Y0140789D01*
X0054046Y0141787D02*
X0053300Y0141787D01*
X0053300Y0142786D02*
X0053431Y0142786D01*
X0051500Y0139000D02*
X0051500Y0279000D01*
X0076500Y0254000D02*
X0076500Y0246500D01*
X0079000Y0244000D01*
X0093300Y0243635D02*
X0094700Y0243635D01*
X0094700Y0242637D02*
X0093300Y0242637D01*
X0093300Y0241638D02*
X0094700Y0241638D01*
X0094700Y0240640D02*
X0093300Y0240640D01*
X0093300Y0239641D02*
X0094700Y0239641D01*
X0094700Y0238643D02*
X0093300Y0238643D01*
X0093300Y0237644D02*
X0094700Y0237644D01*
X0094700Y0236646D02*
X0093300Y0236646D01*
X0093300Y0235647D02*
X0094700Y0235647D01*
X0094700Y0234649D02*
X0093300Y0234649D01*
X0093300Y0233650D02*
X0094700Y0233650D01*
X0094700Y0232652D02*
X0093300Y0232652D01*
X0093300Y0231653D02*
X0094700Y0231653D01*
X0094700Y0230655D02*
X0093300Y0230655D01*
X0093300Y0229656D02*
X0094700Y0229656D01*
X0094700Y0228658D02*
X0093300Y0228658D01*
X0093300Y0227659D02*
X0094700Y0227659D01*
X0094700Y0226661D02*
X0093300Y0226661D01*
X0093300Y0225662D02*
X0094700Y0225662D01*
X0094700Y0224664D02*
X0093300Y0224664D01*
X0093300Y0223665D02*
X0094700Y0223665D01*
X0094700Y0222667D02*
X0093300Y0222667D01*
X0093300Y0221668D02*
X0094700Y0221668D01*
X0094700Y0220670D02*
X0093300Y0220670D01*
X0093300Y0219671D02*
X0094700Y0219671D01*
X0094700Y0218672D02*
X0093300Y0218672D01*
X0093300Y0217674D02*
X0094700Y0217674D01*
X0094700Y0216675D02*
X0093300Y0216675D01*
X0093300Y0215677D02*
X0094700Y0215677D01*
X0094700Y0214678D02*
X0093300Y0214678D01*
X0093300Y0213680D02*
X0094700Y0213680D01*
X0094700Y0212681D02*
X0093300Y0212681D01*
X0093300Y0211683D02*
X0094700Y0211683D01*
X0094700Y0210684D02*
X0093300Y0210684D01*
X0093300Y0209686D02*
X0094700Y0209686D01*
X0094700Y0208687D02*
X0093300Y0208687D01*
X0093300Y0207689D02*
X0094700Y0207689D01*
X0094700Y0206690D02*
X0093300Y0206690D01*
X0093300Y0205692D02*
X0094700Y0205692D01*
X0094700Y0204693D02*
X0093300Y0204693D01*
X0093300Y0203695D02*
X0094700Y0203695D01*
X0094700Y0202696D02*
X0093300Y0202696D01*
X0093300Y0201698D02*
X0094700Y0201698D01*
X0094700Y0200699D02*
X0093300Y0200699D01*
X0093300Y0199701D02*
X0094700Y0199701D01*
X0094700Y0198702D02*
X0093300Y0198702D01*
X0093300Y0197704D02*
X0094700Y0197704D01*
X0094700Y0196705D02*
X0093300Y0196705D01*
X0093300Y0195707D02*
X0094700Y0195707D01*
X0094700Y0194708D02*
X0093300Y0194708D01*
X0093300Y0193710D02*
X0094700Y0193710D01*
X0094700Y0192711D02*
X0093300Y0192711D01*
X0093300Y0191713D02*
X0094700Y0191713D01*
X0094700Y0190714D02*
X0093300Y0190714D01*
X0093300Y0189716D02*
X0094700Y0189716D01*
X0094700Y0188717D02*
X0093300Y0188717D01*
X0093300Y0187719D02*
X0094700Y0187719D01*
X0094700Y0186720D02*
X0093300Y0186720D01*
X0093300Y0185722D02*
X0094700Y0185722D01*
X0094700Y0184723D02*
X0093300Y0184723D01*
X0093300Y0183725D02*
X0094700Y0183725D01*
X0094700Y0182726D02*
X0093300Y0182726D01*
X0093300Y0181728D02*
X0094700Y0181728D01*
X0094700Y0180729D02*
X0093300Y0180729D01*
X0093300Y0179731D02*
X0094700Y0179731D01*
X0094700Y0178732D02*
X0093300Y0178732D01*
X0093300Y0177734D02*
X0094700Y0177734D01*
X0094700Y0176735D02*
X0093300Y0176735D01*
X0093300Y0175737D02*
X0094700Y0175737D01*
X0094700Y0174738D02*
X0093300Y0174738D01*
X0093300Y0173739D02*
X0094700Y0173739D01*
X0094700Y0172741D02*
X0092787Y0172741D01*
X0091788Y0171742D02*
X0094700Y0171742D01*
X0094700Y0170744D02*
X0090790Y0170744D01*
X0089791Y0169745D02*
X0094700Y0169745D01*
X0094700Y0168747D02*
X0088793Y0168747D01*
X0087794Y0167748D02*
X0094700Y0167748D01*
X0094700Y0166750D02*
X0086795Y0166750D01*
X0085797Y0165751D02*
X0094700Y0165751D01*
X0094700Y0164753D02*
X0085400Y0164753D01*
X0096500Y0139000D02*
X0096500Y0254000D01*
X0094700Y0249626D02*
X0093300Y0249626D01*
X0093300Y0248628D02*
X0094700Y0248628D01*
X0094700Y0247629D02*
X0093300Y0247629D01*
X0093300Y0246631D02*
X0094700Y0246631D01*
X0094700Y0245632D02*
X0093300Y0245632D01*
X0093300Y0244634D02*
X0094700Y0244634D01*
X0106500Y0254000D02*
X0106500Y0139000D01*
X0141500Y0104000D01*
X0137600Y0103844D02*
X0134202Y0103844D01*
X0133203Y0104842D02*
X0137600Y0104842D01*
X0137114Y0105841D02*
X0132205Y0105841D01*
X0131206Y0106839D02*
X0136115Y0106839D01*
X0135200Y0102845D02*
X0137600Y0102845D01*
X0137600Y0101847D02*
X0136199Y0101847D01*
X0137197Y0100848D02*
X0137613Y0100848D01*
X0141500Y0094000D02*
X0096500Y0139000D01*
X0091500Y0134000D02*
X0141500Y0084000D01*
X0137600Y0083873D02*
X0090800Y0083873D01*
X0090800Y0082875D02*
X0137600Y0082875D01*
X0137600Y0081876D02*
X0090800Y0081876D01*
X0090800Y0080878D02*
X0137600Y0080878D01*
X0138344Y0077882D02*
X0090800Y0077882D01*
X0090800Y0076884D02*
X0137600Y0076884D01*
X0137600Y0075885D02*
X0090800Y0075885D01*
X0090800Y0074887D02*
X0137600Y0074887D01*
X0137600Y0073888D02*
X0090800Y0073888D01*
X0090800Y0072890D02*
X0137600Y0072890D01*
X0137600Y0071891D02*
X0090800Y0071891D01*
X0090800Y0070893D02*
X0137600Y0070893D01*
X0138362Y0067900D02*
X0137600Y0067138D01*
X0137600Y0060862D01*
X0138362Y0060100D01*
X0144638Y0060100D01*
X0145400Y0060862D01*
X0145400Y0067138D01*
X0144638Y0067900D01*
X0138362Y0067900D01*
X0138359Y0067897D02*
X0090800Y0067897D01*
X0090800Y0066899D02*
X0137600Y0066899D01*
X0137600Y0065900D02*
X0090800Y0065900D01*
X0090800Y0064902D02*
X0137600Y0064902D01*
X0137600Y0063903D02*
X0090800Y0063903D01*
X0090450Y0062905D02*
X0137600Y0062905D01*
X0137600Y0061906D02*
X0089452Y0061906D01*
X0089746Y0062200D02*
X0089746Y0062200D01*
X0088453Y0060908D02*
X0137600Y0060908D01*
X0144641Y0067897D02*
X0160977Y0067897D01*
X0160977Y0066899D02*
X0145400Y0066899D01*
X0145400Y0065900D02*
X0160977Y0065900D01*
X0160977Y0064902D02*
X0145400Y0064902D01*
X0145400Y0063903D02*
X0161220Y0063903D01*
X0161607Y0062905D02*
X0145400Y0062905D01*
X0145400Y0061906D02*
X0161994Y0061906D01*
X0162381Y0060908D02*
X0145400Y0060908D01*
X0145400Y0070893D02*
X0161916Y0070893D01*
X0162303Y0071891D02*
X0145400Y0071891D01*
X0145400Y0072890D02*
X0163085Y0072890D01*
X0163996Y0073888D02*
X0145400Y0073888D01*
X0145400Y0074887D02*
X0164906Y0074887D01*
X0166739Y0075885D02*
X0145400Y0075885D01*
X0137600Y0084872D02*
X0090800Y0084872D01*
X0090800Y0085870D02*
X0137084Y0085870D01*
X0136085Y0086869D02*
X0090800Y0086869D01*
X0084700Y0087868D02*
X0084671Y0087868D01*
X0084700Y0088866D02*
X0065800Y0088866D01*
X0065800Y0087868D02*
X0078329Y0087868D01*
X0077600Y0086869D02*
X0065800Y0086869D01*
X0065800Y0085870D02*
X0077600Y0085870D01*
X0077600Y0084872D02*
X0065800Y0084872D01*
X0065800Y0083873D02*
X0077600Y0083873D01*
X0077600Y0082875D02*
X0065800Y0082875D01*
X0065800Y0081876D02*
X0077600Y0081876D01*
X0077600Y0080878D02*
X0065800Y0080878D01*
X0065800Y0079879D02*
X0084700Y0079879D01*
X0084700Y0078881D02*
X0065800Y0078881D01*
X0062200Y0078881D02*
X0026672Y0078881D01*
X0026521Y0079879D02*
X0062200Y0079879D01*
X0062200Y0080878D02*
X0026371Y0080878D01*
X0026221Y0081876D02*
X0062200Y0081876D01*
X0062200Y0082875D02*
X0026070Y0082875D01*
X0025920Y0083873D02*
X0062200Y0083873D01*
X0062200Y0084872D02*
X0025770Y0084872D01*
X0025619Y0085870D02*
X0062200Y0085870D01*
X0062200Y0086869D02*
X0025469Y0086869D01*
X0025319Y0087868D02*
X0062200Y0087868D01*
X0062200Y0088866D02*
X0025168Y0088866D01*
X0025018Y0089865D02*
X0062200Y0089865D01*
X0062200Y0090863D02*
X0024868Y0090863D01*
X0024717Y0091862D02*
X0062200Y0091862D01*
X0062200Y0092860D02*
X0024567Y0092860D01*
X0024417Y0093859D02*
X0062200Y0093859D01*
X0062200Y0094857D02*
X0024267Y0094857D01*
X0024116Y0095856D02*
X0062200Y0095856D01*
X0062200Y0096854D02*
X0023966Y0096854D01*
X0023816Y0097853D02*
X0062200Y0097853D01*
X0062200Y0098851D02*
X0023665Y0098851D01*
X0023515Y0099850D02*
X0062200Y0099850D01*
X0062200Y0100848D02*
X0023365Y0100848D01*
X0023214Y0101847D02*
X0062200Y0101847D01*
X0062200Y0102845D02*
X0023064Y0102845D01*
X0022914Y0103844D02*
X0061611Y0103844D01*
X0060612Y0104842D02*
X0022763Y0104842D01*
X0022613Y0105841D02*
X0059614Y0105841D01*
X0058615Y0106839D02*
X0022463Y0106839D01*
X0022312Y0107838D02*
X0057617Y0107838D01*
X0056618Y0108836D02*
X0022162Y0108836D01*
X0022012Y0109835D02*
X0055620Y0109835D01*
X0054621Y0110833D02*
X0021862Y0110833D01*
X0021711Y0111832D02*
X0053623Y0111832D01*
X0052624Y0112830D02*
X0021561Y0112830D01*
X0021411Y0113829D02*
X0051626Y0113829D01*
X0050627Y0114827D02*
X0021260Y0114827D01*
X0021110Y0115826D02*
X0048040Y0115826D01*
X0046509Y0116824D02*
X0020960Y0116824D01*
X0019607Y0125811D02*
X0077400Y0125811D01*
X0077403Y0126809D02*
X0019456Y0126809D01*
X0050823Y0121817D02*
X0077400Y0121817D01*
X0077504Y0120818D02*
X0051819Y0120818D01*
X0052232Y0119820D02*
X0084700Y0119820D01*
X0084700Y0118821D02*
X0052300Y0118821D01*
X0052723Y0117823D02*
X0078284Y0117823D01*
X0077600Y0116824D02*
X0053721Y0116824D01*
X0054720Y0115826D02*
X0077600Y0115826D01*
X0077600Y0114827D02*
X0055718Y0114827D01*
X0056717Y0113829D02*
X0077600Y0113829D01*
X0077600Y0112830D02*
X0057715Y0112830D01*
X0058714Y0111832D02*
X0077600Y0111832D01*
X0077628Y0110833D02*
X0059712Y0110833D01*
X0060711Y0109835D02*
X0084700Y0109835D01*
X0084700Y0108836D02*
X0061709Y0108836D01*
X0062708Y0107838D02*
X0078299Y0107838D01*
X0077600Y0106839D02*
X0063706Y0106839D01*
X0064705Y0105841D02*
X0077600Y0105841D01*
X0077600Y0104842D02*
X0065703Y0104842D01*
X0065800Y0103844D02*
X0077600Y0103844D01*
X0077600Y0102845D02*
X0065800Y0102845D01*
X0065800Y0101847D02*
X0077600Y0101847D01*
X0077613Y0100848D02*
X0065800Y0100848D01*
X0065800Y0099850D02*
X0084700Y0099850D01*
X0084700Y0098851D02*
X0065800Y0098851D01*
X0065800Y0097853D02*
X0078314Y0097853D01*
X0077600Y0096854D02*
X0065800Y0096854D01*
X0065800Y0095856D02*
X0077600Y0095856D01*
X0077600Y0094857D02*
X0065800Y0094857D01*
X0065800Y0093859D02*
X0077600Y0093859D01*
X0077600Y0092860D02*
X0065800Y0092860D01*
X0065800Y0091862D02*
X0077600Y0091862D01*
X0077600Y0090863D02*
X0065800Y0090863D01*
X0065800Y0089865D02*
X0084700Y0089865D01*
X0084686Y0097853D02*
X0084700Y0097853D01*
X0084656Y0077882D02*
X0084700Y0077882D01*
X0086500Y0069000D02*
X0086500Y0136500D01*
X0081800Y0122815D02*
X0081200Y0122815D01*
X0081200Y0121817D02*
X0081800Y0121817D01*
X0081800Y0120818D02*
X0081200Y0120818D01*
X0072661Y0137793D02*
X0057036Y0137793D01*
X0056375Y0138792D02*
X0071663Y0138792D01*
X0054000Y0136500D02*
X0051500Y0139000D01*
X0086500Y0069000D02*
X0081500Y0064000D01*
X0086456Y0058911D02*
X0164179Y0058911D01*
X0163268Y0059909D02*
X0087455Y0059909D01*
X0090800Y0068896D02*
X0161143Y0068896D01*
X0161529Y0069894D02*
X0090800Y0069894D01*
X0081500Y0044000D02*
X0064000Y0061500D01*
X0034187Y0028955D02*
X0188857Y0028955D01*
X0188705Y0027957D02*
X0034338Y0027957D01*
X0035690Y0018970D02*
X0187338Y0018970D01*
X0187186Y0017972D02*
X0035841Y0017972D01*
X0037193Y0008985D02*
X0185818Y0008985D01*
X0185666Y0007987D02*
X0037344Y0007987D01*
X0037494Y0006988D02*
X0185514Y0006988D01*
X0185362Y0005990D02*
X0037644Y0005990D01*
X0037795Y0004991D02*
X0185211Y0004991D01*
X0185059Y0003993D02*
X0037945Y0003993D01*
X0122235Y0125811D02*
X0127143Y0125811D01*
X0126145Y0126809D02*
X0121236Y0126809D01*
X0120238Y0127808D02*
X0125146Y0127808D01*
X0124700Y0128806D02*
X0119239Y0128806D01*
X0118241Y0129805D02*
X0124700Y0129805D01*
X0124700Y0130803D02*
X0117242Y0130803D01*
X0116244Y0131802D02*
X0124700Y0131802D01*
X0124700Y0132801D02*
X0115245Y0132801D01*
X0114247Y0133799D02*
X0124700Y0133799D01*
X0124700Y0134798D02*
X0113248Y0134798D01*
X0112250Y0135796D02*
X0124700Y0135796D01*
X0124700Y0136795D02*
X0111251Y0136795D01*
X0110252Y0137793D02*
X0124700Y0137793D01*
X0124700Y0138792D02*
X0109254Y0138792D01*
X0108300Y0139790D02*
X0124700Y0139790D01*
X0124700Y0140789D02*
X0108300Y0140789D01*
X0108300Y0141787D02*
X0124700Y0141787D01*
X0124700Y0142786D02*
X0108300Y0142786D01*
X0108300Y0143784D02*
X0124700Y0143784D01*
X0124700Y0144783D02*
X0108300Y0144783D01*
X0108300Y0145781D02*
X0124700Y0145781D01*
X0124700Y0146780D02*
X0108300Y0146780D01*
X0108300Y0147778D02*
X0124700Y0147778D01*
X0124700Y0148777D02*
X0108300Y0148777D01*
X0108300Y0149775D02*
X0124700Y0149775D01*
X0124700Y0150774D02*
X0112334Y0150774D01*
X0110666Y0150774D02*
X0108300Y0150774D01*
X0108300Y0151772D02*
X0109061Y0151772D01*
X0108437Y0152771D02*
X0108300Y0152771D01*
X0111500Y0154000D02*
X0111500Y0269000D01*
X0113768Y0266601D02*
X0129055Y0266601D01*
X0128057Y0265603D02*
X0113300Y0265603D01*
X0113300Y0264604D02*
X0127058Y0264604D01*
X0126060Y0263605D02*
X0113300Y0263605D01*
X0113300Y0262607D02*
X0125061Y0262607D01*
X0124063Y0261608D02*
X0113300Y0261608D01*
X0113300Y0260610D02*
X0123064Y0260610D01*
X0122066Y0259611D02*
X0113300Y0259611D01*
X0113300Y0258613D02*
X0121067Y0258613D01*
X0120069Y0257614D02*
X0119924Y0257614D01*
X0121500Y0256500D02*
X0161500Y0296500D01*
X0162105Y0294559D02*
X0219700Y0294559D01*
X0219700Y0293561D02*
X0161106Y0293561D01*
X0160108Y0292562D02*
X0219700Y0292562D01*
X0219700Y0291564D02*
X0159109Y0291564D01*
X0158111Y0290565D02*
X0219700Y0290565D01*
X0219700Y0289567D02*
X0157112Y0289567D01*
X0156114Y0288568D02*
X0219700Y0288568D01*
X0219700Y0287570D02*
X0155115Y0287570D01*
X0154117Y0286571D02*
X0219700Y0286571D01*
X0219700Y0285573D02*
X0153118Y0285573D01*
X0152120Y0284574D02*
X0219700Y0284574D01*
X0219700Y0283576D02*
X0151121Y0283576D01*
X0150123Y0282577D02*
X0219700Y0282577D01*
X0219700Y0281579D02*
X0149124Y0281579D01*
X0148126Y0280580D02*
X0219700Y0280580D01*
X0219700Y0279582D02*
X0147127Y0279582D01*
X0146129Y0278583D02*
X0219700Y0278583D01*
X0219700Y0277585D02*
X0145130Y0277585D01*
X0144132Y0276586D02*
X0219700Y0276586D01*
X0219700Y0275588D02*
X0143133Y0275588D01*
X0142135Y0274589D02*
X0219700Y0274589D01*
X0219700Y0273591D02*
X0141136Y0273591D01*
X0140138Y0272592D02*
X0219700Y0272592D01*
X0219700Y0271594D02*
X0139139Y0271594D01*
X0138141Y0270595D02*
X0219700Y0270595D01*
X0219700Y0269597D02*
X0137142Y0269597D01*
X0136144Y0268598D02*
X0219700Y0268598D01*
X0219700Y0267600D02*
X0135145Y0267600D01*
X0134147Y0266601D02*
X0219700Y0266601D01*
X0219700Y0265603D02*
X0133148Y0265603D01*
X0132150Y0264604D02*
X0219700Y0264604D01*
X0219700Y0263605D02*
X0131151Y0263605D01*
X0130153Y0262607D02*
X0219700Y0262607D01*
X0219700Y0261608D02*
X0129154Y0261608D01*
X0128156Y0260610D02*
X0143064Y0260610D01*
X0143254Y0260800D02*
X0142200Y0259746D01*
X0139996Y0257542D01*
X0139638Y0257900D01*
X0133362Y0257900D01*
X0132600Y0257138D01*
X0132600Y0252646D01*
X0132200Y0252246D01*
X0132200Y0138254D01*
X0137600Y0132854D01*
X0137600Y0130862D01*
X0138362Y0130100D01*
X0144638Y0130100D01*
X0145400Y0130862D01*
X0145400Y0137138D01*
X0145338Y0137200D01*
X0152246Y0137200D01*
X0158300Y0143254D01*
X0158300Y0250100D01*
X0159638Y0250100D01*
X0160400Y0250862D01*
X0160400Y0257138D01*
X0160338Y0257200D01*
X0162662Y0257200D01*
X0162600Y0257138D01*
X0162600Y0250862D01*
X0163362Y0250100D01*
X0164700Y0250100D01*
X0164700Y0191826D01*
X0164631Y0191798D01*
X0163702Y0190869D01*
X0163200Y0189656D01*
X0163200Y0188344D01*
X0163702Y0187131D01*
X0164631Y0186202D01*
X0165844Y0185700D01*
X0167156Y0185700D01*
X0168369Y0186202D01*
X0169298Y0187131D01*
X0169800Y0188344D01*
X0169800Y0189656D01*
X0169298Y0190869D01*
X0168369Y0191798D01*
X0168300Y0191826D01*
X0168300Y0250100D01*
X0169638Y0250100D01*
X0170400Y0250862D01*
X0170400Y0257138D01*
X0170338Y0257200D01*
X0170754Y0257200D01*
X0172600Y0255354D01*
X0172600Y0250862D01*
X0173362Y0250100D01*
X0179638Y0250100D01*
X0180400Y0250862D01*
X0180400Y0257138D01*
X0179638Y0257900D01*
X0175146Y0257900D01*
X0172246Y0260800D01*
X0143254Y0260800D01*
X0142066Y0259611D02*
X0127157Y0259611D01*
X0126159Y0258613D02*
X0141067Y0258613D01*
X0140069Y0257614D02*
X0139924Y0257614D01*
X0141500Y0256500D02*
X0144000Y0259000D01*
X0171500Y0259000D01*
X0176500Y0254000D01*
X0180400Y0253620D02*
X0182600Y0253620D01*
X0182600Y0252622D02*
X0180400Y0252622D01*
X0180400Y0251623D02*
X0182600Y0251623D01*
X0182600Y0250862D02*
X0183362Y0250100D01*
X0184700Y0250100D01*
X0184700Y0231826D01*
X0184631Y0231798D01*
X0183702Y0230869D01*
X0183200Y0229656D01*
X0168300Y0229656D01*
X0168300Y0228658D02*
X0183200Y0228658D01*
X0183200Y0228344D02*
X0183702Y0227131D01*
X0184631Y0226202D01*
X0185844Y0225700D01*
X0187156Y0225700D01*
X0188369Y0226202D01*
X0189298Y0227131D01*
X0189800Y0228344D01*
X0189800Y0229656D01*
X0219399Y0229656D01*
X0219247Y0228658D02*
X0189800Y0228658D01*
X0189800Y0229656D02*
X0189298Y0230869D01*
X0188369Y0231798D01*
X0188300Y0231826D01*
X0188300Y0250100D01*
X0189638Y0250100D01*
X0190400Y0250862D01*
X0190400Y0257138D01*
X0189638Y0257900D01*
X0183362Y0257900D01*
X0182600Y0257138D01*
X0182600Y0250862D01*
X0182837Y0250625D02*
X0180163Y0250625D01*
X0180400Y0254619D02*
X0182600Y0254619D01*
X0182600Y0255617D02*
X0180400Y0255617D01*
X0180400Y0256616D02*
X0182600Y0256616D01*
X0183076Y0257614D02*
X0179924Y0257614D01*
X0174433Y0258613D02*
X0219700Y0258613D01*
X0219700Y0259611D02*
X0173434Y0259611D01*
X0172436Y0260610D02*
X0219700Y0260610D01*
X0219700Y0257614D02*
X0209924Y0257614D01*
X0209638Y0257900D02*
X0210400Y0257138D01*
X0210400Y0250862D01*
X0209638Y0250100D01*
X0203362Y0250100D01*
X0202600Y0250862D01*
X0202600Y0257138D01*
X0203362Y0257900D01*
X0209638Y0257900D01*
X0210400Y0256616D02*
X0219700Y0256616D01*
X0219700Y0255617D02*
X0210400Y0255617D01*
X0210400Y0254619D02*
X0219700Y0254619D01*
X0219700Y0253620D02*
X0210400Y0253620D01*
X0210400Y0252622D02*
X0219700Y0252622D01*
X0219700Y0251623D02*
X0210400Y0251623D01*
X0210163Y0250625D02*
X0219700Y0250625D01*
X0219700Y0249626D02*
X0188300Y0249626D01*
X0188300Y0248628D02*
X0219700Y0248628D01*
X0219700Y0247629D02*
X0188300Y0247629D01*
X0188300Y0246631D02*
X0219700Y0246631D01*
X0219700Y0245632D02*
X0188300Y0245632D01*
X0188300Y0244634D02*
X0219700Y0244634D01*
X0219700Y0243635D02*
X0188300Y0243635D01*
X0188300Y0242637D02*
X0219700Y0242637D01*
X0219700Y0241638D02*
X0188300Y0241638D01*
X0188300Y0240640D02*
X0219700Y0240640D01*
X0219700Y0239641D02*
X0188300Y0239641D01*
X0188300Y0238643D02*
X0219700Y0238643D01*
X0219700Y0237644D02*
X0188300Y0237644D01*
X0188300Y0236646D02*
X0219700Y0236646D01*
X0219700Y0235647D02*
X0188300Y0235647D01*
X0188300Y0234649D02*
X0219700Y0234649D01*
X0219700Y0233650D02*
X0188300Y0233650D01*
X0188300Y0232652D02*
X0219700Y0232652D01*
X0219700Y0231653D02*
X0188514Y0231653D01*
X0189387Y0230655D02*
X0219551Y0230655D01*
X0219095Y0227659D02*
X0189516Y0227659D01*
X0188827Y0226661D02*
X0218943Y0226661D01*
X0218791Y0225662D02*
X0168300Y0225662D01*
X0168300Y0224664D02*
X0218639Y0224664D01*
X0218487Y0223665D02*
X0168300Y0223665D01*
X0168300Y0222667D02*
X0218335Y0222667D01*
X0218183Y0221668D02*
X0168300Y0221668D01*
X0168300Y0220670D02*
X0218031Y0220670D01*
X0217879Y0219671D02*
X0168300Y0219671D01*
X0168300Y0218672D02*
X0217727Y0218672D01*
X0217575Y0217674D02*
X0168300Y0217674D01*
X0168300Y0216675D02*
X0217423Y0216675D01*
X0217271Y0215677D02*
X0168300Y0215677D01*
X0168300Y0214678D02*
X0217119Y0214678D01*
X0216968Y0213680D02*
X0168300Y0213680D01*
X0168300Y0212681D02*
X0216816Y0212681D01*
X0216664Y0211683D02*
X0168300Y0211683D01*
X0168300Y0210684D02*
X0216512Y0210684D01*
X0216360Y0209686D02*
X0168300Y0209686D01*
X0168300Y0208687D02*
X0216208Y0208687D01*
X0216056Y0207689D02*
X0168300Y0207689D01*
X0168300Y0206690D02*
X0215904Y0206690D01*
X0215752Y0205692D02*
X0168300Y0205692D01*
X0168300Y0204693D02*
X0215600Y0204693D01*
X0215448Y0203695D02*
X0168300Y0203695D01*
X0168300Y0202696D02*
X0215296Y0202696D01*
X0215144Y0201698D02*
X0168300Y0201698D01*
X0168300Y0200699D02*
X0214992Y0200699D01*
X0214840Y0199701D02*
X0168300Y0199701D01*
X0168300Y0198702D02*
X0214688Y0198702D01*
X0214536Y0197704D02*
X0168300Y0197704D01*
X0168300Y0196705D02*
X0214384Y0196705D01*
X0214232Y0195707D02*
X0168300Y0195707D01*
X0168300Y0194708D02*
X0214081Y0194708D01*
X0213929Y0193710D02*
X0168300Y0193710D01*
X0168300Y0192711D02*
X0213777Y0192711D01*
X0213625Y0191713D02*
X0168454Y0191713D01*
X0169362Y0190714D02*
X0213473Y0190714D01*
X0213321Y0189716D02*
X0169775Y0189716D01*
X0169800Y0188717D02*
X0213169Y0188717D01*
X0213017Y0187719D02*
X0169541Y0187719D01*
X0168887Y0186720D02*
X0212865Y0186720D01*
X0212713Y0185722D02*
X0167209Y0185722D01*
X0165791Y0185722D02*
X0158300Y0185722D01*
X0158300Y0186720D02*
X0164113Y0186720D01*
X0163459Y0187719D02*
X0158300Y0187719D01*
X0158300Y0188717D02*
X0163200Y0188717D01*
X0163225Y0189716D02*
X0158300Y0189716D01*
X0158300Y0190714D02*
X0163638Y0190714D01*
X0164546Y0191713D02*
X0158300Y0191713D01*
X0158300Y0192711D02*
X0164700Y0192711D01*
X0164700Y0193710D02*
X0158300Y0193710D01*
X0158300Y0194708D02*
X0164700Y0194708D01*
X0164700Y0195707D02*
X0158300Y0195707D01*
X0158300Y0196705D02*
X0164700Y0196705D01*
X0164700Y0197704D02*
X0158300Y0197704D01*
X0158300Y0198702D02*
X0164700Y0198702D01*
X0164700Y0199701D02*
X0158300Y0199701D01*
X0158300Y0200699D02*
X0164700Y0200699D01*
X0164700Y0201698D02*
X0158300Y0201698D01*
X0158300Y0202696D02*
X0164700Y0202696D01*
X0164700Y0203695D02*
X0158300Y0203695D01*
X0158300Y0204693D02*
X0164700Y0204693D01*
X0164700Y0205692D02*
X0158300Y0205692D01*
X0158300Y0206690D02*
X0164700Y0206690D01*
X0164700Y0207689D02*
X0158300Y0207689D01*
X0158300Y0208687D02*
X0164700Y0208687D01*
X0164700Y0209686D02*
X0158300Y0209686D01*
X0158300Y0210684D02*
X0164700Y0210684D01*
X0164700Y0211683D02*
X0158300Y0211683D01*
X0158300Y0212681D02*
X0164700Y0212681D01*
X0164700Y0213680D02*
X0158300Y0213680D01*
X0158300Y0214678D02*
X0164700Y0214678D01*
X0164700Y0215677D02*
X0158300Y0215677D01*
X0158300Y0216675D02*
X0164700Y0216675D01*
X0164700Y0217674D02*
X0158300Y0217674D01*
X0158300Y0218672D02*
X0164700Y0218672D01*
X0164700Y0219671D02*
X0158300Y0219671D01*
X0158300Y0220670D02*
X0164700Y0220670D01*
X0164700Y0221668D02*
X0158300Y0221668D01*
X0158300Y0222667D02*
X0164700Y0222667D01*
X0164700Y0223665D02*
X0158300Y0223665D01*
X0158300Y0224664D02*
X0164700Y0224664D01*
X0164700Y0225662D02*
X0158300Y0225662D01*
X0158300Y0226661D02*
X0164700Y0226661D01*
X0164700Y0227659D02*
X0158300Y0227659D01*
X0158300Y0228658D02*
X0164700Y0228658D01*
X0164700Y0229656D02*
X0158300Y0229656D01*
X0158300Y0230655D02*
X0164700Y0230655D01*
X0164700Y0231653D02*
X0158300Y0231653D01*
X0158300Y0232652D02*
X0164700Y0232652D01*
X0164700Y0233650D02*
X0158300Y0233650D01*
X0158300Y0234649D02*
X0164700Y0234649D01*
X0164700Y0235647D02*
X0158300Y0235647D01*
X0158300Y0236646D02*
X0164700Y0236646D01*
X0164700Y0237644D02*
X0158300Y0237644D01*
X0158300Y0238643D02*
X0164700Y0238643D01*
X0164700Y0239641D02*
X0158300Y0239641D01*
X0158300Y0240640D02*
X0164700Y0240640D01*
X0164700Y0241638D02*
X0158300Y0241638D01*
X0158300Y0242637D02*
X0164700Y0242637D01*
X0164700Y0243635D02*
X0158300Y0243635D01*
X0158300Y0244634D02*
X0164700Y0244634D01*
X0164700Y0245632D02*
X0158300Y0245632D01*
X0158300Y0246631D02*
X0164700Y0246631D01*
X0164700Y0247629D02*
X0158300Y0247629D01*
X0158300Y0248628D02*
X0164700Y0248628D01*
X0164700Y0249626D02*
X0158300Y0249626D01*
X0160163Y0250625D02*
X0162837Y0250625D01*
X0162600Y0251623D02*
X0160400Y0251623D01*
X0160400Y0252622D02*
X0162600Y0252622D01*
X0162600Y0253620D02*
X0160400Y0253620D01*
X0160400Y0254619D02*
X0162600Y0254619D01*
X0162600Y0255617D02*
X0160400Y0255617D01*
X0160400Y0256616D02*
X0162600Y0256616D01*
X0166500Y0254000D02*
X0166500Y0189000D01*
X0158300Y0184723D02*
X0212561Y0184723D01*
X0212409Y0183725D02*
X0158300Y0183725D01*
X0158300Y0182726D02*
X0212257Y0182726D01*
X0212105Y0181728D02*
X0158300Y0181728D01*
X0158300Y0180729D02*
X0211953Y0180729D01*
X0211801Y0179731D02*
X0158300Y0179731D01*
X0158300Y0178732D02*
X0211649Y0178732D01*
X0211497Y0177734D02*
X0158300Y0177734D01*
X0158300Y0176735D02*
X0211345Y0176735D01*
X0211194Y0175737D02*
X0158300Y0175737D01*
X0158300Y0174738D02*
X0211042Y0174738D01*
X0210890Y0173739D02*
X0158300Y0173739D01*
X0158300Y0172741D02*
X0210738Y0172741D01*
X0210586Y0171742D02*
X0158300Y0171742D01*
X0158300Y0170744D02*
X0210434Y0170744D01*
X0210282Y0169745D02*
X0158300Y0169745D01*
X0158300Y0168747D02*
X0210130Y0168747D01*
X0209978Y0167748D02*
X0158300Y0167748D01*
X0158300Y0166750D02*
X0209826Y0166750D01*
X0209674Y0165751D02*
X0158300Y0165751D01*
X0158300Y0164753D02*
X0209522Y0164753D01*
X0209370Y0163754D02*
X0158300Y0163754D01*
X0158300Y0162756D02*
X0209218Y0162756D01*
X0209066Y0161757D02*
X0158300Y0161757D01*
X0158300Y0160759D02*
X0208914Y0160759D01*
X0208762Y0159760D02*
X0158300Y0159760D01*
X0158300Y0158762D02*
X0208610Y0158762D01*
X0208458Y0157763D02*
X0158300Y0157763D01*
X0158300Y0156765D02*
X0208307Y0156765D01*
X0208155Y0155766D02*
X0158300Y0155766D01*
X0158300Y0154768D02*
X0208003Y0154768D01*
X0207851Y0153769D02*
X0158300Y0153769D01*
X0158300Y0152771D02*
X0207699Y0152771D01*
X0207547Y0151772D02*
X0158300Y0151772D01*
X0158300Y0150774D02*
X0207395Y0150774D01*
X0207243Y0149775D02*
X0158300Y0149775D01*
X0158300Y0148777D02*
X0207091Y0148777D01*
X0206939Y0147778D02*
X0158300Y0147778D01*
X0158300Y0146780D02*
X0206787Y0146780D01*
X0206635Y0145781D02*
X0158300Y0145781D01*
X0158300Y0144783D02*
X0206483Y0144783D01*
X0206331Y0143784D02*
X0158300Y0143784D01*
X0157831Y0142786D02*
X0206179Y0142786D01*
X0206027Y0141787D02*
X0156833Y0141787D01*
X0155834Y0140789D02*
X0205875Y0140789D01*
X0205723Y0139790D02*
X0154836Y0139790D01*
X0153837Y0138792D02*
X0205571Y0138792D01*
X0205420Y0137793D02*
X0152839Y0137793D01*
X0151500Y0139000D02*
X0156500Y0144000D01*
X0156500Y0254000D01*
X0146500Y0254000D02*
X0146500Y0149000D01*
X0141500Y0144000D01*
X0139000Y0139000D02*
X0151500Y0139000D01*
X0145400Y0136795D02*
X0205268Y0136795D01*
X0205116Y0135796D02*
X0145400Y0135796D01*
X0145400Y0134798D02*
X0204964Y0134798D01*
X0204812Y0133799D02*
X0145400Y0133799D01*
X0145400Y0132801D02*
X0204660Y0132801D01*
X0204508Y0131802D02*
X0145400Y0131802D01*
X0145342Y0130803D02*
X0204356Y0130803D01*
X0204204Y0129805D02*
X0128300Y0129805D01*
X0128300Y0130803D02*
X0137658Y0130803D01*
X0137600Y0131802D02*
X0128300Y0131802D01*
X0128300Y0132801D02*
X0137600Y0132801D01*
X0136655Y0133799D02*
X0128300Y0133799D01*
X0128300Y0134798D02*
X0135657Y0134798D01*
X0134658Y0135796D02*
X0128300Y0135796D01*
X0128300Y0136795D02*
X0133660Y0136795D01*
X0132661Y0137793D02*
X0128300Y0137793D01*
X0128300Y0138792D02*
X0132200Y0138792D01*
X0132200Y0139790D02*
X0128300Y0139790D01*
X0128300Y0140789D02*
X0132200Y0140789D01*
X0132200Y0141787D02*
X0128300Y0141787D01*
X0128300Y0142786D02*
X0132200Y0142786D01*
X0132200Y0143784D02*
X0128300Y0143784D01*
X0128300Y0144783D02*
X0132200Y0144783D01*
X0132200Y0145781D02*
X0128300Y0145781D01*
X0128300Y0146780D02*
X0132200Y0146780D01*
X0132200Y0147778D02*
X0128300Y0147778D01*
X0128300Y0148777D02*
X0132200Y0148777D01*
X0132200Y0149775D02*
X0128300Y0149775D01*
X0128300Y0150774D02*
X0132200Y0150774D01*
X0132200Y0151772D02*
X0128300Y0151772D01*
X0128300Y0152771D02*
X0132200Y0152771D01*
X0132200Y0153769D02*
X0128300Y0153769D01*
X0128300Y0154768D02*
X0132200Y0154768D01*
X0132200Y0155766D02*
X0128300Y0155766D01*
X0128300Y0156765D02*
X0132200Y0156765D01*
X0132200Y0157763D02*
X0128300Y0157763D01*
X0128300Y0158762D02*
X0132200Y0158762D01*
X0132200Y0159760D02*
X0128300Y0159760D01*
X0128300Y0160759D02*
X0132200Y0160759D01*
X0132200Y0161757D02*
X0128300Y0161757D01*
X0128300Y0162756D02*
X0132200Y0162756D01*
X0132200Y0163754D02*
X0128300Y0163754D01*
X0128300Y0164753D02*
X0132200Y0164753D01*
X0132200Y0165751D02*
X0128300Y0165751D01*
X0128300Y0166750D02*
X0132200Y0166750D01*
X0132200Y0167748D02*
X0128300Y0167748D01*
X0128300Y0168747D02*
X0132200Y0168747D01*
X0132200Y0169745D02*
X0128300Y0169745D01*
X0128300Y0170744D02*
X0132200Y0170744D01*
X0132200Y0171742D02*
X0128300Y0171742D01*
X0128300Y0172741D02*
X0132200Y0172741D01*
X0132200Y0173739D02*
X0128300Y0173739D01*
X0128300Y0174738D02*
X0132200Y0174738D01*
X0132200Y0175737D02*
X0128300Y0175737D01*
X0128300Y0176735D02*
X0132200Y0176735D01*
X0132200Y0177734D02*
X0128300Y0177734D01*
X0128300Y0178732D02*
X0132200Y0178732D01*
X0132200Y0179731D02*
X0128300Y0179731D01*
X0128300Y0180729D02*
X0132200Y0180729D01*
X0132200Y0181728D02*
X0128300Y0181728D01*
X0128300Y0182726D02*
X0132200Y0182726D01*
X0132200Y0183725D02*
X0128300Y0183725D01*
X0128300Y0184723D02*
X0132200Y0184723D01*
X0132200Y0185722D02*
X0128300Y0185722D01*
X0128300Y0186720D02*
X0132200Y0186720D01*
X0132200Y0187719D02*
X0128300Y0187719D01*
X0128300Y0188717D02*
X0132200Y0188717D01*
X0132200Y0189716D02*
X0128300Y0189716D01*
X0128300Y0190714D02*
X0132200Y0190714D01*
X0132200Y0191713D02*
X0128300Y0191713D01*
X0128300Y0192711D02*
X0132200Y0192711D01*
X0132200Y0193710D02*
X0128300Y0193710D01*
X0128300Y0194708D02*
X0132200Y0194708D01*
X0132200Y0195707D02*
X0128300Y0195707D01*
X0128300Y0196705D02*
X0132200Y0196705D01*
X0132200Y0197704D02*
X0128300Y0197704D01*
X0128300Y0198702D02*
X0132200Y0198702D01*
X0132200Y0199701D02*
X0128300Y0199701D01*
X0128300Y0200699D02*
X0132200Y0200699D01*
X0132200Y0201698D02*
X0128300Y0201698D01*
X0128300Y0202696D02*
X0132200Y0202696D01*
X0132200Y0203695D02*
X0128300Y0203695D01*
X0128300Y0204693D02*
X0132200Y0204693D01*
X0132200Y0205692D02*
X0128300Y0205692D01*
X0128300Y0206690D02*
X0132200Y0206690D01*
X0132200Y0207689D02*
X0128300Y0207689D01*
X0128300Y0208687D02*
X0132200Y0208687D01*
X0132200Y0209686D02*
X0128300Y0209686D01*
X0128300Y0210684D02*
X0132200Y0210684D01*
X0132200Y0211683D02*
X0128300Y0211683D01*
X0128300Y0212681D02*
X0132200Y0212681D01*
X0132200Y0213680D02*
X0128300Y0213680D01*
X0128300Y0214678D02*
X0132200Y0214678D01*
X0132200Y0215677D02*
X0128300Y0215677D01*
X0128300Y0216675D02*
X0132200Y0216675D01*
X0132200Y0217674D02*
X0128300Y0217674D01*
X0128300Y0218672D02*
X0132200Y0218672D01*
X0132200Y0219671D02*
X0128300Y0219671D01*
X0128300Y0220670D02*
X0132200Y0220670D01*
X0132200Y0221668D02*
X0128300Y0221668D01*
X0128300Y0222667D02*
X0132200Y0222667D01*
X0132200Y0223665D02*
X0128300Y0223665D01*
X0128300Y0224664D02*
X0132200Y0224664D01*
X0132200Y0225662D02*
X0128300Y0225662D01*
X0128300Y0226661D02*
X0132200Y0226661D01*
X0132200Y0227659D02*
X0128300Y0227659D01*
X0128300Y0228658D02*
X0132200Y0228658D01*
X0132200Y0229656D02*
X0128300Y0229656D01*
X0128300Y0230655D02*
X0132200Y0230655D01*
X0132200Y0231653D02*
X0128300Y0231653D01*
X0128300Y0232652D02*
X0132200Y0232652D01*
X0132200Y0233650D02*
X0128300Y0233650D01*
X0128300Y0234649D02*
X0132200Y0234649D01*
X0132200Y0235647D02*
X0128300Y0235647D01*
X0128300Y0236646D02*
X0132200Y0236646D01*
X0132200Y0237644D02*
X0128300Y0237644D01*
X0128300Y0238643D02*
X0132200Y0238643D01*
X0132200Y0239641D02*
X0128300Y0239641D01*
X0128300Y0240640D02*
X0132200Y0240640D01*
X0132200Y0241638D02*
X0128300Y0241638D01*
X0128300Y0242637D02*
X0132200Y0242637D01*
X0132200Y0243635D02*
X0128300Y0243635D01*
X0128300Y0244634D02*
X0132200Y0244634D01*
X0132200Y0245632D02*
X0128300Y0245632D01*
X0128300Y0246631D02*
X0132200Y0246631D01*
X0132200Y0247629D02*
X0128300Y0247629D01*
X0128300Y0248628D02*
X0132200Y0248628D01*
X0132200Y0249626D02*
X0128300Y0249626D01*
X0130163Y0250625D02*
X0132200Y0250625D01*
X0132200Y0251623D02*
X0130400Y0251623D01*
X0130400Y0252622D02*
X0132576Y0252622D01*
X0132600Y0253620D02*
X0130400Y0253620D01*
X0130400Y0254619D02*
X0132600Y0254619D01*
X0132600Y0255617D02*
X0130400Y0255617D01*
X0130400Y0256616D02*
X0132600Y0256616D01*
X0133076Y0257614D02*
X0129924Y0257614D01*
X0126500Y0254000D02*
X0126500Y0129000D01*
X0131500Y0124000D01*
X0141500Y0124000D01*
X0138269Y0127808D02*
X0130238Y0127808D01*
X0131236Y0126809D02*
X0137600Y0126809D01*
X0137600Y0125811D02*
X0132235Y0125811D01*
X0130139Y0122815D02*
X0125230Y0122815D01*
X0126229Y0121817D02*
X0137600Y0121817D01*
X0137643Y0120818D02*
X0127227Y0120818D01*
X0128226Y0119820D02*
X0202684Y0119820D01*
X0202836Y0120818D02*
X0145357Y0120818D01*
X0145400Y0121817D02*
X0202988Y0121817D01*
X0203140Y0122815D02*
X0145400Y0122815D01*
X0145400Y0123814D02*
X0203292Y0123814D01*
X0203444Y0124812D02*
X0145400Y0124812D01*
X0145400Y0125811D02*
X0203596Y0125811D01*
X0203748Y0126809D02*
X0145400Y0126809D01*
X0144730Y0127808D02*
X0203900Y0127808D01*
X0204052Y0128806D02*
X0129239Y0128806D01*
X0128142Y0124812D02*
X0123233Y0124812D01*
X0124232Y0123814D02*
X0129140Y0123814D01*
X0139000Y0134000D02*
X0134000Y0139000D01*
X0134000Y0251500D01*
X0136500Y0254000D01*
X0141500Y0251500D02*
X0136500Y0246500D01*
X0136500Y0179000D01*
X0141500Y0174000D01*
X0141500Y0154000D02*
X0136500Y0149000D01*
X0136500Y0141500D01*
X0139000Y0139000D01*
X0139000Y0134000D02*
X0141500Y0134000D01*
X0124700Y0151772D02*
X0113939Y0151772D01*
X0114563Y0152771D02*
X0124700Y0152771D01*
X0124700Y0153769D02*
X0114800Y0153769D01*
X0114754Y0154768D02*
X0124700Y0154768D01*
X0124700Y0155766D02*
X0114340Y0155766D01*
X0113402Y0156765D02*
X0124700Y0156765D01*
X0124700Y0157763D02*
X0113300Y0157763D01*
X0113300Y0158762D02*
X0124700Y0158762D01*
X0124700Y0159760D02*
X0113300Y0159760D01*
X0113300Y0160759D02*
X0124700Y0160759D01*
X0124700Y0161757D02*
X0113300Y0161757D01*
X0113300Y0162756D02*
X0124700Y0162756D01*
X0124700Y0163754D02*
X0113300Y0163754D01*
X0113300Y0164753D02*
X0124700Y0164753D01*
X0124700Y0165751D02*
X0113300Y0165751D01*
X0113300Y0166750D02*
X0124700Y0166750D01*
X0124700Y0167748D02*
X0113300Y0167748D01*
X0113300Y0168747D02*
X0124700Y0168747D01*
X0124700Y0169745D02*
X0113300Y0169745D01*
X0113300Y0170744D02*
X0124700Y0170744D01*
X0124700Y0171742D02*
X0113300Y0171742D01*
X0113300Y0172741D02*
X0124700Y0172741D01*
X0124700Y0173739D02*
X0113300Y0173739D01*
X0113300Y0174738D02*
X0124700Y0174738D01*
X0124700Y0175737D02*
X0113300Y0175737D01*
X0113300Y0176735D02*
X0124700Y0176735D01*
X0124700Y0177734D02*
X0113300Y0177734D01*
X0113300Y0178732D02*
X0124700Y0178732D01*
X0124700Y0179731D02*
X0113300Y0179731D01*
X0113300Y0180729D02*
X0124700Y0180729D01*
X0124700Y0181728D02*
X0113300Y0181728D01*
X0113300Y0182726D02*
X0124700Y0182726D01*
X0124700Y0183725D02*
X0113300Y0183725D01*
X0113300Y0184723D02*
X0124700Y0184723D01*
X0124700Y0185722D02*
X0113300Y0185722D01*
X0113300Y0186720D02*
X0124700Y0186720D01*
X0124700Y0187719D02*
X0113300Y0187719D01*
X0113300Y0188717D02*
X0124700Y0188717D01*
X0124700Y0189716D02*
X0113300Y0189716D01*
X0113300Y0190714D02*
X0124700Y0190714D01*
X0124700Y0191713D02*
X0113300Y0191713D01*
X0113300Y0192711D02*
X0124700Y0192711D01*
X0124700Y0193710D02*
X0113300Y0193710D01*
X0113300Y0194708D02*
X0124700Y0194708D01*
X0124700Y0195707D02*
X0113300Y0195707D01*
X0113300Y0196705D02*
X0124700Y0196705D01*
X0124700Y0197704D02*
X0113300Y0197704D01*
X0113300Y0198702D02*
X0124700Y0198702D01*
X0124700Y0199701D02*
X0113300Y0199701D01*
X0113300Y0200699D02*
X0124700Y0200699D01*
X0124700Y0201698D02*
X0113300Y0201698D01*
X0113300Y0202696D02*
X0124700Y0202696D01*
X0124700Y0203695D02*
X0113300Y0203695D01*
X0113300Y0204693D02*
X0124700Y0204693D01*
X0124700Y0205692D02*
X0113300Y0205692D01*
X0113300Y0206690D02*
X0124700Y0206690D01*
X0124700Y0207689D02*
X0113300Y0207689D01*
X0113300Y0208687D02*
X0124700Y0208687D01*
X0124700Y0209686D02*
X0113300Y0209686D01*
X0113300Y0210684D02*
X0124700Y0210684D01*
X0124700Y0211683D02*
X0113300Y0211683D01*
X0113300Y0212681D02*
X0124700Y0212681D01*
X0124700Y0213680D02*
X0113300Y0213680D01*
X0113300Y0214678D02*
X0124700Y0214678D01*
X0124700Y0215677D02*
X0113300Y0215677D01*
X0113300Y0216675D02*
X0124700Y0216675D01*
X0124700Y0217674D02*
X0113300Y0217674D01*
X0113300Y0218672D02*
X0124700Y0218672D01*
X0124700Y0219671D02*
X0113300Y0219671D01*
X0113300Y0220670D02*
X0124700Y0220670D01*
X0124700Y0221668D02*
X0123835Y0221668D01*
X0124520Y0222667D02*
X0124700Y0222667D01*
X0121500Y0224000D02*
X0121500Y0256500D01*
X0119700Y0249626D02*
X0113300Y0249626D01*
X0113300Y0248628D02*
X0119700Y0248628D01*
X0119700Y0247629D02*
X0113300Y0247629D01*
X0113300Y0246631D02*
X0119700Y0246631D01*
X0119700Y0245632D02*
X0113300Y0245632D01*
X0113300Y0244634D02*
X0119700Y0244634D01*
X0119700Y0243635D02*
X0113300Y0243635D01*
X0113300Y0242637D02*
X0119700Y0242637D01*
X0119700Y0241638D02*
X0113300Y0241638D01*
X0113300Y0240640D02*
X0119700Y0240640D01*
X0119700Y0239641D02*
X0113300Y0239641D01*
X0113300Y0238643D02*
X0119700Y0238643D01*
X0119700Y0237644D02*
X0113300Y0237644D01*
X0113300Y0236646D02*
X0119700Y0236646D01*
X0119700Y0235647D02*
X0113300Y0235647D01*
X0113300Y0234649D02*
X0119700Y0234649D01*
X0119700Y0233650D02*
X0113300Y0233650D01*
X0113300Y0232652D02*
X0119700Y0232652D01*
X0119700Y0231653D02*
X0113300Y0231653D01*
X0113300Y0230655D02*
X0119700Y0230655D01*
X0119700Y0229656D02*
X0113300Y0229656D01*
X0113300Y0228658D02*
X0119700Y0228658D01*
X0119700Y0227659D02*
X0113300Y0227659D01*
X0113300Y0226661D02*
X0119494Y0226661D01*
X0118617Y0225662D02*
X0113300Y0225662D01*
X0113300Y0224664D02*
X0118203Y0224664D01*
X0118200Y0223665D02*
X0113300Y0223665D01*
X0113300Y0222667D02*
X0118480Y0222667D01*
X0119165Y0221668D02*
X0113300Y0221668D01*
X0141500Y0251500D02*
X0141500Y0256500D01*
X0132051Y0269597D02*
X0114800Y0269597D01*
X0114800Y0268598D02*
X0131052Y0268598D01*
X0130054Y0267600D02*
X0114492Y0267600D01*
X0114411Y0270595D02*
X0133049Y0270595D01*
X0134048Y0271594D02*
X0113573Y0271594D01*
X0168300Y0249626D02*
X0184700Y0249626D01*
X0184700Y0248628D02*
X0168300Y0248628D01*
X0168300Y0247629D02*
X0184700Y0247629D01*
X0184700Y0246631D02*
X0168300Y0246631D01*
X0168300Y0245632D02*
X0184700Y0245632D01*
X0184700Y0244634D02*
X0168300Y0244634D01*
X0168300Y0243635D02*
X0184700Y0243635D01*
X0184700Y0242637D02*
X0168300Y0242637D01*
X0168300Y0241638D02*
X0184700Y0241638D01*
X0184700Y0240640D02*
X0168300Y0240640D01*
X0168300Y0239641D02*
X0184700Y0239641D01*
X0184700Y0238643D02*
X0168300Y0238643D01*
X0168300Y0237644D02*
X0184700Y0237644D01*
X0184700Y0236646D02*
X0168300Y0236646D01*
X0168300Y0235647D02*
X0184700Y0235647D01*
X0184700Y0234649D02*
X0168300Y0234649D01*
X0168300Y0233650D02*
X0184700Y0233650D01*
X0184700Y0232652D02*
X0168300Y0232652D01*
X0168300Y0231653D02*
X0184486Y0231653D01*
X0183613Y0230655D02*
X0168300Y0230655D01*
X0168300Y0227659D02*
X0183484Y0227659D01*
X0183200Y0228344D02*
X0183200Y0229656D01*
X0184173Y0226661D02*
X0168300Y0226661D01*
X0170163Y0250625D02*
X0172837Y0250625D01*
X0172600Y0251623D02*
X0170400Y0251623D01*
X0170400Y0252622D02*
X0172600Y0252622D01*
X0172600Y0253620D02*
X0170400Y0253620D01*
X0170400Y0254619D02*
X0172600Y0254619D01*
X0172337Y0255617D02*
X0170400Y0255617D01*
X0170400Y0256616D02*
X0171338Y0256616D01*
X0186500Y0254000D02*
X0186500Y0229000D01*
X0190163Y0250625D02*
X0192837Y0250625D01*
X0192600Y0250862D02*
X0193362Y0250100D01*
X0199638Y0250100D01*
X0200400Y0250862D01*
X0200400Y0257138D01*
X0199638Y0257900D01*
X0193362Y0257900D01*
X0192600Y0257138D01*
X0192600Y0250862D01*
X0192600Y0251623D02*
X0190400Y0251623D01*
X0190400Y0252622D02*
X0192600Y0252622D01*
X0192600Y0253620D02*
X0190400Y0253620D01*
X0190400Y0254619D02*
X0192600Y0254619D01*
X0192600Y0255617D02*
X0190400Y0255617D01*
X0190400Y0256616D02*
X0192600Y0256616D01*
X0193076Y0257614D02*
X0189924Y0257614D01*
X0199924Y0257614D02*
X0203076Y0257614D01*
X0202600Y0256616D02*
X0200400Y0256616D01*
X0200400Y0255617D02*
X0202600Y0255617D01*
X0202600Y0254619D02*
X0200400Y0254619D01*
X0200400Y0253620D02*
X0202600Y0253620D01*
X0202600Y0252622D02*
X0200400Y0252622D01*
X0200400Y0251623D02*
X0202600Y0251623D01*
X0202837Y0250625D02*
X0200163Y0250625D01*
X0183103Y0295558D02*
X0219700Y0295558D01*
X0219700Y0296556D02*
X0184102Y0296556D01*
X0185100Y0297555D02*
X0219700Y0297555D01*
X0219700Y0298553D02*
X0186099Y0298553D01*
X0187097Y0299552D02*
X0219700Y0299552D01*
X0219700Y0300550D02*
X0188096Y0300550D01*
X0184700Y0305543D02*
X0184433Y0305543D01*
X0184700Y0306541D02*
X0183625Y0306541D01*
X0190074Y0310536D02*
X0192926Y0310536D01*
X0192600Y0310862D02*
X0193362Y0310100D01*
X0199638Y0310100D01*
X0200400Y0310862D01*
X0200400Y0317138D01*
X0199638Y0317900D01*
X0193362Y0317900D01*
X0192600Y0317138D01*
X0192600Y0310862D01*
X0192600Y0311534D02*
X0190400Y0311534D01*
X0190400Y0312533D02*
X0192600Y0312533D01*
X0192600Y0313531D02*
X0190400Y0313531D01*
X0190400Y0314530D02*
X0192600Y0314530D01*
X0192600Y0315528D02*
X0190400Y0315528D01*
X0190400Y0316527D02*
X0192600Y0316527D01*
X0192987Y0317525D02*
X0190013Y0317525D01*
X0200013Y0317525D02*
X0202987Y0317525D01*
X0202600Y0316527D02*
X0200400Y0316527D01*
X0200400Y0315528D02*
X0202600Y0315528D01*
X0202600Y0314530D02*
X0200400Y0314530D01*
X0200400Y0313531D02*
X0202600Y0313531D01*
X0202600Y0312533D02*
X0200400Y0312533D01*
X0200400Y0311534D02*
X0202600Y0311534D01*
X0202926Y0310536D02*
X0200074Y0310536D01*
X0172926Y0310536D02*
X0170074Y0310536D01*
X0170400Y0311534D02*
X0172600Y0311534D01*
X0172600Y0312533D02*
X0170400Y0312533D01*
X0170400Y0313531D02*
X0172600Y0313531D01*
X0172600Y0314530D02*
X0170400Y0314530D01*
X0170400Y0315528D02*
X0172600Y0315528D01*
X0172600Y0316527D02*
X0170400Y0316527D01*
X0170013Y0317525D02*
X0172987Y0317525D01*
X0023076Y0257614D02*
X0019924Y0257614D01*
X0020400Y0256616D02*
X0022600Y0256616D01*
X0022600Y0255617D02*
X0020400Y0255617D01*
X0020400Y0254619D02*
X0022600Y0254619D01*
X0022600Y0253620D02*
X0020400Y0253620D01*
X0020400Y0252622D02*
X0022600Y0252622D01*
X0022600Y0251623D02*
X0020400Y0251623D01*
X0020163Y0250625D02*
X0022837Y0250625D01*
X0162398Y0060864D02*
X0162398Y0060864D01*
X0176272Y0076083D02*
X0176272Y0076083D01*
X0190073Y0036943D02*
X0145400Y0036943D01*
X0145400Y0035945D02*
X0189921Y0035945D01*
X0189769Y0034946D02*
X0145400Y0034946D01*
X0145400Y0033948D02*
X0189617Y0033948D01*
X0189465Y0032949D02*
X0145400Y0032949D01*
X0145400Y0031951D02*
X0189313Y0031951D01*
X0187034Y0016973D02*
X0145400Y0016973D01*
X0145400Y0015975D02*
X0186882Y0015975D01*
X0186730Y0014976D02*
X0145400Y0014976D01*
X0145400Y0013978D02*
X0186578Y0013978D01*
X0186426Y0012979D02*
X0145400Y0012979D01*
X0145400Y0011981D02*
X0186274Y0011981D01*
D14*
X0111500Y0154000D03*
X0066500Y0144000D03*
X0056500Y0144000D03*
X0054000Y0136500D03*
X0054000Y0131500D03*
X0049000Y0119000D03*
X0031500Y0211500D03*
X0079000Y0244000D03*
X0051500Y0279000D03*
X0111500Y0269000D03*
X0121500Y0224000D03*
X0166500Y0189000D03*
X0186500Y0229000D03*
X0181500Y0304000D03*
M02*
