G75*
%MOIN*%
%OFA0B0*%
%FSLAX25Y25*%
%IPPOS*%
%LPD*%
%AMOC8*
5,1,8,0,0,1.08239X$1,22.5*
%
%ADD10C,0.00400*%
%ADD11C,0.00000*%
%ADD12C,0.00500*%
%ADD13C,0.00600*%
%ADD14C,0.00800*%
%ADD15C,0.01000*%
D10*
X0108696Y0052467D02*
X0109463Y0051700D01*
X0110231Y0051700D01*
X0110998Y0052467D01*
X0110998Y0054002D01*
X0111765Y0054769D01*
X0112533Y0054769D01*
X0113300Y0054002D01*
X0113300Y0052467D01*
X0112533Y0051700D01*
X0109463Y0054769D02*
X0108696Y0054002D01*
X0108696Y0052467D01*
X0110998Y0056304D02*
X0112533Y0056304D01*
X0113300Y0057071D01*
X0113300Y0058606D01*
X0112533Y0059373D01*
X0110998Y0059373D01*
X0110231Y0058606D01*
X0110231Y0057071D01*
X0110998Y0056304D01*
X0110998Y0060908D02*
X0112533Y0060908D01*
X0113300Y0061675D01*
X0113300Y0063977D01*
X0113300Y0065512D02*
X0108696Y0065512D01*
X0110231Y0063977D02*
X0110231Y0061675D01*
X0110998Y0060908D01*
X0111765Y0065512D02*
X0110231Y0067814D01*
X0110998Y0069348D02*
X0110231Y0070116D01*
X0110231Y0071650D01*
X0110998Y0072418D01*
X0111765Y0072418D01*
X0111765Y0069348D01*
X0110998Y0069348D02*
X0112533Y0069348D01*
X0113300Y0070116D01*
X0113300Y0071650D01*
X0112533Y0074720D02*
X0109463Y0074720D01*
X0110231Y0075487D02*
X0110231Y0073952D01*
X0112533Y0074720D02*
X0113300Y0075487D01*
X0110998Y0081626D02*
X0110998Y0083160D01*
X0110998Y0084695D02*
X0112533Y0084695D01*
X0113300Y0085462D01*
X0113300Y0086997D01*
X0112533Y0087764D01*
X0110998Y0087764D01*
X0110231Y0086997D01*
X0110231Y0085462D01*
X0110998Y0084695D01*
X0109463Y0082393D02*
X0108696Y0083160D01*
X0109463Y0082393D02*
X0113300Y0082393D01*
X0113300Y0089299D02*
X0110231Y0089299D01*
X0110231Y0090833D02*
X0110231Y0091601D01*
X0110231Y0090833D02*
X0111765Y0089299D01*
X0110998Y0097739D02*
X0110998Y0099274D01*
X0108696Y0097739D02*
X0108696Y0100809D01*
X0110998Y0102343D02*
X0108696Y0104645D01*
X0113300Y0104645D01*
X0113300Y0106947D02*
X0108696Y0110016D01*
X0108696Y0111551D02*
X0108696Y0114620D01*
X0108696Y0116155D02*
X0110231Y0117690D01*
X0108696Y0119224D01*
X0113300Y0119224D01*
X0113300Y0120759D02*
X0108696Y0120759D01*
X0108696Y0123061D01*
X0109463Y0123828D01*
X0110998Y0123828D01*
X0111765Y0123061D01*
X0111765Y0120759D01*
X0113300Y0116155D02*
X0108696Y0116155D01*
X0110998Y0113086D02*
X0110998Y0111551D01*
X0113300Y0111551D02*
X0108696Y0111551D01*
X0110998Y0105412D02*
X0110998Y0102343D01*
X0113300Y0097739D02*
X0108696Y0097739D01*
X0110231Y0125363D02*
X0108696Y0126897D01*
X0110231Y0128432D01*
X0113300Y0128432D01*
X0112533Y0129967D02*
X0113300Y0130734D01*
X0113300Y0132269D01*
X0112533Y0133036D01*
X0112533Y0129967D02*
X0109463Y0129967D01*
X0108696Y0130734D01*
X0108696Y0132269D01*
X0109463Y0133036D01*
X0110998Y0128432D02*
X0110998Y0125363D01*
X0110231Y0125363D02*
X0113300Y0125363D01*
X0113300Y0139175D02*
X0108696Y0139175D01*
X0108696Y0141477D01*
X0109463Y0142244D01*
X0110231Y0142244D01*
X0110998Y0141477D01*
X0110998Y0139175D01*
X0110998Y0141477D02*
X0111765Y0142244D01*
X0112533Y0142244D01*
X0113300Y0141477D01*
X0113300Y0139175D01*
X0112533Y0143778D02*
X0110998Y0143778D01*
X0110231Y0144546D01*
X0110231Y0146080D01*
X0110998Y0146848D01*
X0112533Y0146848D01*
X0113300Y0146080D01*
X0113300Y0144546D01*
X0112533Y0143778D01*
X0112533Y0148382D02*
X0111765Y0149150D01*
X0111765Y0151452D01*
X0110998Y0151452D02*
X0113300Y0151452D01*
X0113300Y0149150D01*
X0112533Y0148382D01*
X0110231Y0149150D02*
X0110231Y0150684D01*
X0110998Y0151452D01*
X0110231Y0152986D02*
X0113300Y0152986D01*
X0111765Y0152986D02*
X0110231Y0154521D01*
X0110231Y0155288D01*
X0110998Y0156823D02*
X0110231Y0157590D01*
X0110231Y0159892D01*
X0108696Y0159892D02*
X0113300Y0159892D01*
X0113300Y0157590D01*
X0112533Y0156823D01*
X0110998Y0156823D01*
X0113300Y0067814D02*
X0111765Y0065512D01*
X0181696Y0121700D02*
X0184765Y0121700D01*
X0186300Y0123235D01*
X0184765Y0124769D01*
X0181696Y0124769D01*
X0183998Y0126304D02*
X0183231Y0127071D01*
X0183231Y0128606D01*
X0183998Y0129373D01*
X0184765Y0129373D01*
X0184765Y0126304D01*
X0183998Y0126304D02*
X0185533Y0126304D01*
X0186300Y0127071D01*
X0186300Y0128606D01*
X0186300Y0130908D02*
X0183231Y0130908D01*
X0184765Y0130908D02*
X0183231Y0132442D01*
X0183231Y0133210D01*
X0183998Y0134744D02*
X0183231Y0135512D01*
X0183231Y0137814D01*
X0183231Y0139348D02*
X0183231Y0140116D01*
X0186300Y0140116D01*
X0186300Y0140883D02*
X0186300Y0139348D01*
X0185533Y0137814D02*
X0184765Y0137046D01*
X0184765Y0135512D01*
X0183998Y0134744D01*
X0186300Y0134744D02*
X0186300Y0137046D01*
X0185533Y0137814D01*
X0185533Y0142418D02*
X0183998Y0142418D01*
X0183231Y0143185D01*
X0183231Y0144720D01*
X0183998Y0145487D01*
X0185533Y0145487D01*
X0186300Y0144720D01*
X0186300Y0143185D01*
X0185533Y0142418D01*
X0186300Y0147022D02*
X0183231Y0147022D01*
X0183231Y0149324D01*
X0183998Y0150091D01*
X0186300Y0150091D01*
X0186300Y0156229D02*
X0186300Y0159299D01*
X0186300Y0160833D02*
X0186300Y0161601D01*
X0185533Y0161601D01*
X0185533Y0160833D01*
X0186300Y0160833D01*
X0185533Y0163135D02*
X0182463Y0166205D01*
X0185533Y0166205D01*
X0186300Y0165437D01*
X0186300Y0163903D01*
X0185533Y0163135D01*
X0182463Y0163135D01*
X0181696Y0163903D01*
X0181696Y0165437D01*
X0182463Y0166205D01*
X0181696Y0157764D02*
X0186300Y0157764D01*
X0183231Y0156229D02*
X0181696Y0157764D01*
X0181696Y0140116D02*
X0180929Y0140116D01*
X0170263Y0283700D02*
X0170263Y0286769D01*
X0170263Y0285235D02*
X0171798Y0286769D01*
X0172565Y0286769D01*
X0168729Y0286002D02*
X0168729Y0284467D01*
X0167961Y0283700D01*
X0166427Y0283700D01*
X0165660Y0284467D01*
X0165660Y0286002D01*
X0166427Y0286769D01*
X0167961Y0286769D01*
X0168729Y0286002D01*
X0164125Y0286769D02*
X0162590Y0286769D01*
X0163358Y0287537D02*
X0163358Y0284467D01*
X0164125Y0283700D01*
X0161056Y0283700D02*
X0158754Y0283700D01*
X0157986Y0284467D01*
X0157986Y0286002D01*
X0158754Y0286769D01*
X0161056Y0286769D01*
X0156452Y0286002D02*
X0156452Y0285235D01*
X0153382Y0285235D01*
X0153382Y0286002D02*
X0153382Y0284467D01*
X0154150Y0283700D01*
X0155684Y0283700D01*
X0156452Y0286002D02*
X0155684Y0286769D01*
X0154150Y0286769D01*
X0153382Y0286002D01*
X0151848Y0286002D02*
X0151848Y0283700D01*
X0151848Y0286002D02*
X0151080Y0286769D01*
X0148778Y0286769D01*
X0148778Y0283700D01*
X0147244Y0283700D02*
X0147244Y0286002D01*
X0146477Y0286769D01*
X0144175Y0286769D01*
X0144175Y0283700D01*
X0142640Y0284467D02*
X0142640Y0286002D01*
X0141873Y0286769D01*
X0140338Y0286769D01*
X0139571Y0286002D01*
X0139571Y0284467D01*
X0140338Y0283700D01*
X0141873Y0283700D01*
X0142640Y0284467D01*
X0138036Y0284467D02*
X0137269Y0283700D01*
X0135734Y0283700D01*
X0134967Y0284467D01*
X0134967Y0287537D01*
X0135734Y0288304D01*
X0137269Y0288304D01*
X0138036Y0287537D01*
X0128828Y0288304D02*
X0128828Y0283700D01*
X0126526Y0283700D01*
X0125759Y0284467D01*
X0125759Y0286002D01*
X0126526Y0286769D01*
X0128828Y0286769D01*
X0124224Y0286769D02*
X0123457Y0286769D01*
X0121922Y0285235D01*
X0121922Y0286769D02*
X0121922Y0283700D01*
X0120388Y0283700D02*
X0120388Y0286002D01*
X0119620Y0286769D01*
X0118086Y0286769D01*
X0118086Y0285235D02*
X0120388Y0285235D01*
X0120388Y0283700D02*
X0118086Y0283700D01*
X0117318Y0284467D01*
X0118086Y0285235D01*
X0115784Y0286002D02*
X0115016Y0286769D01*
X0113482Y0286769D01*
X0112714Y0286002D01*
X0112714Y0284467D01*
X0113482Y0283700D01*
X0115016Y0283700D01*
X0115784Y0284467D01*
X0115784Y0286002D01*
X0111180Y0286002D02*
X0111180Y0284467D01*
X0110412Y0283700D01*
X0108110Y0283700D01*
X0108110Y0288304D01*
X0108110Y0286769D02*
X0110412Y0286769D01*
X0111180Y0286002D01*
X0106576Y0286769D02*
X0105809Y0286769D01*
X0104274Y0285235D01*
X0104274Y0286769D02*
X0104274Y0283700D01*
X0102739Y0285235D02*
X0099670Y0285235D01*
X0099670Y0286002D02*
X0099670Y0284467D01*
X0100437Y0283700D01*
X0101972Y0283700D01*
X0102739Y0285235D02*
X0102739Y0286002D01*
X0101972Y0286769D01*
X0100437Y0286769D01*
X0099670Y0286002D01*
X0098135Y0286002D02*
X0098135Y0283700D01*
X0098135Y0286002D02*
X0097368Y0286769D01*
X0095833Y0286769D01*
X0095066Y0286002D01*
X0093531Y0286769D02*
X0091997Y0286769D01*
X0092764Y0287537D02*
X0092764Y0284467D01*
X0093531Y0283700D01*
X0095066Y0283700D02*
X0095066Y0288304D01*
X0090462Y0286002D02*
X0090462Y0284467D01*
X0089695Y0283700D01*
X0088160Y0283700D01*
X0087393Y0284467D01*
X0087393Y0286002D01*
X0088160Y0286769D01*
X0089695Y0286769D01*
X0090462Y0286002D01*
X0085858Y0288304D02*
X0085858Y0283700D01*
X0082789Y0283700D02*
X0082789Y0288304D01*
X0084324Y0286769D01*
X0085858Y0288304D01*
X0076650Y0287537D02*
X0076650Y0284467D01*
X0075883Y0283700D01*
X0074348Y0283700D01*
X0073581Y0284467D01*
X0076650Y0287537D01*
X0075883Y0288304D01*
X0074348Y0288304D01*
X0073581Y0287537D01*
X0073581Y0284467D01*
X0072046Y0286002D02*
X0068977Y0286002D01*
X0071279Y0288304D01*
X0071279Y0283700D01*
X0067442Y0286002D02*
X0066675Y0285235D01*
X0064373Y0285235D01*
X0064373Y0283700D02*
X0064373Y0288304D01*
X0066675Y0288304D01*
X0067442Y0287537D01*
X0067442Y0286002D01*
X0062839Y0288304D02*
X0061304Y0288304D01*
X0062071Y0288304D02*
X0062071Y0283700D01*
X0061304Y0283700D02*
X0062839Y0283700D01*
X0059769Y0284467D02*
X0059769Y0287537D01*
X0059002Y0288304D01*
X0056700Y0288304D01*
X0056700Y0283700D01*
X0059002Y0283700D01*
X0059769Y0284467D01*
D11*
X0045594Y0066500D02*
X0045596Y0066653D01*
X0045602Y0066807D01*
X0045612Y0066960D01*
X0045626Y0067112D01*
X0045644Y0067265D01*
X0045666Y0067416D01*
X0045691Y0067567D01*
X0045721Y0067718D01*
X0045755Y0067868D01*
X0045792Y0068016D01*
X0045833Y0068164D01*
X0045878Y0068310D01*
X0045927Y0068456D01*
X0045980Y0068600D01*
X0046036Y0068742D01*
X0046096Y0068883D01*
X0046160Y0069023D01*
X0046227Y0069161D01*
X0046298Y0069297D01*
X0046373Y0069431D01*
X0046450Y0069563D01*
X0046532Y0069693D01*
X0046616Y0069821D01*
X0046704Y0069947D01*
X0046795Y0070070D01*
X0046889Y0070191D01*
X0046987Y0070309D01*
X0047087Y0070425D01*
X0047191Y0070538D01*
X0047297Y0070649D01*
X0047406Y0070757D01*
X0047518Y0070862D01*
X0047632Y0070963D01*
X0047750Y0071062D01*
X0047869Y0071158D01*
X0047991Y0071251D01*
X0048116Y0071340D01*
X0048243Y0071427D01*
X0048372Y0071509D01*
X0048503Y0071589D01*
X0048636Y0071665D01*
X0048771Y0071738D01*
X0048908Y0071807D01*
X0049047Y0071872D01*
X0049187Y0071934D01*
X0049329Y0071992D01*
X0049472Y0072047D01*
X0049617Y0072098D01*
X0049763Y0072145D01*
X0049910Y0072188D01*
X0050058Y0072227D01*
X0050207Y0072263D01*
X0050357Y0072294D01*
X0050508Y0072322D01*
X0050659Y0072346D01*
X0050812Y0072366D01*
X0050964Y0072382D01*
X0051117Y0072394D01*
X0051270Y0072402D01*
X0051423Y0072406D01*
X0051577Y0072406D01*
X0051730Y0072402D01*
X0051883Y0072394D01*
X0052036Y0072382D01*
X0052188Y0072366D01*
X0052341Y0072346D01*
X0052492Y0072322D01*
X0052643Y0072294D01*
X0052793Y0072263D01*
X0052942Y0072227D01*
X0053090Y0072188D01*
X0053237Y0072145D01*
X0053383Y0072098D01*
X0053528Y0072047D01*
X0053671Y0071992D01*
X0053813Y0071934D01*
X0053953Y0071872D01*
X0054092Y0071807D01*
X0054229Y0071738D01*
X0054364Y0071665D01*
X0054497Y0071589D01*
X0054628Y0071509D01*
X0054757Y0071427D01*
X0054884Y0071340D01*
X0055009Y0071251D01*
X0055131Y0071158D01*
X0055250Y0071062D01*
X0055368Y0070963D01*
X0055482Y0070862D01*
X0055594Y0070757D01*
X0055703Y0070649D01*
X0055809Y0070538D01*
X0055913Y0070425D01*
X0056013Y0070309D01*
X0056111Y0070191D01*
X0056205Y0070070D01*
X0056296Y0069947D01*
X0056384Y0069821D01*
X0056468Y0069693D01*
X0056550Y0069563D01*
X0056627Y0069431D01*
X0056702Y0069297D01*
X0056773Y0069161D01*
X0056840Y0069023D01*
X0056904Y0068883D01*
X0056964Y0068742D01*
X0057020Y0068600D01*
X0057073Y0068456D01*
X0057122Y0068310D01*
X0057167Y0068164D01*
X0057208Y0068016D01*
X0057245Y0067868D01*
X0057279Y0067718D01*
X0057309Y0067567D01*
X0057334Y0067416D01*
X0057356Y0067265D01*
X0057374Y0067112D01*
X0057388Y0066960D01*
X0057398Y0066807D01*
X0057404Y0066653D01*
X0057406Y0066500D01*
X0057404Y0066347D01*
X0057398Y0066193D01*
X0057388Y0066040D01*
X0057374Y0065888D01*
X0057356Y0065735D01*
X0057334Y0065584D01*
X0057309Y0065433D01*
X0057279Y0065282D01*
X0057245Y0065132D01*
X0057208Y0064984D01*
X0057167Y0064836D01*
X0057122Y0064690D01*
X0057073Y0064544D01*
X0057020Y0064400D01*
X0056964Y0064258D01*
X0056904Y0064117D01*
X0056840Y0063977D01*
X0056773Y0063839D01*
X0056702Y0063703D01*
X0056627Y0063569D01*
X0056550Y0063437D01*
X0056468Y0063307D01*
X0056384Y0063179D01*
X0056296Y0063053D01*
X0056205Y0062930D01*
X0056111Y0062809D01*
X0056013Y0062691D01*
X0055913Y0062575D01*
X0055809Y0062462D01*
X0055703Y0062351D01*
X0055594Y0062243D01*
X0055482Y0062138D01*
X0055368Y0062037D01*
X0055250Y0061938D01*
X0055131Y0061842D01*
X0055009Y0061749D01*
X0054884Y0061660D01*
X0054757Y0061573D01*
X0054628Y0061491D01*
X0054497Y0061411D01*
X0054364Y0061335D01*
X0054229Y0061262D01*
X0054092Y0061193D01*
X0053953Y0061128D01*
X0053813Y0061066D01*
X0053671Y0061008D01*
X0053528Y0060953D01*
X0053383Y0060902D01*
X0053237Y0060855D01*
X0053090Y0060812D01*
X0052942Y0060773D01*
X0052793Y0060737D01*
X0052643Y0060706D01*
X0052492Y0060678D01*
X0052341Y0060654D01*
X0052188Y0060634D01*
X0052036Y0060618D01*
X0051883Y0060606D01*
X0051730Y0060598D01*
X0051577Y0060594D01*
X0051423Y0060594D01*
X0051270Y0060598D01*
X0051117Y0060606D01*
X0050964Y0060618D01*
X0050812Y0060634D01*
X0050659Y0060654D01*
X0050508Y0060678D01*
X0050357Y0060706D01*
X0050207Y0060737D01*
X0050058Y0060773D01*
X0049910Y0060812D01*
X0049763Y0060855D01*
X0049617Y0060902D01*
X0049472Y0060953D01*
X0049329Y0061008D01*
X0049187Y0061066D01*
X0049047Y0061128D01*
X0048908Y0061193D01*
X0048771Y0061262D01*
X0048636Y0061335D01*
X0048503Y0061411D01*
X0048372Y0061491D01*
X0048243Y0061573D01*
X0048116Y0061660D01*
X0047991Y0061749D01*
X0047869Y0061842D01*
X0047750Y0061938D01*
X0047632Y0062037D01*
X0047518Y0062138D01*
X0047406Y0062243D01*
X0047297Y0062351D01*
X0047191Y0062462D01*
X0047087Y0062575D01*
X0046987Y0062691D01*
X0046889Y0062809D01*
X0046795Y0062930D01*
X0046704Y0063053D01*
X0046616Y0063179D01*
X0046532Y0063307D01*
X0046450Y0063437D01*
X0046373Y0063569D01*
X0046298Y0063703D01*
X0046227Y0063839D01*
X0046160Y0063977D01*
X0046096Y0064117D01*
X0046036Y0064258D01*
X0045980Y0064400D01*
X0045927Y0064544D01*
X0045878Y0064690D01*
X0045833Y0064836D01*
X0045792Y0064984D01*
X0045755Y0065132D01*
X0045721Y0065282D01*
X0045691Y0065433D01*
X0045666Y0065584D01*
X0045644Y0065735D01*
X0045626Y0065888D01*
X0045612Y0066040D01*
X0045602Y0066193D01*
X0045596Y0066347D01*
X0045594Y0066500D01*
X0165594Y0066500D02*
X0165596Y0066653D01*
X0165602Y0066807D01*
X0165612Y0066960D01*
X0165626Y0067112D01*
X0165644Y0067265D01*
X0165666Y0067416D01*
X0165691Y0067567D01*
X0165721Y0067718D01*
X0165755Y0067868D01*
X0165792Y0068016D01*
X0165833Y0068164D01*
X0165878Y0068310D01*
X0165927Y0068456D01*
X0165980Y0068600D01*
X0166036Y0068742D01*
X0166096Y0068883D01*
X0166160Y0069023D01*
X0166227Y0069161D01*
X0166298Y0069297D01*
X0166373Y0069431D01*
X0166450Y0069563D01*
X0166532Y0069693D01*
X0166616Y0069821D01*
X0166704Y0069947D01*
X0166795Y0070070D01*
X0166889Y0070191D01*
X0166987Y0070309D01*
X0167087Y0070425D01*
X0167191Y0070538D01*
X0167297Y0070649D01*
X0167406Y0070757D01*
X0167518Y0070862D01*
X0167632Y0070963D01*
X0167750Y0071062D01*
X0167869Y0071158D01*
X0167991Y0071251D01*
X0168116Y0071340D01*
X0168243Y0071427D01*
X0168372Y0071509D01*
X0168503Y0071589D01*
X0168636Y0071665D01*
X0168771Y0071738D01*
X0168908Y0071807D01*
X0169047Y0071872D01*
X0169187Y0071934D01*
X0169329Y0071992D01*
X0169472Y0072047D01*
X0169617Y0072098D01*
X0169763Y0072145D01*
X0169910Y0072188D01*
X0170058Y0072227D01*
X0170207Y0072263D01*
X0170357Y0072294D01*
X0170508Y0072322D01*
X0170659Y0072346D01*
X0170812Y0072366D01*
X0170964Y0072382D01*
X0171117Y0072394D01*
X0171270Y0072402D01*
X0171423Y0072406D01*
X0171577Y0072406D01*
X0171730Y0072402D01*
X0171883Y0072394D01*
X0172036Y0072382D01*
X0172188Y0072366D01*
X0172341Y0072346D01*
X0172492Y0072322D01*
X0172643Y0072294D01*
X0172793Y0072263D01*
X0172942Y0072227D01*
X0173090Y0072188D01*
X0173237Y0072145D01*
X0173383Y0072098D01*
X0173528Y0072047D01*
X0173671Y0071992D01*
X0173813Y0071934D01*
X0173953Y0071872D01*
X0174092Y0071807D01*
X0174229Y0071738D01*
X0174364Y0071665D01*
X0174497Y0071589D01*
X0174628Y0071509D01*
X0174757Y0071427D01*
X0174884Y0071340D01*
X0175009Y0071251D01*
X0175131Y0071158D01*
X0175250Y0071062D01*
X0175368Y0070963D01*
X0175482Y0070862D01*
X0175594Y0070757D01*
X0175703Y0070649D01*
X0175809Y0070538D01*
X0175913Y0070425D01*
X0176013Y0070309D01*
X0176111Y0070191D01*
X0176205Y0070070D01*
X0176296Y0069947D01*
X0176384Y0069821D01*
X0176468Y0069693D01*
X0176550Y0069563D01*
X0176627Y0069431D01*
X0176702Y0069297D01*
X0176773Y0069161D01*
X0176840Y0069023D01*
X0176904Y0068883D01*
X0176964Y0068742D01*
X0177020Y0068600D01*
X0177073Y0068456D01*
X0177122Y0068310D01*
X0177167Y0068164D01*
X0177208Y0068016D01*
X0177245Y0067868D01*
X0177279Y0067718D01*
X0177309Y0067567D01*
X0177334Y0067416D01*
X0177356Y0067265D01*
X0177374Y0067112D01*
X0177388Y0066960D01*
X0177398Y0066807D01*
X0177404Y0066653D01*
X0177406Y0066500D01*
X0177404Y0066347D01*
X0177398Y0066193D01*
X0177388Y0066040D01*
X0177374Y0065888D01*
X0177356Y0065735D01*
X0177334Y0065584D01*
X0177309Y0065433D01*
X0177279Y0065282D01*
X0177245Y0065132D01*
X0177208Y0064984D01*
X0177167Y0064836D01*
X0177122Y0064690D01*
X0177073Y0064544D01*
X0177020Y0064400D01*
X0176964Y0064258D01*
X0176904Y0064117D01*
X0176840Y0063977D01*
X0176773Y0063839D01*
X0176702Y0063703D01*
X0176627Y0063569D01*
X0176550Y0063437D01*
X0176468Y0063307D01*
X0176384Y0063179D01*
X0176296Y0063053D01*
X0176205Y0062930D01*
X0176111Y0062809D01*
X0176013Y0062691D01*
X0175913Y0062575D01*
X0175809Y0062462D01*
X0175703Y0062351D01*
X0175594Y0062243D01*
X0175482Y0062138D01*
X0175368Y0062037D01*
X0175250Y0061938D01*
X0175131Y0061842D01*
X0175009Y0061749D01*
X0174884Y0061660D01*
X0174757Y0061573D01*
X0174628Y0061491D01*
X0174497Y0061411D01*
X0174364Y0061335D01*
X0174229Y0061262D01*
X0174092Y0061193D01*
X0173953Y0061128D01*
X0173813Y0061066D01*
X0173671Y0061008D01*
X0173528Y0060953D01*
X0173383Y0060902D01*
X0173237Y0060855D01*
X0173090Y0060812D01*
X0172942Y0060773D01*
X0172793Y0060737D01*
X0172643Y0060706D01*
X0172492Y0060678D01*
X0172341Y0060654D01*
X0172188Y0060634D01*
X0172036Y0060618D01*
X0171883Y0060606D01*
X0171730Y0060598D01*
X0171577Y0060594D01*
X0171423Y0060594D01*
X0171270Y0060598D01*
X0171117Y0060606D01*
X0170964Y0060618D01*
X0170812Y0060634D01*
X0170659Y0060654D01*
X0170508Y0060678D01*
X0170357Y0060706D01*
X0170207Y0060737D01*
X0170058Y0060773D01*
X0169910Y0060812D01*
X0169763Y0060855D01*
X0169617Y0060902D01*
X0169472Y0060953D01*
X0169329Y0061008D01*
X0169187Y0061066D01*
X0169047Y0061128D01*
X0168908Y0061193D01*
X0168771Y0061262D01*
X0168636Y0061335D01*
X0168503Y0061411D01*
X0168372Y0061491D01*
X0168243Y0061573D01*
X0168116Y0061660D01*
X0167991Y0061749D01*
X0167869Y0061842D01*
X0167750Y0061938D01*
X0167632Y0062037D01*
X0167518Y0062138D01*
X0167406Y0062243D01*
X0167297Y0062351D01*
X0167191Y0062462D01*
X0167087Y0062575D01*
X0166987Y0062691D01*
X0166889Y0062809D01*
X0166795Y0062930D01*
X0166704Y0063053D01*
X0166616Y0063179D01*
X0166532Y0063307D01*
X0166450Y0063437D01*
X0166373Y0063569D01*
X0166298Y0063703D01*
X0166227Y0063839D01*
X0166160Y0063977D01*
X0166096Y0064117D01*
X0166036Y0064258D01*
X0165980Y0064400D01*
X0165927Y0064544D01*
X0165878Y0064690D01*
X0165833Y0064836D01*
X0165792Y0064984D01*
X0165755Y0065132D01*
X0165721Y0065282D01*
X0165691Y0065433D01*
X0165666Y0065584D01*
X0165644Y0065735D01*
X0165626Y0065888D01*
X0165612Y0066040D01*
X0165602Y0066193D01*
X0165596Y0066347D01*
X0165594Y0066500D01*
X0221500Y0323961D02*
X0221500Y0326500D01*
D12*
X0173750Y0209390D02*
X0167645Y0209390D01*
X0169680Y0209390D02*
X0169680Y0206337D01*
X0170697Y0205320D01*
X0172732Y0205320D01*
X0173750Y0206337D01*
X0173750Y0209390D01*
X0169680Y0203308D02*
X0169680Y0202290D01*
X0171715Y0200255D01*
X0171715Y0198248D02*
X0171715Y0195196D01*
X0172732Y0194178D01*
X0173750Y0195196D01*
X0173750Y0198248D01*
X0170697Y0198248D01*
X0169680Y0197231D01*
X0169680Y0195196D01*
X0170697Y0192171D02*
X0169680Y0191153D01*
X0169680Y0189118D01*
X0170697Y0188101D01*
X0172732Y0188101D01*
X0173750Y0189118D01*
X0173750Y0191153D01*
X0172732Y0192171D01*
X0170697Y0192171D01*
X0169680Y0186094D02*
X0168662Y0186094D01*
X0167645Y0185076D01*
X0167645Y0182024D01*
X0173750Y0182024D01*
X0173750Y0185076D01*
X0172732Y0186094D01*
X0171715Y0186094D01*
X0170697Y0185076D01*
X0170697Y0182024D01*
X0170697Y0185076D02*
X0169680Y0186094D01*
X0169680Y0173935D02*
X0169680Y0172917D01*
X0171715Y0170882D01*
X0171715Y0168875D02*
X0170697Y0168875D01*
X0169680Y0167858D01*
X0169680Y0165822D01*
X0170697Y0164805D01*
X0172732Y0164805D01*
X0173750Y0165822D01*
X0173750Y0167858D01*
X0171715Y0168875D02*
X0171715Y0164805D01*
X0173750Y0162789D02*
X0172732Y0161771D01*
X0168662Y0161771D01*
X0169680Y0160753D02*
X0169680Y0162789D01*
X0170697Y0158746D02*
X0172732Y0158746D01*
X0173750Y0157729D01*
X0173750Y0154676D01*
X0173750Y0152669D02*
X0170697Y0152669D01*
X0169680Y0151652D01*
X0169680Y0149617D01*
X0171715Y0149617D02*
X0171715Y0152669D01*
X0173750Y0152669D02*
X0173750Y0149617D01*
X0172732Y0148599D01*
X0171715Y0149617D01*
X0173750Y0146592D02*
X0173750Y0143539D01*
X0172732Y0142522D01*
X0170697Y0142522D01*
X0169680Y0143539D01*
X0169680Y0146592D01*
X0167645Y0146592D02*
X0173750Y0146592D01*
X0173750Y0140515D02*
X0169680Y0140515D01*
X0167645Y0138480D01*
X0169680Y0136445D01*
X0173750Y0136445D01*
X0170697Y0136445D02*
X0170697Y0140515D01*
X0168662Y0128360D02*
X0167645Y0127343D01*
X0167645Y0125308D01*
X0168662Y0124290D01*
X0172732Y0124290D01*
X0173750Y0125308D01*
X0173750Y0127343D01*
X0172732Y0128360D01*
X0173750Y0122283D02*
X0169680Y0122283D01*
X0167645Y0120248D01*
X0169680Y0118213D01*
X0173750Y0118213D01*
X0170697Y0118213D02*
X0170697Y0122283D01*
X0170697Y0116206D02*
X0168662Y0116206D01*
X0167645Y0115189D01*
X0167645Y0112136D01*
X0173750Y0112136D01*
X0173750Y0110129D02*
X0167645Y0110129D01*
X0169680Y0108094D01*
X0167645Y0106059D01*
X0173750Y0106059D01*
X0170697Y0102017D02*
X0170697Y0099982D01*
X0167645Y0099982D02*
X0167645Y0104052D01*
X0167645Y0099982D02*
X0173750Y0099982D01*
X0173750Y0093904D02*
X0167645Y0097975D01*
X0170697Y0091897D02*
X0170697Y0087827D01*
X0167645Y0090880D01*
X0173750Y0090880D01*
X0170697Y0083785D02*
X0170697Y0081750D01*
X0167645Y0081750D02*
X0167645Y0085820D01*
X0167645Y0081750D02*
X0173750Y0081750D01*
X0171715Y0112136D02*
X0171715Y0115189D01*
X0170697Y0116206D01*
X0169680Y0154676D02*
X0169680Y0157729D01*
X0170697Y0158746D01*
X0169680Y0154676D02*
X0175785Y0154676D01*
X0173750Y0170882D02*
X0169680Y0170882D01*
X0169680Y0200255D02*
X0173750Y0200255D01*
D13*
X0138000Y0209000D02*
X0085000Y0209000D01*
X0085000Y0009000D01*
X0108000Y0009000D01*
X0108002Y0009126D01*
X0108008Y0009251D01*
X0108018Y0009376D01*
X0108032Y0009501D01*
X0108049Y0009626D01*
X0108071Y0009750D01*
X0108096Y0009873D01*
X0108126Y0009995D01*
X0108159Y0010116D01*
X0108196Y0010236D01*
X0108236Y0010355D01*
X0108281Y0010472D01*
X0108329Y0010589D01*
X0108381Y0010703D01*
X0108436Y0010816D01*
X0108495Y0010927D01*
X0108557Y0011036D01*
X0108623Y0011143D01*
X0108692Y0011248D01*
X0108764Y0011351D01*
X0108839Y0011452D01*
X0108918Y0011550D01*
X0109000Y0011645D01*
X0109084Y0011738D01*
X0109172Y0011828D01*
X0109262Y0011916D01*
X0109355Y0012000D01*
X0109450Y0012082D01*
X0109548Y0012161D01*
X0109649Y0012236D01*
X0109752Y0012308D01*
X0109857Y0012377D01*
X0109964Y0012443D01*
X0110073Y0012505D01*
X0110184Y0012564D01*
X0110297Y0012619D01*
X0110411Y0012671D01*
X0110528Y0012719D01*
X0110645Y0012764D01*
X0110764Y0012804D01*
X0110884Y0012841D01*
X0111005Y0012874D01*
X0111127Y0012904D01*
X0111250Y0012929D01*
X0111374Y0012951D01*
X0111499Y0012968D01*
X0111624Y0012982D01*
X0111749Y0012992D01*
X0111874Y0012998D01*
X0112000Y0013000D01*
X0112126Y0012998D01*
X0112251Y0012992D01*
X0112376Y0012982D01*
X0112501Y0012968D01*
X0112626Y0012951D01*
X0112750Y0012929D01*
X0112873Y0012904D01*
X0112995Y0012874D01*
X0113116Y0012841D01*
X0113236Y0012804D01*
X0113355Y0012764D01*
X0113472Y0012719D01*
X0113589Y0012671D01*
X0113703Y0012619D01*
X0113816Y0012564D01*
X0113927Y0012505D01*
X0114036Y0012443D01*
X0114143Y0012377D01*
X0114248Y0012308D01*
X0114351Y0012236D01*
X0114452Y0012161D01*
X0114550Y0012082D01*
X0114645Y0012000D01*
X0114738Y0011916D01*
X0114828Y0011828D01*
X0114916Y0011738D01*
X0115000Y0011645D01*
X0115082Y0011550D01*
X0115161Y0011452D01*
X0115236Y0011351D01*
X0115308Y0011248D01*
X0115377Y0011143D01*
X0115443Y0011036D01*
X0115505Y0010927D01*
X0115564Y0010816D01*
X0115619Y0010703D01*
X0115671Y0010589D01*
X0115719Y0010472D01*
X0115764Y0010355D01*
X0115804Y0010236D01*
X0115841Y0010116D01*
X0115874Y0009995D01*
X0115904Y0009873D01*
X0115929Y0009750D01*
X0115951Y0009626D01*
X0115968Y0009501D01*
X0115982Y0009376D01*
X0115992Y0009251D01*
X0115998Y0009126D01*
X0116000Y0009000D01*
X0138000Y0009000D01*
X0138000Y0209000D01*
X0066200Y0157602D02*
X0066200Y0155133D01*
X0064966Y0153899D01*
X0066200Y0151470D02*
X0066200Y0146533D01*
X0066200Y0149001D02*
X0058794Y0149001D01*
X0061262Y0146533D01*
X0060028Y0144104D02*
X0064966Y0139166D01*
X0066200Y0140401D01*
X0066200Y0142869D01*
X0064966Y0144104D01*
X0060028Y0144104D01*
X0058794Y0142869D01*
X0058794Y0140401D01*
X0060028Y0139166D01*
X0064966Y0139166D01*
X0066200Y0136738D02*
X0066200Y0131800D01*
X0061262Y0136738D01*
X0060028Y0136738D01*
X0058794Y0135503D01*
X0058794Y0133034D01*
X0060028Y0131800D01*
X0060028Y0153899D02*
X0061262Y0153899D01*
X0062497Y0155133D01*
X0062497Y0158836D01*
X0064966Y0158836D02*
X0060028Y0158836D01*
X0058794Y0157602D01*
X0058794Y0155133D01*
X0060028Y0153899D01*
X0064966Y0158836D02*
X0066200Y0157602D01*
X0011500Y0257500D02*
X0011500Y0279500D01*
X0011626Y0279502D01*
X0011751Y0279508D01*
X0011876Y0279518D01*
X0012001Y0279532D01*
X0012126Y0279549D01*
X0012250Y0279571D01*
X0012373Y0279596D01*
X0012495Y0279626D01*
X0012616Y0279659D01*
X0012736Y0279696D01*
X0012855Y0279736D01*
X0012972Y0279781D01*
X0013089Y0279829D01*
X0013203Y0279881D01*
X0013316Y0279936D01*
X0013427Y0279995D01*
X0013536Y0280057D01*
X0013643Y0280123D01*
X0013748Y0280192D01*
X0013851Y0280264D01*
X0013952Y0280339D01*
X0014050Y0280418D01*
X0014145Y0280500D01*
X0014238Y0280584D01*
X0014328Y0280672D01*
X0014416Y0280762D01*
X0014500Y0280855D01*
X0014582Y0280950D01*
X0014661Y0281048D01*
X0014736Y0281149D01*
X0014808Y0281252D01*
X0014877Y0281357D01*
X0014943Y0281464D01*
X0015005Y0281573D01*
X0015064Y0281684D01*
X0015119Y0281797D01*
X0015171Y0281911D01*
X0015219Y0282028D01*
X0015264Y0282145D01*
X0015304Y0282264D01*
X0015341Y0282384D01*
X0015374Y0282505D01*
X0015404Y0282627D01*
X0015429Y0282750D01*
X0015451Y0282874D01*
X0015468Y0282999D01*
X0015482Y0283124D01*
X0015492Y0283249D01*
X0015498Y0283374D01*
X0015500Y0283500D01*
X0015498Y0283626D01*
X0015492Y0283751D01*
X0015482Y0283876D01*
X0015468Y0284001D01*
X0015451Y0284126D01*
X0015429Y0284250D01*
X0015404Y0284373D01*
X0015374Y0284495D01*
X0015341Y0284616D01*
X0015304Y0284736D01*
X0015264Y0284855D01*
X0015219Y0284972D01*
X0015171Y0285089D01*
X0015119Y0285203D01*
X0015064Y0285316D01*
X0015005Y0285427D01*
X0014943Y0285536D01*
X0014877Y0285643D01*
X0014808Y0285748D01*
X0014736Y0285851D01*
X0014661Y0285952D01*
X0014582Y0286050D01*
X0014500Y0286145D01*
X0014416Y0286238D01*
X0014328Y0286328D01*
X0014238Y0286416D01*
X0014145Y0286500D01*
X0014050Y0286582D01*
X0013952Y0286661D01*
X0013851Y0286736D01*
X0013748Y0286808D01*
X0013643Y0286877D01*
X0013536Y0286943D01*
X0013427Y0287005D01*
X0013316Y0287064D01*
X0013203Y0287119D01*
X0013089Y0287171D01*
X0012972Y0287219D01*
X0012855Y0287264D01*
X0012736Y0287304D01*
X0012616Y0287341D01*
X0012495Y0287374D01*
X0012373Y0287404D01*
X0012250Y0287429D01*
X0012126Y0287451D01*
X0012001Y0287468D01*
X0011876Y0287482D01*
X0011751Y0287492D01*
X0011626Y0287498D01*
X0011500Y0287500D01*
X0011500Y0310500D01*
X0211500Y0310500D01*
X0211500Y0257500D01*
X0011500Y0257500D01*
D14*
X0040927Y0163162D02*
X0039392Y0161628D01*
X0039392Y0158558D01*
X0040927Y0157024D01*
X0047065Y0157024D01*
X0048600Y0158558D01*
X0048600Y0161628D01*
X0047065Y0163162D01*
X0047065Y0153954D02*
X0045531Y0153954D01*
X0043996Y0152420D01*
X0043996Y0149350D01*
X0042461Y0147816D01*
X0040927Y0147816D01*
X0039392Y0149350D01*
X0039392Y0152420D01*
X0040927Y0153954D01*
X0040927Y0144746D02*
X0042461Y0144746D01*
X0043996Y0143212D01*
X0043996Y0138608D01*
X0043996Y0135539D02*
X0040927Y0135539D01*
X0039392Y0134004D01*
X0039392Y0129400D01*
X0048600Y0129400D01*
X0045531Y0129400D02*
X0045531Y0134004D01*
X0043996Y0135539D01*
X0045531Y0132469D02*
X0048600Y0135539D01*
X0048600Y0138608D02*
X0048600Y0143212D01*
X0047065Y0144746D01*
X0045531Y0144746D01*
X0043996Y0143212D01*
X0040927Y0144746D02*
X0039392Y0143212D01*
X0039392Y0138608D01*
X0048600Y0138608D01*
X0047065Y0147816D02*
X0048600Y0149350D01*
X0048600Y0152420D01*
X0047065Y0153954D01*
D15*
X0036500Y0001500D02*
X0186500Y0001500D01*
X0221500Y0231500D01*
X0221500Y0326500D01*
X0001500Y0326500D01*
X0001500Y0234000D01*
X0036500Y0001500D01*
M02*
