G75*
%MOIN*%
%OFA0B0*%
%FSLAX25Y25*%
%IPPOS*%
%LPD*%
%AMOC8*
5,1,8,0,0,1.08239X$1,22.5*
%
%ADD10C,0.03000*%
%ADD11R,0.05200X0.05200*%
%ADD12C,0.01000*%
%ADD13C,0.04000*%
%ADD14C,0.03500*%
D10*
X0043594Y0066500D02*
X0043596Y0066694D01*
X0043604Y0066888D01*
X0043615Y0067082D01*
X0043632Y0067275D01*
X0043653Y0067468D01*
X0043680Y0067660D01*
X0043710Y0067852D01*
X0043746Y0068042D01*
X0043786Y0068232D01*
X0043831Y0068421D01*
X0043880Y0068609D01*
X0043934Y0068795D01*
X0043993Y0068980D01*
X0044056Y0069163D01*
X0044124Y0069345D01*
X0044196Y0069525D01*
X0044272Y0069704D01*
X0044353Y0069880D01*
X0044438Y0070055D01*
X0044528Y0070227D01*
X0044621Y0070397D01*
X0044719Y0070564D01*
X0044821Y0070730D01*
X0044926Y0070892D01*
X0045036Y0071052D01*
X0045150Y0071210D01*
X0045267Y0071364D01*
X0045389Y0071516D01*
X0045514Y0071664D01*
X0045642Y0071809D01*
X0045774Y0071952D01*
X0045910Y0072090D01*
X0046048Y0072226D01*
X0046191Y0072358D01*
X0046336Y0072486D01*
X0046484Y0072611D01*
X0046636Y0072733D01*
X0046790Y0072850D01*
X0046948Y0072964D01*
X0047108Y0073074D01*
X0047270Y0073179D01*
X0047436Y0073281D01*
X0047603Y0073379D01*
X0047773Y0073472D01*
X0047945Y0073562D01*
X0048120Y0073647D01*
X0048296Y0073728D01*
X0048475Y0073804D01*
X0048655Y0073876D01*
X0048837Y0073944D01*
X0049020Y0074007D01*
X0049205Y0074066D01*
X0049391Y0074120D01*
X0049579Y0074169D01*
X0049768Y0074214D01*
X0049958Y0074254D01*
X0050148Y0074290D01*
X0050340Y0074320D01*
X0050532Y0074347D01*
X0050725Y0074368D01*
X0050918Y0074385D01*
X0051112Y0074396D01*
X0051306Y0074404D01*
X0051500Y0074406D01*
X0051694Y0074404D01*
X0051888Y0074396D01*
X0052082Y0074385D01*
X0052275Y0074368D01*
X0052468Y0074347D01*
X0052660Y0074320D01*
X0052852Y0074290D01*
X0053042Y0074254D01*
X0053232Y0074214D01*
X0053421Y0074169D01*
X0053609Y0074120D01*
X0053795Y0074066D01*
X0053980Y0074007D01*
X0054163Y0073944D01*
X0054345Y0073876D01*
X0054525Y0073804D01*
X0054704Y0073728D01*
X0054880Y0073647D01*
X0055055Y0073562D01*
X0055227Y0073472D01*
X0055397Y0073379D01*
X0055564Y0073281D01*
X0055730Y0073179D01*
X0055892Y0073074D01*
X0056052Y0072964D01*
X0056210Y0072850D01*
X0056364Y0072733D01*
X0056516Y0072611D01*
X0056664Y0072486D01*
X0056809Y0072358D01*
X0056952Y0072226D01*
X0057090Y0072090D01*
X0057226Y0071952D01*
X0057358Y0071809D01*
X0057486Y0071664D01*
X0057611Y0071516D01*
X0057733Y0071364D01*
X0057850Y0071210D01*
X0057964Y0071052D01*
X0058074Y0070892D01*
X0058179Y0070730D01*
X0058281Y0070564D01*
X0058379Y0070397D01*
X0058472Y0070227D01*
X0058562Y0070055D01*
X0058647Y0069880D01*
X0058728Y0069704D01*
X0058804Y0069525D01*
X0058876Y0069345D01*
X0058944Y0069163D01*
X0059007Y0068980D01*
X0059066Y0068795D01*
X0059120Y0068609D01*
X0059169Y0068421D01*
X0059214Y0068232D01*
X0059254Y0068042D01*
X0059290Y0067852D01*
X0059320Y0067660D01*
X0059347Y0067468D01*
X0059368Y0067275D01*
X0059385Y0067082D01*
X0059396Y0066888D01*
X0059404Y0066694D01*
X0059406Y0066500D01*
X0059404Y0066306D01*
X0059396Y0066112D01*
X0059385Y0065918D01*
X0059368Y0065725D01*
X0059347Y0065532D01*
X0059320Y0065340D01*
X0059290Y0065148D01*
X0059254Y0064958D01*
X0059214Y0064768D01*
X0059169Y0064579D01*
X0059120Y0064391D01*
X0059066Y0064205D01*
X0059007Y0064020D01*
X0058944Y0063837D01*
X0058876Y0063655D01*
X0058804Y0063475D01*
X0058728Y0063296D01*
X0058647Y0063120D01*
X0058562Y0062945D01*
X0058472Y0062773D01*
X0058379Y0062603D01*
X0058281Y0062436D01*
X0058179Y0062270D01*
X0058074Y0062108D01*
X0057964Y0061948D01*
X0057850Y0061790D01*
X0057733Y0061636D01*
X0057611Y0061484D01*
X0057486Y0061336D01*
X0057358Y0061191D01*
X0057226Y0061048D01*
X0057090Y0060910D01*
X0056952Y0060774D01*
X0056809Y0060642D01*
X0056664Y0060514D01*
X0056516Y0060389D01*
X0056364Y0060267D01*
X0056210Y0060150D01*
X0056052Y0060036D01*
X0055892Y0059926D01*
X0055730Y0059821D01*
X0055564Y0059719D01*
X0055397Y0059621D01*
X0055227Y0059528D01*
X0055055Y0059438D01*
X0054880Y0059353D01*
X0054704Y0059272D01*
X0054525Y0059196D01*
X0054345Y0059124D01*
X0054163Y0059056D01*
X0053980Y0058993D01*
X0053795Y0058934D01*
X0053609Y0058880D01*
X0053421Y0058831D01*
X0053232Y0058786D01*
X0053042Y0058746D01*
X0052852Y0058710D01*
X0052660Y0058680D01*
X0052468Y0058653D01*
X0052275Y0058632D01*
X0052082Y0058615D01*
X0051888Y0058604D01*
X0051694Y0058596D01*
X0051500Y0058594D01*
X0051306Y0058596D01*
X0051112Y0058604D01*
X0050918Y0058615D01*
X0050725Y0058632D01*
X0050532Y0058653D01*
X0050340Y0058680D01*
X0050148Y0058710D01*
X0049958Y0058746D01*
X0049768Y0058786D01*
X0049579Y0058831D01*
X0049391Y0058880D01*
X0049205Y0058934D01*
X0049020Y0058993D01*
X0048837Y0059056D01*
X0048655Y0059124D01*
X0048475Y0059196D01*
X0048296Y0059272D01*
X0048120Y0059353D01*
X0047945Y0059438D01*
X0047773Y0059528D01*
X0047603Y0059621D01*
X0047436Y0059719D01*
X0047270Y0059821D01*
X0047108Y0059926D01*
X0046948Y0060036D01*
X0046790Y0060150D01*
X0046636Y0060267D01*
X0046484Y0060389D01*
X0046336Y0060514D01*
X0046191Y0060642D01*
X0046048Y0060774D01*
X0045910Y0060910D01*
X0045774Y0061048D01*
X0045642Y0061191D01*
X0045514Y0061336D01*
X0045389Y0061484D01*
X0045267Y0061636D01*
X0045150Y0061790D01*
X0045036Y0061948D01*
X0044926Y0062108D01*
X0044821Y0062270D01*
X0044719Y0062436D01*
X0044621Y0062603D01*
X0044528Y0062773D01*
X0044438Y0062945D01*
X0044353Y0063120D01*
X0044272Y0063296D01*
X0044196Y0063475D01*
X0044124Y0063655D01*
X0044056Y0063837D01*
X0043993Y0064020D01*
X0043934Y0064205D01*
X0043880Y0064391D01*
X0043831Y0064579D01*
X0043786Y0064768D01*
X0043746Y0064958D01*
X0043710Y0065148D01*
X0043680Y0065340D01*
X0043653Y0065532D01*
X0043632Y0065725D01*
X0043615Y0065918D01*
X0043604Y0066112D01*
X0043596Y0066306D01*
X0043594Y0066500D01*
X0163594Y0066500D02*
X0163596Y0066694D01*
X0163604Y0066888D01*
X0163615Y0067082D01*
X0163632Y0067275D01*
X0163653Y0067468D01*
X0163680Y0067660D01*
X0163710Y0067852D01*
X0163746Y0068042D01*
X0163786Y0068232D01*
X0163831Y0068421D01*
X0163880Y0068609D01*
X0163934Y0068795D01*
X0163993Y0068980D01*
X0164056Y0069163D01*
X0164124Y0069345D01*
X0164196Y0069525D01*
X0164272Y0069704D01*
X0164353Y0069880D01*
X0164438Y0070055D01*
X0164528Y0070227D01*
X0164621Y0070397D01*
X0164719Y0070564D01*
X0164821Y0070730D01*
X0164926Y0070892D01*
X0165036Y0071052D01*
X0165150Y0071210D01*
X0165267Y0071364D01*
X0165389Y0071516D01*
X0165514Y0071664D01*
X0165642Y0071809D01*
X0165774Y0071952D01*
X0165910Y0072090D01*
X0166048Y0072226D01*
X0166191Y0072358D01*
X0166336Y0072486D01*
X0166484Y0072611D01*
X0166636Y0072733D01*
X0166790Y0072850D01*
X0166948Y0072964D01*
X0167108Y0073074D01*
X0167270Y0073179D01*
X0167436Y0073281D01*
X0167603Y0073379D01*
X0167773Y0073472D01*
X0167945Y0073562D01*
X0168120Y0073647D01*
X0168296Y0073728D01*
X0168475Y0073804D01*
X0168655Y0073876D01*
X0168837Y0073944D01*
X0169020Y0074007D01*
X0169205Y0074066D01*
X0169391Y0074120D01*
X0169579Y0074169D01*
X0169768Y0074214D01*
X0169958Y0074254D01*
X0170148Y0074290D01*
X0170340Y0074320D01*
X0170532Y0074347D01*
X0170725Y0074368D01*
X0170918Y0074385D01*
X0171112Y0074396D01*
X0171306Y0074404D01*
X0171500Y0074406D01*
X0171694Y0074404D01*
X0171888Y0074396D01*
X0172082Y0074385D01*
X0172275Y0074368D01*
X0172468Y0074347D01*
X0172660Y0074320D01*
X0172852Y0074290D01*
X0173042Y0074254D01*
X0173232Y0074214D01*
X0173421Y0074169D01*
X0173609Y0074120D01*
X0173795Y0074066D01*
X0173980Y0074007D01*
X0174163Y0073944D01*
X0174345Y0073876D01*
X0174525Y0073804D01*
X0174704Y0073728D01*
X0174880Y0073647D01*
X0175055Y0073562D01*
X0175227Y0073472D01*
X0175397Y0073379D01*
X0175564Y0073281D01*
X0175730Y0073179D01*
X0175892Y0073074D01*
X0176052Y0072964D01*
X0176210Y0072850D01*
X0176364Y0072733D01*
X0176516Y0072611D01*
X0176664Y0072486D01*
X0176809Y0072358D01*
X0176952Y0072226D01*
X0177090Y0072090D01*
X0177226Y0071952D01*
X0177358Y0071809D01*
X0177486Y0071664D01*
X0177611Y0071516D01*
X0177733Y0071364D01*
X0177850Y0071210D01*
X0177964Y0071052D01*
X0178074Y0070892D01*
X0178179Y0070730D01*
X0178281Y0070564D01*
X0178379Y0070397D01*
X0178472Y0070227D01*
X0178562Y0070055D01*
X0178647Y0069880D01*
X0178728Y0069704D01*
X0178804Y0069525D01*
X0178876Y0069345D01*
X0178944Y0069163D01*
X0179007Y0068980D01*
X0179066Y0068795D01*
X0179120Y0068609D01*
X0179169Y0068421D01*
X0179214Y0068232D01*
X0179254Y0068042D01*
X0179290Y0067852D01*
X0179320Y0067660D01*
X0179347Y0067468D01*
X0179368Y0067275D01*
X0179385Y0067082D01*
X0179396Y0066888D01*
X0179404Y0066694D01*
X0179406Y0066500D01*
X0179404Y0066306D01*
X0179396Y0066112D01*
X0179385Y0065918D01*
X0179368Y0065725D01*
X0179347Y0065532D01*
X0179320Y0065340D01*
X0179290Y0065148D01*
X0179254Y0064958D01*
X0179214Y0064768D01*
X0179169Y0064579D01*
X0179120Y0064391D01*
X0179066Y0064205D01*
X0179007Y0064020D01*
X0178944Y0063837D01*
X0178876Y0063655D01*
X0178804Y0063475D01*
X0178728Y0063296D01*
X0178647Y0063120D01*
X0178562Y0062945D01*
X0178472Y0062773D01*
X0178379Y0062603D01*
X0178281Y0062436D01*
X0178179Y0062270D01*
X0178074Y0062108D01*
X0177964Y0061948D01*
X0177850Y0061790D01*
X0177733Y0061636D01*
X0177611Y0061484D01*
X0177486Y0061336D01*
X0177358Y0061191D01*
X0177226Y0061048D01*
X0177090Y0060910D01*
X0176952Y0060774D01*
X0176809Y0060642D01*
X0176664Y0060514D01*
X0176516Y0060389D01*
X0176364Y0060267D01*
X0176210Y0060150D01*
X0176052Y0060036D01*
X0175892Y0059926D01*
X0175730Y0059821D01*
X0175564Y0059719D01*
X0175397Y0059621D01*
X0175227Y0059528D01*
X0175055Y0059438D01*
X0174880Y0059353D01*
X0174704Y0059272D01*
X0174525Y0059196D01*
X0174345Y0059124D01*
X0174163Y0059056D01*
X0173980Y0058993D01*
X0173795Y0058934D01*
X0173609Y0058880D01*
X0173421Y0058831D01*
X0173232Y0058786D01*
X0173042Y0058746D01*
X0172852Y0058710D01*
X0172660Y0058680D01*
X0172468Y0058653D01*
X0172275Y0058632D01*
X0172082Y0058615D01*
X0171888Y0058604D01*
X0171694Y0058596D01*
X0171500Y0058594D01*
X0171306Y0058596D01*
X0171112Y0058604D01*
X0170918Y0058615D01*
X0170725Y0058632D01*
X0170532Y0058653D01*
X0170340Y0058680D01*
X0170148Y0058710D01*
X0169958Y0058746D01*
X0169768Y0058786D01*
X0169579Y0058831D01*
X0169391Y0058880D01*
X0169205Y0058934D01*
X0169020Y0058993D01*
X0168837Y0059056D01*
X0168655Y0059124D01*
X0168475Y0059196D01*
X0168296Y0059272D01*
X0168120Y0059353D01*
X0167945Y0059438D01*
X0167773Y0059528D01*
X0167603Y0059621D01*
X0167436Y0059719D01*
X0167270Y0059821D01*
X0167108Y0059926D01*
X0166948Y0060036D01*
X0166790Y0060150D01*
X0166636Y0060267D01*
X0166484Y0060389D01*
X0166336Y0060514D01*
X0166191Y0060642D01*
X0166048Y0060774D01*
X0165910Y0060910D01*
X0165774Y0061048D01*
X0165642Y0061191D01*
X0165514Y0061336D01*
X0165389Y0061484D01*
X0165267Y0061636D01*
X0165150Y0061790D01*
X0165036Y0061948D01*
X0164926Y0062108D01*
X0164821Y0062270D01*
X0164719Y0062436D01*
X0164621Y0062603D01*
X0164528Y0062773D01*
X0164438Y0062945D01*
X0164353Y0063120D01*
X0164272Y0063296D01*
X0164196Y0063475D01*
X0164124Y0063655D01*
X0164056Y0063837D01*
X0163993Y0064020D01*
X0163934Y0064205D01*
X0163880Y0064391D01*
X0163831Y0064579D01*
X0163786Y0064768D01*
X0163746Y0064958D01*
X0163710Y0065148D01*
X0163680Y0065340D01*
X0163653Y0065532D01*
X0163632Y0065725D01*
X0163615Y0065918D01*
X0163604Y0066112D01*
X0163596Y0066306D01*
X0163594Y0066500D01*
D11*
X0141500Y0064000D03*
X0141500Y0054000D03*
X0141500Y0044000D03*
X0141500Y0034000D03*
X0141500Y0024000D03*
X0141500Y0014000D03*
X0141500Y0074000D03*
X0141500Y0084000D03*
X0141500Y0094000D03*
X0141500Y0104000D03*
X0141500Y0114000D03*
X0141500Y0124000D03*
X0141500Y0134000D03*
X0141500Y0144000D03*
X0141500Y0154000D03*
X0141500Y0164000D03*
X0141500Y0174000D03*
X0141500Y0184000D03*
X0141500Y0194000D03*
X0141500Y0204000D03*
X0136500Y0254000D03*
X0146500Y0254000D03*
X0156500Y0254000D03*
X0166500Y0254000D03*
X0176500Y0254000D03*
X0186500Y0254000D03*
X0196500Y0254000D03*
X0206500Y0254000D03*
X0206500Y0314000D03*
X0196500Y0314000D03*
X0186500Y0314000D03*
X0176500Y0314000D03*
X0166500Y0314000D03*
X0156500Y0314000D03*
X0146500Y0314000D03*
X0136500Y0314000D03*
X0126500Y0314000D03*
X0116500Y0314000D03*
X0106500Y0314000D03*
X0096500Y0314000D03*
X0086500Y0314000D03*
X0076500Y0314000D03*
X0066500Y0314000D03*
X0056500Y0314000D03*
X0046500Y0314000D03*
X0036500Y0314000D03*
X0026500Y0314000D03*
X0016500Y0314000D03*
X0016500Y0254000D03*
X0026500Y0254000D03*
X0036500Y0254000D03*
X0046500Y0254000D03*
X0056500Y0254000D03*
X0066500Y0254000D03*
X0076500Y0254000D03*
X0086500Y0254000D03*
X0096500Y0254000D03*
X0106500Y0254000D03*
X0116500Y0254000D03*
X0126500Y0254000D03*
X0081500Y0204000D03*
X0081500Y0194000D03*
X0081500Y0184000D03*
X0081500Y0174000D03*
X0081500Y0164000D03*
X0081500Y0154000D03*
X0081500Y0144000D03*
X0081500Y0134000D03*
X0081500Y0124000D03*
X0081500Y0114000D03*
X0081500Y0104000D03*
X0081500Y0094000D03*
X0081500Y0084000D03*
X0081500Y0074000D03*
X0081500Y0064000D03*
X0081500Y0054000D03*
X0081500Y0044000D03*
X0081500Y0034000D03*
X0081500Y0024000D03*
X0081500Y0014000D03*
D12*
X0031500Y0054000D02*
X0031500Y0206500D01*
X0009000Y0229000D01*
X0009000Y0314000D01*
X0014000Y0319000D01*
X0021500Y0319000D01*
X0026500Y0314000D01*
X0031500Y0316500D02*
X0031500Y0311500D01*
X0021500Y0301500D01*
X0021500Y0241500D01*
X0041500Y0221500D01*
X0041500Y0106500D01*
X0061500Y0086500D01*
X0061500Y0071500D01*
X0079000Y0054000D01*
X0081500Y0054000D01*
X0079000Y0059000D02*
X0064000Y0074000D01*
X0064000Y0089000D01*
X0044000Y0109000D01*
X0044000Y0224000D01*
X0026500Y0241500D01*
X0026500Y0254000D01*
X0031500Y0251500D02*
X0031500Y0299000D01*
X0046500Y0314000D01*
X0051500Y0319000D02*
X0056500Y0314000D01*
X0051500Y0319000D02*
X0034000Y0319000D01*
X0031500Y0316500D01*
X0016500Y0314000D02*
X0011500Y0309000D01*
X0011500Y0236500D01*
X0036500Y0211500D01*
X0036500Y0059000D01*
X0056500Y0039000D01*
X0084000Y0039000D01*
X0086500Y0036500D01*
X0086500Y0019000D01*
X0081500Y0014000D01*
X0081500Y0024000D02*
X0061500Y0024000D01*
X0031500Y0054000D01*
X0034000Y0056500D02*
X0034000Y0209000D01*
X0031500Y0211500D01*
X0039000Y0214000D02*
X0016500Y0236500D01*
X0016500Y0254000D01*
X0031500Y0251500D02*
X0046500Y0236500D01*
X0046500Y0129000D01*
X0049000Y0126500D01*
X0049000Y0119000D01*
X0054000Y0126500D02*
X0049000Y0131500D01*
X0049000Y0239000D01*
X0036500Y0251500D01*
X0036500Y0254000D01*
X0041500Y0251500D02*
X0041500Y0259000D01*
X0096500Y0314000D01*
X0106500Y0314000D02*
X0051500Y0259000D01*
X0051500Y0251500D01*
X0054000Y0249000D01*
X0054000Y0151500D01*
X0066500Y0139000D01*
X0066500Y0116500D01*
X0079000Y0104000D01*
X0081500Y0104000D01*
X0079000Y0099000D02*
X0064000Y0114000D01*
X0064000Y0136500D01*
X0056500Y0144000D01*
X0051500Y0144000D02*
X0051500Y0241500D01*
X0041500Y0251500D01*
X0061500Y0251500D02*
X0061500Y0259000D01*
X0116500Y0314000D01*
X0124000Y0309000D02*
X0131500Y0309000D01*
X0136500Y0314000D01*
X0139000Y0306500D02*
X0146500Y0314000D01*
X0139000Y0306500D02*
X0131500Y0306500D01*
X0081500Y0256500D01*
X0081500Y0251500D01*
X0074000Y0244000D01*
X0074000Y0151500D01*
X0081500Y0144000D01*
X0074000Y0141500D02*
X0081500Y0134000D01*
X0074000Y0136500D02*
X0074000Y0121500D01*
X0081500Y0114000D01*
X0079000Y0109000D02*
X0069000Y0119000D01*
X0069000Y0141500D01*
X0066500Y0144000D01*
X0069000Y0146500D02*
X0069000Y0244000D01*
X0061500Y0251500D01*
X0071500Y0256500D02*
X0124000Y0309000D01*
X0156500Y0314000D02*
X0111500Y0269000D01*
X0114000Y0264000D02*
X0109000Y0264000D01*
X0101500Y0256500D01*
X0101500Y0251500D01*
X0081500Y0231500D01*
X0081500Y0204000D01*
X0081500Y0194000D02*
X0111500Y0224000D01*
X0111500Y0256500D01*
X0164000Y0309000D01*
X0191500Y0309000D01*
X0196500Y0314000D01*
X0201500Y0319000D02*
X0206500Y0314000D01*
X0201500Y0319000D02*
X0164000Y0319000D01*
X0161500Y0316500D01*
X0161500Y0311500D01*
X0114000Y0264000D01*
X0121500Y0224000D02*
X0081500Y0184000D01*
X0076500Y0181500D02*
X0079000Y0179000D01*
X0096500Y0179000D01*
X0119000Y0156500D01*
X0119000Y0096500D01*
X0141500Y0074000D01*
X0144000Y0069000D02*
X0139000Y0069000D01*
X0116500Y0091500D01*
X0116500Y0154000D01*
X0096500Y0174000D01*
X0081500Y0174000D01*
X0076500Y0181500D02*
X0076500Y0241500D01*
X0079000Y0244000D01*
X0071500Y0256500D02*
X0071500Y0149000D01*
X0074000Y0146500D01*
X0074000Y0141500D01*
X0071500Y0144000D02*
X0071500Y0139000D01*
X0074000Y0136500D01*
X0071500Y0144000D02*
X0069000Y0146500D01*
X0061500Y0134000D02*
X0051500Y0144000D01*
X0054000Y0136500D02*
X0059000Y0131500D01*
X0059000Y0109000D01*
X0071500Y0096500D01*
X0071500Y0094000D01*
X0081500Y0084000D01*
X0079000Y0079000D02*
X0069000Y0089000D01*
X0069000Y0094000D01*
X0056500Y0106500D01*
X0056500Y0129000D01*
X0054000Y0131500D01*
X0054000Y0126500D02*
X0054000Y0104000D01*
X0066500Y0091500D01*
X0066500Y0081500D01*
X0079000Y0069000D01*
X0084000Y0069000D01*
X0119000Y0034000D01*
X0141500Y0034000D01*
X0141500Y0024000D02*
X0119000Y0024000D01*
X0084000Y0059000D01*
X0079000Y0059000D01*
X0084000Y0049000D02*
X0051500Y0049000D01*
X0039000Y0061500D01*
X0039000Y0214000D01*
X0081500Y0154000D02*
X0084000Y0154000D01*
X0089000Y0149000D01*
X0106500Y0149000D01*
X0111500Y0154000D01*
X0141500Y0164000D02*
X0166500Y0189000D01*
X0141500Y0184000D02*
X0186500Y0229000D01*
X0186500Y0249000D02*
X0189000Y0249000D01*
X0191500Y0251500D01*
X0191500Y0256500D01*
X0194000Y0259000D01*
X0201500Y0259000D01*
X0206500Y0254000D01*
X0211500Y0251500D02*
X0211500Y0274000D01*
X0181500Y0304000D01*
X0196500Y0254000D02*
X0196500Y0249000D01*
X0141500Y0194000D01*
X0141500Y0204000D02*
X0186500Y0249000D01*
X0204000Y0244000D02*
X0211500Y0251500D01*
X0204000Y0244000D02*
X0204000Y0129000D01*
X0144000Y0069000D01*
X0141500Y0064000D02*
X0129000Y0064000D01*
X0084000Y0109000D01*
X0079000Y0109000D01*
X0079000Y0099000D02*
X0084000Y0099000D01*
X0129000Y0054000D01*
X0141500Y0054000D01*
X0141500Y0044000D02*
X0119000Y0044000D01*
X0084000Y0079000D01*
X0079000Y0079000D01*
X0079000Y0094000D02*
X0061500Y0111500D01*
X0061500Y0134000D01*
X0079000Y0094000D02*
X0081500Y0094000D01*
X0084000Y0049000D02*
X0119000Y0014000D01*
X0141500Y0014000D01*
X0081500Y0034000D02*
X0056500Y0034000D01*
X0034000Y0056500D01*
X0051500Y0279000D02*
X0086500Y0314000D01*
D13*
X0111500Y0269000D03*
X0121500Y0224000D03*
X0079000Y0244000D03*
X0051500Y0279000D03*
X0031500Y0211500D03*
X0056500Y0144000D03*
X0054000Y0136500D03*
X0054000Y0131500D03*
X0049000Y0119000D03*
X0066500Y0144000D03*
X0111500Y0154000D03*
X0166500Y0189000D03*
X0186500Y0229000D03*
X0181500Y0304000D03*
D14*
X0116500Y0254000D02*
X0134000Y0236500D01*
X0134000Y0121500D01*
X0141500Y0114000D01*
M02*
